{
DisplayStrings = (
/sf.player.volume.muted
);
customParameters = (
{
name = unicodeRanges;
value = (
    60
);
},
{
name = glyphOrder;
value = (
    ".notdef",
    NULL,
    CR,
    space,
    "sf.arrow.down",
    "sf.arrow.left",
    "sf.arrow.right",
    "sf.arrow.up",
    "sf.chevron.down",
    "sf.chevron.left",
    "sf.chevron.right",
    "sf.chevron.up",
    "sf.triangle.down",
    "sf.triangle.left",
    "sf.triangle.right",
    "sf.triangle.up",
    "sf.triangle.down.circle",
    "sf.triangle.left.circle",
    "sf.triangle.right.circle",
    "sf.triangle.up.circle",
    "sf.chevron.down.circle",
    "sf.chevron.left.circle",
    "sf.chevron.right.circle",
    "sf.chevron.up.circle",
    "sf.triangle.down.circle.o",
    "sf.triangle.left.circle.o",
    "sf.triangle.right.circle.o",
    "sf.triangle.up.circle.o",
    "sf.chevron.down.circle.o",
    "sf.chevron.left.circle.o",
    "sf.chevron.right.circle.o",
    "sf.chevron.up.circle.o",
    "sf.empty.circle",
    "sf.plus.circle",
    "sf.minus.circle",
    "sf.checked.circle",
    "sf.x.circle",
    "sf.empty.circle.o",
    "sf.plus.circle.o",
    "sf.minus.circle.o",
    "sf.checked.circle.o",
    "sf.x.circle.o",
    "sf.empty.square",
    "sf.plus.square",
    "sf.minus.square",
    "sf.checked.square",
    "sf.x.square",
    "sf.empty.square.o",
    "sf.plus.square.o",
    "sf.minus.square.o",
    "sf.checked.square.o",
    "sf.x.square.o",
    "sf.calendar",
    "sf.calendar.day",
    "sf.calendar.day.o",
    "sf.calendar.o",
    "sf.alarm.clock",
    "sf.alarm.clock.o",
    "sf.clock",
    "sf.clock.o",
    "sf.clock.reverse",
    "sf.stopwatch",
    "sf.stopwatch.o",
    "sf.dribbble",
    "sf.facebook",
    "sf.google.plus",
    "sf.linkedin",
    "sf.twitter",
    "sf.comment",
    "sf.comment.o",
    "sf.reply",
    "sf.reply.o",
    "sf.compass",
    "sf.compass.o",
    "sf.direction",
    "sf.direction.o",
    "sf.poi",
    "sf.poi.o",
    "sf.star",
    "sf.star.o",
    "sf.half.star",

glyphs = (
{
glyphname = sf.arrow.down;
lastChange = "2014-08-11 11:27:51 +0000";
layers = (
{
hints = (
{
origin = "{0, 3}";
target = "{0, 33}";
},
{
horizontal = 1;
origin = "{0, 0}";
target = down;
type = TopGhost;
},
{
horizontal = 1;
origin = "{0, 18}";
target = up;
type = BottomGhost;
}
);
layerId = "7BDE272C-C7FB-4166-8673-7B6B584E769E";
name = Regular;
paths = (
{
closed = 1;
nodes = (
"284 700 LINE SMOOTH",
"268 700 OFFCURVE",
"254 687 OFFCURVE",
"254 670 CURVE SMOOTH",
"254 383 LINE SMOOTH",
"254 367 OFFCURVE",
"242 353 OFFCURVE",
"225 353 CURVE SMOOTH",
"80 353 LINE SMOOTH",
"67 353 OFFCURVE",
"56 346 OFFCURVE",
"52 334 CURVE SMOOTH",
"48 323 OFFCURVE",
"50 309 OFFCURVE",
"60 302 CURVE SMOOTH",
"368 8 LINE SMOOTH",
"374 3 OFFCURVE",
"383 0 OFFCURVE",
"391 0 CURVE SMOOTH",
"398 0 OFFCURVE",
"408 3 OFFCURVE",
"413 8 CURVE SMOOTH",
"722 302 LINE SMOOTH",
"731 309 OFFCURVE",
"733 323 OFFCURVE",
"729 334 CURVE SMOOTH",
"725 346 OFFCURVE",
"714 353 OFFCURVE",
"701 353 CURVE SMOOTH",
"557 353 LINE SMOOTH",
"540 353 OFFCURVE",
"527 367 OFFCURVE",
"527 383 CURVE SMOOTH",
"527 670 LINE SMOOTH",
"527 687 OFFCURVE",
"513 700 OFFCURVE",
"497 700 CURVE SMOOTH"
);
}
);
width = 780.964;
}
);
unicode = E009;
},
{
glyphname = sf.arrow.left;
lastChange = "2014-08-11 11:28:02 +0000";
layers = (
{
hints = (
{
horizontal = 1;
origin = "{0, 33}";
target = "{0, 3}";
},
{
horizontal = 1;
origin = "{0, 11}";
target = down;
type = TopGhost;
},
{
horizontal = 1;
origin = "{0, 25}";
target = up;
type = BottomGhost;
}
);
layerId = "7BDE272C-C7FB-4166-8673-7B6B584E769E";
name = Regular;
paths = (
{
closed = 1;
nodes = (
"750 456 LINE SMOOTH",
"750 472 OFFCURVE",
"737 486 OFFCURVE",
"720 486 CURVE SMOOTH",
"433 486 LINE SMOOTH",
"417 486 OFFCURVE",
"403 498 OFFCURVE",
"403 515 CURVE SMOOTH",
"403 660 LINE SMOOTH",
"403 673 OFFCURVE",
"396 684 OFFCURVE",
"384 688 CURVE SMOOTH",
"373 692 OFFCURVE",
"359 690 OFFCURVE",
"352 680 CURVE SMOOTH",
"58 372 LINE SMOOTH",
"53 366 OFFCURVE",
"50 357 OFFCURVE",
"50 349 CURVE SMOOTH",
"50 342 OFFCURVE",
"53 332 OFFCURVE",
"58 327 CURVE SMOOTH",
"352 18 LINE SMOOTH",
"359 9 OFFCURVE",
"373 7 OFFCURVE",
"384 11 CURVE SMOOTH",
"396 15 OFFCURVE",
"403 26 OFFCURVE",
"403 39 CURVE SMOOTH",
"403 183 LINE SMOOTH",
"403 200 OFFCURVE",
"417 213 OFFCURVE",
"433 213 CURVE SMOOTH",
"720 213 LINE SMOOTH",
"737 213 OFFCURVE",
"750 227 OFFCURVE",
"750 243 CURVE SMOOTH"
);
}
);
width = 800;
}
);
unicode = E00B;
},
{
glyphname = sf.arrow.right;
lastChange = "2014-08-11 11:28:16 +0000";
layers = (
{
hints = (
{
horizontal = 1;
origin = "{0, 3}";
target = "{0, 33}";
},
{
horizontal = 1;
origin = "{0, 25}";
target = down;
type = TopGhost;
},
{
horizontal = 1;
origin = "{0, 11}";
target = up;
type = BottomGhost;
}
);
layerId = "7BDE272C-C7FB-4166-8673-7B6B584E769E";
name = Regular;
paths = (
{
closed = 1;
nodes = (
"50 243 LINE SMOOTH",
"50 227 OFFCURVE",
"63 213 OFFCURVE",
"80 213 CURVE SMOOTH",
"367 213 LINE SMOOTH",
"383 213 OFFCURVE",
"397 200 OFFCURVE",
"397 183 CURVE SMOOTH",
"397 39 LINE SMOOTH",
"397 26 OFFCURVE",
"404 15 OFFCURVE",
"416 11 CURVE SMOOTH",
"427 7 OFFCURVE",
"441 9 OFFCURVE",
"448 18 CURVE SMOOTH",
"742 327 LINE SMOOTH",
"747 332 OFFCURVE",
"750 342 OFFCURVE",
"750 349 CURVE SMOOTH",
"750 357 OFFCURVE",
"747 366 OFFCURVE",
"742 372 CURVE SMOOTH",
"448 680 LINE SMOOTH",
"441 690 OFFCURVE",
"427 692 OFFCURVE",
"416 688 CURVE SMOOTH",
"404 684 OFFCURVE",
"397 673 OFFCURVE",
"397 660 CURVE SMOOTH",
"397 515 LINE SMOOTH",
"397 498 OFFCURVE",
"383 486 OFFCURVE",
"367 486 CURVE SMOOTH",
"80 486 LINE SMOOTH",
"63 486 OFFCURVE",
"50 472 OFFCURVE",
"50 456 CURVE SMOOTH"
);
}
);
width = 757;
}
);
unicode = E00A;
},
{
glyphname = sf.arrow.up;
lastChange = "2014-08-11 13:15:05 +0000";
layers = (
{
hints = (
{
place = "{254.000000, 273.000000}";
},
{
horizontal = 1;
place = "{700.000000, -20.000000}";
target = down;
type = TopGhost;
},
{
horizontal = 1;
place = "{0.000000, 21.000000}";
target = up;
type = BottomGhost;
}
);
layerId = "7BDE272C-C7FB-4166-8673-7B6B584E769E";
name = Regular;
paths = (
{
closed = 1;
nodes = (
"529 0 LINE SMOOTH",
"545 0 OFFCURVE",
"559 13 OFFCURVE",
"559 30 CURVE SMOOTH",
"559 317 LINE SMOOTH",
"559 333 OFFCURVE",
"571 347 OFFCURVE",
"587 347 CURVE SMOOTH",
"765 347 LINE SMOOTH",
"777 347 OFFCURVE",
"789 354 OFFCURVE",
"793 366 CURVE SMOOTH",
"797 377 OFFCURVE",
"794 390 OFFCURVE",
"785 398 CURVE",
"445 692 LINE",
"438 697 OFFCURVE",
"430 700 OFFCURVE",
"423 700 CURVE SMOOTH",
"415 700 OFFCURVE",
"406 697 OFFCURVE",
"400 692 CURVE",
"60 398 LINE",
"50 390 OFFCURVE",
"48 377 OFFCURVE",
"52 366 CURVE SMOOTH",
"57 354 OFFCURVE",
"67 347 OFFCURVE",
"80 347 CURVE SMOOTH",
"257 347 LINE SMOOTH",
"274 347 OFFCURVE",
"286 333 OFFCURVE",
"286 317 CURVE SMOOTH",
"286 30 LINE SMOOTH",
"286 13 OFFCURVE",
"300 0 OFFCURVE",
"316 0 CURVE SMOOTH"
);
}
);
width = 844.738;
}
);
unicode = E008;
},
{
glyphname = sf.chevron.down;
lastChange = "2014-08-08 16:34:41 +0000";
layers = (
{
layerId = "7BDE272C-C7FB-4166-8673-7B6B584E769E";
name = Regular;
paths = (
{
closed = 1;
nodes = (
"508 508 LINE",
"515 513 OFFCURVE",
"521 516 OFFCURVE",
"528 516 CURVE SMOOTH",
"628 516 LINE SMOOTH",
"653 516 OFFCURVE",
"667 487 OFFCURVE",
"648 467 CURVE SMOOTH",
"373 192 LINE SMOOTH",
"368 187 OFFCURVE",
"361 184 OFFCURVE",
"353 184 CURVE SMOOTH",
"346 184 OFFCURVE",
"340 187 OFFCURVE",
"333 192 CURVE",
"58 467 LINE",
"41 486 OFFCURVE",
"54 516 OFFCURVE",
"78 516 CURVE SMOOTH",
"178 516 LINE SMOOTH",
"186 516 OFFCURVE",
"193 513 OFFCURVE",
"198 508 CURVE SMOOTH",
"333 372 LINE SMOOTH",
"338 367 OFFCURVE",
"345 364 OFFCURVE",
"353 364 CURVE SMOOTH",
"361 364 OFFCURVE",
"368 367 OFFCURVE",
"373 372 CURVE SMOOTH"
);
}
);
width = 706.824;
}
);
unicode = E005;
},
{
glyphname = sf.chevron.left;
lastChange = "2014-08-08 16:36:29 +0000";
layers = (
{
layerId = "7BDE272C-C7FB-4166-8673-7B6B584E769E";
name = Regular;
paths = (
{
closed = 1;
nodes = (
"374 196 LINE SMOOTH",
"379 191 OFFCURVE",
"382 184 OFFCURVE",
"382 176 CURVE SMOOTH",
"382 76 LINE SMOOTH",
"382 63 OFFCURVE",
"376 55 OFFCURVE",
"364 50 CURVE",
"353 46 OFFCURVE",
"341 48 OFFCURVE",
"333 56 CURVE SMOOTH",
"58 331 LINE SMOOTH",
"53 336 OFFCURVE",
"50 343 OFFCURVE",
"50 351 CURVE SMOOTH",
"50 359 OFFCURVE",
"53 366 OFFCURVE",
"58 371 CURVE SMOOTH",
"333 646 LINE SMOOTH",
"341 654 OFFCURVE",
"353 656 OFFCURVE",
"364 652 CURVE",
"376 647 OFFCURVE",
"382 639 OFFCURVE",
"382 626 CURVE SMOOTH",
"382 526 LINE SMOOTH",
"382 517 OFFCURVE",
"379 511 OFFCURVE",
"373 506 CURVE",
"238 371 LINE SMOOTH",
"233 366 OFFCURVE",
"230 359 OFFCURVE",
"230 351 CURVE SMOOTH",
"230 343 OFFCURVE",
"233 336 OFFCURVE",
"238 331 CURVE SMOOTH"
);
}
);
width = 432;
}
);
unicode = E006;
},
{
glyphname = sf.chevron.right;
lastChange = "2014-08-08 16:36:41 +0000";
layers = (
{
layerId = "7BDE272C-C7FB-4166-8673-7B6B584E769E";
name = Regular;
paths = (
{
closed = 1;
nodes = (
"199 335 OFFCURVE",
"202 342 OFFCURVE",
"202 350 CURVE SMOOTH",
"202 358 OFFCURVE",
"199 365 OFFCURVE",
"194 370 CURVE SMOOTH",
"59 505 LINE",
"53 510 OFFCURVE",
"50 516 OFFCURVE",
"50 525 CURVE SMOOTH",
"50 625 LINE SMOOTH",
"50 638 OFFCURVE",
"56 646 OFFCURVE",
"68 651 CURVE",
"79 655 OFFCURVE",
"91 653 OFFCURVE",
"99 645 CURVE SMOOTH",
"374 370 LINE SMOOTH",
"379 365 OFFCURVE",
"382 358 OFFCURVE",
"382 350 CURVE SMOOTH",
"382 342 OFFCURVE",
"379 335 OFFCURVE",
"374 330 CURVE SMOOTH",
"99 55 LINE SMOOTH",
"91 47 OFFCURVE",
"79 45 OFFCURVE",
"68 49 CURVE",
"56 54 OFFCURVE",
"50 62 OFFCURVE",
"50 75 CURVE SMOOTH",
"50 175 LINE SMOOTH",
"50 183 OFFCURVE",
"53 190 OFFCURVE",
"58 195 CURVE SMOOTH",
"194 330 LINE SMOOTH"
);
}
);
width = 432;
}
);
unicode = E007;
},
{
glyphname = sf.chevron.up;
lastChange = "2014-08-08 16:36:09 +0000";
layers = (
{
layerId = "7BDE272C-C7FB-4166-8673-7B6B584E769E";
name = Regular;
paths = (
{
closed = 1;
nodes = (
"198 192 LINE SMOOTH",
"193 187 OFFCURVE",
"186 184 OFFCURVE",
"178 184 CURVE SMOOTH",
"78 184 LINE SMOOTH",
"54 184 OFFCURVE",
"41 215 OFFCURVE",
"58 232 CURVE SMOOTH",
"333 508 LINE",
"340 513 OFFCURVE",
"346 516 OFFCURVE",
"353 516 CURVE SMOOTH",
"361 516 OFFCURVE",
"368 513 OFFCURVE",
"373 508 CURVE SMOOTH",
"648 232 LINE SMOOTH",
"667 213 OFFCURVE",
"653 184 OFFCURVE",
"628 184 CURVE SMOOTH",
"528 184 LINE SMOOTH",
"521 184 OFFCURVE",
"515 187 OFFCURVE",
"508 192 CURVE",
"373 327 LINE",
"368 333 OFFCURVE",
"361 336 OFFCURVE",
"353 336 CURVE SMOOTH",
"344 336 OFFCURVE",
"338 333 OFFCURVE",
"333 327 CURVE"
);
}
);
width = 706.824;
}
);
unicode = E004;
},
{
glyphname = sf.triangle.down;
lastChange = "2014-08-08 16:36:52 +0000";
layers = (
{
layerId = "7BDE272C-C7FB-4166-8673-7B6B584E769E";
name = Regular;
paths = (
{
closed = 1;
nodes = (
"629 516 LINE SMOOTH",
"640 516 OFFCURVE",
"649 510 OFFCURVE",
"655 499 CURVE",
"656 495 OFFCURVE",
"657 492 OFFCURVE",
"657 488 CURVE SMOOTH",
"657 480 OFFCURVE",
"654 473 OFFCURVE",
"649 468 CURVE SMOOTH",
"373 192 LINE SMOOTH",
"368 187 OFFCURVE",
"361 184 OFFCURVE",
"353 184 CURVE SMOOTH",
"346 184 OFFCURVE",
"340 187 OFFCURVE",
"333 192 CURVE",
"58 468 LINE SMOOTH",
"53 473 OFFCURVE",
"50 480 OFFCURVE",
"50 488 CURVE SMOOTH",
"50 493 OFFCURVE",
"51 496 OFFCURVE",
"52 499 CURVE",
"57 510 OFFCURVE",
"65 516 OFFCURVE",
"78 516 CURVE SMOOTH"
);
}
);
width = 707;
}
);
unicode = E002;
},
{
glyphname = sf.triangle.left;
lastChange = "2014-08-08 16:37:07 +0000";
layers = (
{
layerId = "7BDE272C-C7FB-4166-8673-7B6B584E769E";
name = Regular;
paths = (
{
closed = 1;
nodes = (
"382 63 OFFCURVE",
"376 54 OFFCURVE",
"365 49 CURVE",
"361 48 OFFCURVE",
"358 47 OFFCURVE",
"354 47 CURVE SMOOTH",
"346 47 OFFCURVE",
"339 50 OFFCURVE",
"334 55 CURVE SMOOTH",
"58 331 LINE SMOOTH",
"53 336 OFFCURVE",
"50 343 OFFCURVE",
"50 351 CURVE SMOOTH",
"50 358 OFFCURVE",
"53 364 OFFCURVE",
"58 371 CURVE",
"334 646 LINE SMOOTH",
"339 651 OFFCURVE",
"346 654 OFFCURVE",
"354 654 CURVE SMOOTH",
"359 654 OFFCURVE",
"362 653 OFFCURVE",
"365 652 CURVE",
"376 647 OFFCURVE",
"382 639 OFFCURVE",
"382 626 CURVE SMOOTH",
"382 75 LINE SMOOTH"
);
}
);
width = 432;
}
);
unicode = E003;
},
{
glyphname = sf.triangle.right;
lastChange = "2014-08-08 16:37:29 +0000";
layers = (
{
layerId = "7BDE272C-C7FB-4166-8673-7B6B584E769E";
name = Regular;
paths = (
{
closed = 1;
nodes = (
"50 626 LINE SMOOTH",
"50 639 OFFCURVE",
"56 647 OFFCURVE",
"67 652 CURVE",
"70 653 OFFCURVE",
"73 654 OFFCURVE",
"78 654 CURVE SMOOTH",
"86 654 OFFCURVE",
"93 651 OFFCURVE",
"98 646 CURVE SMOOTH",
"374 371 LINE",
"379 364 OFFCURVE",
"382 358 OFFCURVE",
"382 351 CURVE SMOOTH",
"382 343 OFFCURVE",
"379 336 OFFCURVE",
"374 331 CURVE SMOOTH",
"98 55 LINE SMOOTH",
"93 50 OFFCURVE",
"86 47 OFFCURVE",
"78 47 CURVE SMOOTH",
"74 47 OFFCURVE",
"71 48 OFFCURVE",
"67 49 CURVE",
"56 54 OFFCURVE",
"50 63 OFFCURVE",
"50 75 CURVE SMOOTH"
);
}
);
width = 432;
}
);
unicode = E001;
},
{
glyphname = sf.triangle.up;
lastChange = "2014-08-08 16:37:40 +0000";
layers = (
{
layerId = "7BDE272C-C7FB-4166-8673-7B6B584E769E";
name = Regular;
paths = (
{
closed = 1;
nodes = (
"78 184 LINE SMOOTH",
"65 184 OFFCURVE",
"57 190 OFFCURVE",
"52 201 CURVE",
"51 204 OFFCURVE",
"50 207 OFFCURVE",
"50 212 CURVE SMOOTH",
"50 220 OFFCURVE",
"53 227 OFFCURVE",
"58 232 CURVE SMOOTH",
"333 508 LINE",
"340 513 OFFCURVE",
"346 516 OFFCURVE",
"353 516 CURVE SMOOTH",
"361 516 OFFCURVE",
"368 513 OFFCURVE",
"373 508 CURVE SMOOTH",
"649 232 LINE SMOOTH",
"654 227 OFFCURVE",
"657 220 OFFCURVE",
"657 212 CURVE SMOOTH",
"657 208 OFFCURVE",
"656 205 OFFCURVE",
"655 201 CURVE",
"649 190 OFFCURVE",
"640 184 OFFCURVE",
"629 184 CURVE SMOOTH"
);
}
);
width = 707;
}
);
unicode = E000;
},
{
glyphname = sf.triangle.down.circle;
lastChange = "2014-08-08 16:38:42 +0000";
layers = (
{
layerId = "7BDE272C-C7FB-4166-8673-7B6B584E769E";
name = Regular;
paths = (
{
closed = 1;
nodes = (
"50 469 OFFCURVE",
"99 576 OFFCURVE",
"177 654 CURVE SMOOTH",
"255 732 OFFCURVE",
"361 780 OFFCURVE",
"480 780 CURVE SMOOTH",
"599 780 OFFCURVE",
"706 732 OFFCURVE",
"784 654 CURVE SMOOTH",
"862 576 OFFCURVE",
"910 469 OFFCURVE",
"910 350 CURVE SMOOTH",
"910 231 OFFCURVE",
"862 125 OFFCURVE",
"784 47 CURVE SMOOTH",
"706 -31 OFFCURVE",
"599 -80 OFFCURVE",
"480 -80 CURVE SMOOTH",
"361 -80 OFFCURVE",
"255 -31 OFFCURVE",
"177 47 CURVE SMOOTH",
"99 125 OFFCURVE",
"50 231 OFFCURVE",
"50 350 CURVE SMOOTH"
);
},
{
closed = 1;
nodes = (
"285 440 LINE SMOOTH",
"276 440 OFFCURVE",
"270 436 OFFCURVE",
"267 428 CURVE",
"266 425 OFFCURVE",
"265 423 OFFCURVE",
"265 420 CURVE SMOOTH",
"265 414 OFFCURVE",
"267 410 OFFCURVE",
"271 407 CURVE",
"466 211 LINE SMOOTH",
"470 207 OFFCURVE",
"475 205 OFFCURVE",
"480 205 CURVE SMOOTH",
"484 205 OFFCURVE",
"489 207 OFFCURVE",
"494 211 CURVE",
"689 407 LINE",
"693 410 OFFCURVE",
"695 414 OFFCURVE",
"695 420 CURVE SMOOTH",
"695 423 OFFCURVE",
"694 425 OFFCURVE",
"693 428 CURVE",
"690 436 OFFCURVE",
"684 440 OFFCURVE",
"675 440 CURVE SMOOTH"
);
}
);
width = 960;
}
);
unicode = E00C;
},
{
glyphname = sf.triangle.left.circle;
lastChange = "2014-08-08 16:38:48 +0000";
layers = (
{
layerId = "7BDE272C-C7FB-4166-8673-7B6B584E769E";
name = Regular;
paths = (
{
closed = 1;
nodes = (
"361 -80 OFFCURVE",
"255 -31 OFFCURVE",
"177 47 CURVE SMOOTH",
"99 125 OFFCURVE",
"50 231 OFFCURVE",
"50 350 CURVE SMOOTH",
"50 469 OFFCURVE",
"99 576 OFFCURVE",
"177 654 CURVE SMOOTH",
"255 732 OFFCURVE",
"361 780 OFFCURVE",
"480 780 CURVE SMOOTH",
"599 780 OFFCURVE",
"706 732 OFFCURVE",
"784 654 CURVE SMOOTH",
"862 576 OFFCURVE",
"910 469 OFFCURVE",
"910 350 CURVE SMOOTH",
"910 231 OFFCURVE",
"862 125 OFFCURVE",
"784 47 CURVE SMOOTH",
"706 -31 OFFCURVE",
"599 -80 OFFCURVE",
"480 -80 CURVE SMOOTH"
);
},
{
closed = 1;
nodes = (
"570 554 OFFCURVE",
"566 560 OFFCURVE",
"558 563 CURVE",
"555 564 OFFCURVE",
"553 565 OFFCURVE",
"550 565 CURVE SMOOTH",
"544 565 OFFCURVE",
"540 563 OFFCURVE",
"537 559 CURVE",
"341 364 LINE",
"337 359 OFFCURVE",
"335 354 OFFCURVE",
"335 350 CURVE SMOOTH",
"335 345 OFFCURVE",
"337 340 OFFCURVE",
"341 336 CURVE SMOOTH",
"537 141 LINE",
"540 137 OFFCURVE",
"544 135 OFFCURVE",
"550 135 CURVE SMOOTH",
"553 135 OFFCURVE",
"555 136 OFFCURVE",
"558 137 CURVE",
"566 140 OFFCURVE",
"570 146 OFFCURVE",
"570 155 CURVE SMOOTH",
"570 545 LINE SMOOTH"
);
}
);
width = 960;
}
);
unicode = E00F;
},
{
glyphname = sf.triangle.right.circle;
lastChange = "2014-08-08 16:38:54 +0000";
layers = (
{
layerId = "7BDE272C-C7FB-4166-8673-7B6B584E769E";
name = Regular;
paths = (
{
closed = 1;
nodes = (
"361 -80 OFFCURVE",
"254 -31 OFFCURVE",
"176 47 CURVE SMOOTH",
"98 125 OFFCURVE",
"50 231 OFFCURVE",
"50 350 CURVE SMOOTH",
"50 469 OFFCURVE",
"98 576 OFFCURVE",
"176 654 CURVE SMOOTH",
"254 732 OFFCURVE",
"361 780 OFFCURVE",
"480 780 CURVE SMOOTH",
"599 780 OFFCURVE",
"705 732 OFFCURVE",
"783 654 CURVE SMOOTH",
"861 576 OFFCURVE",
"910 469 OFFCURVE",
"910 350 CURVE SMOOTH",
"910 231 OFFCURVE",
"861 125 OFFCURVE",
"783 47 CURVE SMOOTH",
"705 -31 OFFCURVE",
"599 -80 OFFCURVE",
"480 -80 CURVE SMOOTH"
);
},
{
closed = 1;
nodes = (
"390 155 LINE SMOOTH",
"390 146 OFFCURVE",
"394 140 OFFCURVE",
"402 137 CURVE",
"405 136 OFFCURVE",
"407 135 OFFCURVE",
"410 135 CURVE SMOOTH",
"416 135 OFFCURVE",
"420 137 OFFCURVE",
"423 141 CURVE",
"619 336 LINE SMOOTH",
"623 340 OFFCURVE",
"625 345 OFFCURVE",
"625 350 CURVE SMOOTH",
"625 354 OFFCURVE",
"623 359 OFFCURVE",
"619 364 CURVE",
"423 559 LINE",
"420 563 OFFCURVE",
"416 565 OFFCURVE",
"410 565 CURVE SMOOTH",
"407 565 OFFCURVE",
"405 564 OFFCURVE",
"402 563 CURVE",
"394 560 OFFCURVE",
"390 554 OFFCURVE",
"390 545 CURVE SMOOTH"
);
}
);
width = 960;
}
);
unicode = E00E;
},
{
glyphname = sf.triangle.up.circle;
lastChange = "2014-08-08 16:39:01 +0000";
layers = (
{
layerId = "7BDE272C-C7FB-4166-8673-7B6B584E769E";
name = Regular;
paths = (
{
closed = 1;
nodes = (
"910 231 OFFCURVE",
"861 124 OFFCURVE",
"783 46 CURVE SMOOTH",
"705 -32 OFFCURVE",
"599 -80 OFFCURVE",
"480 -80 CURVE SMOOTH",
"361 -80 OFFCURVE",
"254 -32 OFFCURVE",
"176 46 CURVE SMOOTH",
"98 124 OFFCURVE",
"50 231 OFFCURVE",
"50 350 CURVE SMOOTH",
"50 469 OFFCURVE",
"98 575 OFFCURVE",
"176 653 CURVE SMOOTH",
"254 731 OFFCURVE",
"361 780 OFFCURVE",
"480 780 CURVE SMOOTH",
"599 780 OFFCURVE",
"705 731 OFFCURVE",
"783 653 CURVE SMOOTH",
"861 575 OFFCURVE",
"910 469 OFFCURVE",
"910 350 CURVE SMOOTH"
);
},
{
closed = 1;
nodes = (
"675 260 LINE SMOOTH",
"684 260 OFFCURVE",
"690 264 OFFCURVE",
"693 272 CURVE",
"694 275 OFFCURVE",
"695 277 OFFCURVE",
"695 280 CURVE SMOOTH",
"695 286 OFFCURVE",
"693 290 OFFCURVE",
"689 293 CURVE",
"494 489 LINE SMOOTH",
"490 493 OFFCURVE",
"485 495 OFFCURVE",
"480 495 CURVE SMOOTH",
"476 495 OFFCURVE",
"471 493 OFFCURVE",
"466 489 CURVE",
"271 293 LINE",
"267 290 OFFCURVE",
"265 286 OFFCURVE",
"265 280 CURVE SMOOTH",
"265 277 OFFCURVE",
"266 275 OFFCURVE",
"267 272 CURVE",
"270 264 OFFCURVE",
"276 260 OFFCURVE",
"285 260 CURVE SMOOTH"
);
}
);
width = 960;
}
);
unicode = E00D;
},
{
glyphname = sf.chevron.down.circle;
lastChange = "2014-08-08 16:39:15 +0000";
layers = (
{
layerId = "7BDE272C-C7FB-4166-8673-7B6B584E769E";
name = Regular;
paths = (
{
closed = 1;
nodes = (
"361 -80 OFFCURVE",
"254 -31 OFFCURVE",
"176 47 CURVE SMOOTH",
"98 125 OFFCURVE",
"50 231 OFFCURVE",
"50 350 CURVE SMOOTH",
"50 469 OFFCURVE",
"98 577 OFFCURVE",
"176 655 CURVE SMOOTH",
"254 733 OFFCURVE",
"361 780 OFFCURVE",
"480 780 CURVE SMOOTH",
"599 780 OFFCURVE",
"705 733 OFFCURVE",
"783 655 CURVE SMOOTH",
"861 577 OFFCURVE",
"910 469 OFFCURVE",
"910 350 CURVE SMOOTH",
"910 231 OFFCURVE",
"861 125 OFFCURVE",
"783 47 CURVE SMOOTH",
"705 -31 OFFCURVE",
"599 -80 OFFCURVE",
"480 -80 CURVE SMOOTH"
);
},
{
closed = 1;
nodes = (
"266 415 OFFCURVE",
"265 412 OFFCURVE",
"265 408 CURVE SMOOTH",
"265 399 OFFCURVE",
"268 393 OFFCURVE",
"274 388 CURVE",
"460 201 LINE SMOOTH",
"465 196 OFFCURVE",
"471 193 OFFCURVE",
"480 193 CURVE SMOOTH",
"489 193 OFFCURVE",
"495 196 OFFCURVE",
"500 201 CURVE SMOOTH",
"686 388 LINE",
"692 393 OFFCURVE",
"695 399 OFFCURVE",
"695 408 CURVE SMOOTH",
"695 412 OFFCURVE",
"694 415 OFFCURVE",
"693 419 CURVE",
"688 431 OFFCURVE",
"679 437 OFFCURVE",
"666 437 CURVE SMOOTH",
"567 437 LINE SMOOTH",
"559 437 OFFCURVE",
"552 434 OFFCURVE",
"547 428 CURVE",
"500 381 LINE SMOOTH",
"495 376 OFFCURVE",
"488 373 OFFCURVE",
"480 373 CURVE SMOOTH",
"472 373 OFFCURVE",
"465 376 OFFCURVE",
"460 381 CURVE SMOOTH",
"413 428 LINE",
"408 434 OFFCURVE",
"402 437 OFFCURVE",
"393 437 CURVE SMOOTH",
"294 437 LINE SMOOTH",
"281 437 OFFCURVE",
"272 431 OFFCURVE",
"267 419 CURVE"
);
}
);
width = 960;
}
);
unicode = E014;
},
{
glyphname = sf.chevron.left.circle;
lastChange = "2014-08-08 16:39:19 +0000";
layers = (
{
layerId = "7BDE272C-C7FB-4166-8673-7B6B584E769E";
name = Regular;
paths = (
{
closed = 1;
nodes = (
"50 469 OFFCURVE",
"99 576 OFFCURVE",
"177 654 CURVE SMOOTH",
"255 732 OFFCURVE",
"361 780 OFFCURVE",
"480 780 CURVE SMOOTH",
"599 780 OFFCURVE",
"707 732 OFFCURVE",
"785 654 CURVE SMOOTH",
"863 576 OFFCURVE",
"910 469 OFFCURVE",
"910 350 CURVE SMOOTH",
"910 231 OFFCURVE",
"863 125 OFFCURVE",
"785 47 CURVE SMOOTH",
"707 -31 OFFCURVE",
"599 -80 OFFCURVE",
"480 -80 CURVE SMOOTH",
"361 -80 OFFCURVE",
"255 -31 OFFCURVE",
"177 47 CURVE SMOOTH",
"99 125 OFFCURVE",
"50 231 OFFCURVE",
"50 350 CURVE SMOOTH"
);
},
{
closed = 1;
nodes = (
"545 564 OFFCURVE",
"542 565 OFFCURVE",
"538 565 CURVE SMOOTH",
"529 565 OFFCURVE",
"523 562 OFFCURVE",
"518 556 CURVE",
"331 370 LINE SMOOTH",
"326 365 OFFCURVE",
"323 359 OFFCURVE",
"323 350 CURVE SMOOTH",
"323 341 OFFCURVE",
"326 335 OFFCURVE",
"331 330 CURVE SMOOTH",
"518 144 LINE",
"523 138 OFFCURVE",
"529 135 OFFCURVE",
"538 135 CURVE SMOOTH",
"542 135 OFFCURVE",
"545 136 OFFCURVE",
"549 137 CURVE",
"561 142 OFFCURVE",
"567 151 OFFCURVE",
"567 164 CURVE SMOOTH",
"567 263 LINE SMOOTH",
"567 271 OFFCURVE",
"564 278 OFFCURVE",
"558 283 CURVE",
"511 330 LINE SMOOTH",
"506 335 OFFCURVE",
"503 342 OFFCURVE",
"503 350 CURVE SMOOTH",
"503 358 OFFCURVE",
"506 365 OFFCURVE",
"511 370 CURVE SMOOTH",
"558 417 LINE",
"564 422 OFFCURVE",
"567 428 OFFCURVE",
"567 437 CURVE SMOOTH",
"567 536 LINE SMOOTH",
"567 549 OFFCURVE",
"561 558 OFFCURVE",
"549 563 CURVE"
);
}
);
width = 960;
}
);
unicode = E016;
},
{
glyphname = sf.chevron.right.circle;
lastChange = "2014-08-08 16:39:23 +0000";
layers = (
{
layerId = "7BDE272C-C7FB-4166-8673-7B6B584E769E";
name = Regular;
paths = (
{
closed = 1;
nodes = (
"910 231 OFFCURVE",
"861 124 OFFCURVE",
"783 46 CURVE SMOOTH",
"705 -32 OFFCURVE",
"599 -80 OFFCURVE",
"480 -80 CURVE SMOOTH",
"361 -80 OFFCURVE",
"253 -32 OFFCURVE",
"175 46 CURVE SMOOTH",
"97 124 OFFCURVE",
"50 231 OFFCURVE",
"50 350 CURVE SMOOTH",
"50 469 OFFCURVE",
"97 575 OFFCURVE",
"175 653 CURVE SMOOTH",
"253 731 OFFCURVE",
"361 780 OFFCURVE",
"480 780 CURVE SMOOTH",
"599 780 OFFCURVE",
"705 731 OFFCURVE",
"783 653 CURVE SMOOTH",
"861 575 OFFCURVE",
"910 469 OFFCURVE",
"910 350 CURVE SMOOTH"
);
},
{
closed = 1;
nodes = (
"415 136 OFFCURVE",
"418 135 OFFCURVE",
"422 135 CURVE SMOOTH",
"431 135 OFFCURVE",
"437 138 OFFCURVE",
"442 144 CURVE",
"629 330 LINE SMOOTH",
"634 335 OFFCURVE",
"637 341 OFFCURVE",
"637 350 CURVE SMOOTH",
"637 359 OFFCURVE",
"634 365 OFFCURVE",
"629 370 CURVE SMOOTH",
"442 556 LINE",
"437 562 OFFCURVE",
"431 565 OFFCURVE",
"422 565 CURVE SMOOTH",
"418 565 OFFCURVE",
"415 564 OFFCURVE",
"411 563 CURVE",
"399 558 OFFCURVE",
"393 549 OFFCURVE",
"393 536 CURVE SMOOTH",
"393 437 LINE SMOOTH",
"393 429 OFFCURVE",
"396 422 OFFCURVE",
"402 417 CURVE",
"449 370 LINE SMOOTH",
"454 365 OFFCURVE",
"457 358 OFFCURVE",
"457 350 CURVE SMOOTH",
"457 342 OFFCURVE",
"454 335 OFFCURVE",
"449 330 CURVE SMOOTH",
"402 283 LINE",
"396 278 OFFCURVE",
"393 272 OFFCURVE",
"393 263 CURVE SMOOTH",
"393 164 LINE SMOOTH",
"393 151 OFFCURVE",
"399 142 OFFCURVE",
"411 137 CURVE"
);
}
);
width = 960;
}
);
unicode = E017;
},
{
glyphname = sf.chevron.up.circle;
lastChange = "2014-08-08 16:39:28 +0000";
layers = (
{
layerId = "7BDE272C-C7FB-4166-8673-7B6B584E769E";
name = Regular;
paths = (
{
closed = 1;
nodes = (
"599 780 OFFCURVE",
"706 731 OFFCURVE",
"784 653 CURVE SMOOTH",
"862 575 OFFCURVE",
"910 469 OFFCURVE",
"910 350 CURVE SMOOTH",
"910 231 OFFCURVE",
"862 123 OFFCURVE",
"784 45 CURVE SMOOTH",
"706 -33 OFFCURVE",
"599 -80 OFFCURVE",
"480 -80 CURVE SMOOTH",
"361 -80 OFFCURVE",
"255 -33 OFFCURVE",
"177 45 CURVE SMOOTH",
"99 123 OFFCURVE",
"50 231 OFFCURVE",
"50 350 CURVE SMOOTH",
"50 469 OFFCURVE",
"99 575 OFFCURVE",
"177 653 CURVE SMOOTH",
"255 731 OFFCURVE",
"361 780 OFFCURVE",
"480 780 CURVE SMOOTH"
);
},
{
closed = 1;
nodes = (
"694 285 OFFCURVE",
"695 288 OFFCURVE",
"695 292 CURVE SMOOTH",
"695 301 OFFCURVE",
"692 307 OFFCURVE",
"686 312 CURVE",
"500 499 LINE SMOOTH",
"495 504 OFFCURVE",
"489 507 OFFCURVE",
"480 507 CURVE SMOOTH",
"471 507 OFFCURVE",
"465 504 OFFCURVE",
"460 499 CURVE SMOOTH",
"274 312 LINE",
"268 307 OFFCURVE",
"265 301 OFFCURVE",
"265 292 CURVE SMOOTH",
"265 288 OFFCURVE",
"266 285 OFFCURVE",
"267 281 CURVE",
"272 269 OFFCURVE",
"281 263 OFFCURVE",
"294 263 CURVE SMOOTH",
"393 263 LINE SMOOTH",
"401 263 OFFCURVE",
"408 266 OFFCURVE",
"413 272 CURVE",
"460 319 LINE SMOOTH",
"465 324 OFFCURVE",
"472 327 OFFCURVE",
"480 327 CURVE SMOOTH",
"488 327 OFFCURVE",
"495 324 OFFCURVE",
"500 319 CURVE SMOOTH",
"547 272 LINE",
"552 266 OFFCURVE",
"558 263 OFFCURVE",
"567 263 CURVE SMOOTH",
"666 263 LINE SMOOTH",
"679 263 OFFCURVE",
"688 269 OFFCURVE",
"693 281 CURVE"
);
}
);
width = 960;
}
);
unicode = E015;
},
{
glyphname = sf.triangle.down.circle.o;
lastChange = "2014-08-08 16:39:34 +0000";
layers = (
{
layerId = "7BDE272C-C7FB-4166-8673-7B6B584E769E";
name = Regular;
paths = (
{
closed = 1;
nodes = (
"675 428 LINE SMOOTH",
"684 428 OFFCURVE",
"690 424 OFFCURVE",
"693 416 CURVE",
"694 413 OFFCURVE",
"695 411 OFFCURVE",
"695 408 CURVE SMOOTH",
"695 402 OFFCURVE",
"693 398 OFFCURVE",
"689 395 CURVE",
"494 199 LINE",
"489 195 OFFCURVE",
"484 193 OFFCURVE",
"480 193 CURVE SMOOTH",
"475 193 OFFCURVE",
"470 195 OFFCURVE",
"466 199 CURVE SMOOTH",
"271 394 LINE SMOOTH",
"267 398 OFFCURVE",
"265 403 OFFCURVE",
"265 408 CURVE SMOOTH",
"265 411 OFFCURVE",
"266 413 OFFCURVE",
"267 416 CURVE",
"270 424 OFFCURVE",
"276 428 OFFCURVE",
"285 428 CURVE SMOOTH"
);
},
{
closed = 1;
nodes = (
"361 -80 OFFCURVE",
"255 -32 OFFCURVE",
"177 46 CURVE SMOOTH",
"99 124 OFFCURVE",
"50 231 OFFCURVE",
"50 350 CURVE SMOOTH",
"50 469 OFFCURVE",
"99 576 OFFCURVE",
"177 654 CURVE SMOOTH",
"255 732 OFFCURVE",
"361 780 OFFCURVE",
"480 780 CURVE SMOOTH",
"599 780 OFFCURVE",
"706 732 OFFCURVE",
"784 654 CURVE SMOOTH",
"862 576 OFFCURVE",
"910 469 OFFCURVE",
"910 350 CURVE SMOOTH",
"910 231 OFFCURVE",
"862 124 OFFCURVE",
"784 46 CURVE SMOOTH",
"706 -32 OFFCURVE",
"599 -80 OFFCURVE",
"480 -80 CURVE SMOOTH"
);
},
{
closed = 1;
nodes = (
"150 259 OFFCURVE",
"187 177 OFFCURVE",
"247 117 CURVE SMOOTH",
"307 57 OFFCURVE",
"389 20 OFFCURVE",
"480 20 CURVE SMOOTH",
"571 20 OFFCURVE",
"653 57 OFFCURVE",
"713 117 CURVE SMOOTH",
"773 177 OFFCURVE",
"810 259 OFFCURVE",
"810 350 CURVE SMOOTH",
"810 441 OFFCURVE",
"773 523 OFFCURVE",
"713 583 CURVE SMOOTH",
"653 643 OFFCURVE",
"571 680 OFFCURVE",
"480 680 CURVE SMOOTH",
"389 680 OFFCURVE",
"307 643 OFFCURVE",
"247 583 CURVE SMOOTH",
"187 523 OFFCURVE",
"150 441 OFFCURVE",
"150 350 CURVE SMOOTH"
);
}
);
width = 960;
}
);
unicode = E010;
},
{
glyphname = sf.triangle.left.circle.o;
lastChange = "2014-08-08 16:39:39 +0000";
layers = (
{
layerId = "7BDE272C-C7FB-4166-8673-7B6B584E769E";
name = Regular;
paths = (
{
closed = 1;
nodes = (
"558 155 LINE SMOOTH",
"558 146 OFFCURVE",
"554 140 OFFCURVE",
"546 137 CURVE",
"543 136 OFFCURVE",
"541 135 OFFCURVE",
"538 135 CURVE SMOOTH",
"532 135 OFFCURVE",
"528 137 OFFCURVE",
"525 141 CURVE",
"329 336 LINE",
"325 341 OFFCURVE",
"323 346 OFFCURVE",
"323 350 CURVE SMOOTH",
"323 355 OFFCURVE",
"325 360 OFFCURVE",
"329 364 CURVE SMOOTH",
"524 559 LINE SMOOTH",
"528 563 OFFCURVE",
"533 565 OFFCURVE",
"538 565 CURVE SMOOTH",
"541 565 OFFCURVE",
"543 564 OFFCURVE",
"546 563 CURVE",
"554 560 OFFCURVE",
"558 554 OFFCURVE",
"558 545 CURVE SMOOTH"
);
},
{
closed = 1;
nodes = (
"50 469 OFFCURVE",
"98 575 OFFCURVE",
"176 653 CURVE SMOOTH",
"254 731 OFFCURVE",
"361 780 OFFCURVE",
"480 780 CURVE SMOOTH",
"599 780 OFFCURVE",
"706 731 OFFCURVE",
"784 653 CURVE SMOOTH",
"862 575 OFFCURVE",
"910 469 OFFCURVE",
"910 350 CURVE SMOOTH",
"910 231 OFFCURVE",
"862 124 OFFCURVE",
"784 46 CURVE SMOOTH",
"706 -32 OFFCURVE",
"599 -80 OFFCURVE",
"480 -80 CURVE SMOOTH",
"361 -80 OFFCURVE",
"254 -32 OFFCURVE",
"176 46 CURVE SMOOTH",
"98 124 OFFCURVE",
"50 231 OFFCURVE",
"50 350 CURVE SMOOTH"
);
},
{
closed = 1;
nodes = (
"389 680 OFFCURVE",
"307 643 OFFCURVE",
"247 583 CURVE SMOOTH",
"187 523 OFFCURVE",
"150 441 OFFCURVE",
"150 350 CURVE SMOOTH",
"150 259 OFFCURVE",
"187 177 OFFCURVE",
"247 117 CURVE SMOOTH",
"307 57 OFFCURVE",
"389 20 OFFCURVE",
"480 20 CURVE SMOOTH",
"571 20 OFFCURVE",
"653 57 OFFCURVE",
"713 117 CURVE SMOOTH",
"773 177 OFFCURVE",
"810 259 OFFCURVE",
"810 350 CURVE SMOOTH",
"810 441 OFFCURVE",
"773 523 OFFCURVE",
"713 583 CURVE SMOOTH",
"653 643 OFFCURVE",
"571 680 OFFCURVE",
"480 680 CURVE SMOOTH"
);
}
);
width = 960;
}
);
unicode = E012;
},
{
glyphname = sf.triangle.right.circle.o;
lastChange = "2014-08-08 16:39:49 +0000";
layers = (
{
layerId = "7BDE272C-C7FB-4166-8673-7B6B584E769E";
name = Regular;
paths = (
{
closed = 1;
nodes = (
"402 545 LINE SMOOTH",
"402 554 OFFCURVE",
"406 560 OFFCURVE",
"414 563 CURVE",
"417 564 OFFCURVE",
"419 565 OFFCURVE",
"422 565 CURVE SMOOTH",
"428 565 OFFCURVE",
"432 563 OFFCURVE",
"435 559 CURVE",
"631 364 LINE",
"635 359 OFFCURVE",
"637 354 OFFCURVE",
"637 350 CURVE SMOOTH",
"637 345 OFFCURVE",
"635 340 OFFCURVE",
"631 336 CURVE SMOOTH",
"436 141 LINE SMOOTH",
"432 137 OFFCURVE",
"427 135 OFFCURVE",
"422 135 CURVE SMOOTH",
"419 135 OFFCURVE",
"417 136 OFFCURVE",
"414 137 CURVE",
"406 140 OFFCURVE",
"402 146 OFFCURVE",
"402 155 CURVE SMOOTH"
);
},
{
closed = 1;
nodes = (
"910 231 OFFCURVE",
"862 125 OFFCURVE",
"784 47 CURVE SMOOTH",
"706 -31 OFFCURVE",
"599 -80 OFFCURVE",
"480 -80 CURVE SMOOTH",
"361 -80 OFFCURVE",
"254 -31 OFFCURVE",
"176 47 CURVE SMOOTH",
"98 125 OFFCURVE",
"50 231 OFFCURVE",
"50 350 CURVE SMOOTH",
"50 469 OFFCURVE",
"98 576 OFFCURVE",
"176 654 CURVE SMOOTH",
"254 732 OFFCURVE",
"361 780 OFFCURVE",
"480 780 CURVE SMOOTH",
"599 780 OFFCURVE",
"706 732 OFFCURVE",
"784 654 CURVE SMOOTH",
"862 576 OFFCURVE",
"910 469 OFFCURVE",
"910 350 CURVE SMOOTH"
);
},
{
closed = 1;
nodes = (
"571 20 OFFCURVE",
"653 57 OFFCURVE",
"713 117 CURVE SMOOTH",
"773 177 OFFCURVE",
"810 259 OFFCURVE",
"810 350 CURVE SMOOTH",
"810 441 OFFCURVE",
"773 523 OFFCURVE",
"713 583 CURVE SMOOTH",
"653 643 OFFCURVE",
"571 680 OFFCURVE",
"480 680 CURVE SMOOTH",
"389 680 OFFCURVE",
"307 643 OFFCURVE",
"247 583 CURVE SMOOTH",
"187 523 OFFCURVE",
"150 441 OFFCURVE",
"150 350 CURVE SMOOTH",
"150 259 OFFCURVE",
"187 177 OFFCURVE",
"247 117 CURVE SMOOTH",
"307 57 OFFCURVE",
"389 20 OFFCURVE",
"480 20 CURVE SMOOTH"
);
}
);
width = 960;
}
);
unicode = E013;
},
{
glyphname = sf.triangle.up.circle.o;
lastChange = "2014-08-08 16:39:55 +0000";
layers = (
{
layerId = "7BDE272C-C7FB-4166-8673-7B6B584E769E";
name = Regular;
paths = (
{
closed = 1;
nodes = (
"285 272 LINE SMOOTH",
"276 272 OFFCURVE",
"270 276 OFFCURVE",
"267 284 CURVE",
"266 287 OFFCURVE",
"265 289 OFFCURVE",
"265 292 CURVE SMOOTH",
"265 298 OFFCURVE",
"267 302 OFFCURVE",
"271 305 CURVE",
"466 501 LINE",
"471 505 OFFCURVE",
"476 507 OFFCURVE",
"480 507 CURVE SMOOTH",
"485 507 OFFCURVE",
"490 505 OFFCURVE",
"494 501 CURVE SMOOTH",
"689 306 LINE SMOOTH",
"693 302 OFFCURVE",
"695 297 OFFCURVE",
"695 292 CURVE SMOOTH",
"695 289 OFFCURVE",
"694 287 OFFCURVE",
"693 284 CURVE",
"690 276 OFFCURVE",
"684 272 OFFCURVE",
"675 272 CURVE SMOOTH"
);
},
{
closed = 1;
nodes = (
"599 780 OFFCURVE",
"705 732 OFFCURVE",
"783 654 CURVE SMOOTH",
"861 576 OFFCURVE",
"910 469 OFFCURVE",
"910 350 CURVE SMOOTH",
"910 231 OFFCURVE",
"861 124 OFFCURVE",
"783 46 CURVE SMOOTH",
"705 -32 OFFCURVE",
"599 -80 OFFCURVE",
"480 -80 CURVE SMOOTH",
"361 -80 OFFCURVE",
"254 -32 OFFCURVE",
"176 46 CURVE SMOOTH",
"98 124 OFFCURVE",
"50 231 OFFCURVE",
"50 350 CURVE SMOOTH",
"50 469 OFFCURVE",
"98 576 OFFCURVE",
"176 654 CURVE SMOOTH",
"254 732 OFFCURVE",
"361 780 OFFCURVE",
"480 780 CURVE SMOOTH"
);
},
{
closed = 1;
nodes = (
"810 441 OFFCURVE",
"773 523 OFFCURVE",
"713 583 CURVE SMOOTH",
"653 643 OFFCURVE",
"571 680 OFFCURVE",
"480 680 CURVE SMOOTH",
"389 680 OFFCURVE",
"307 643 OFFCURVE",
"247 583 CURVE SMOOTH",
"187 523 OFFCURVE",
"150 441 OFFCURVE",
"150 350 CURVE SMOOTH",
"150 259 OFFCURVE",
"187 177 OFFCURVE",
"247 117 CURVE SMOOTH",
"307 57 OFFCURVE",
"389 20 OFFCURVE",
"480 20 CURVE SMOOTH",
"571 20 OFFCURVE",
"653 57 OFFCURVE",
"713 117 CURVE SMOOTH",
"773 177 OFFCURVE",
"810 259 OFFCURVE",
"810 350 CURVE SMOOTH"
);
}
);
width = 960;
}
);
unicode = E011;
},
{
glyphname = sf.chevron.down.circle.o;
lastChange = "2014-08-08 16:40:46 +0000";
layers = (
{
layerId = "7BDE272C-C7FB-4166-8673-7B6B584E769E";
name = Regular;
paths = (
{
closed = 1;
nodes = (
"620 797 OFFCURVE",
"731 747 OFFCURVE",
"812 666 CURVE SMOOTH",
"893 585 OFFCURVE",
"943 474 OFFCURVE",
"943 350 CURVE SMOOTH",
"943 226 OFFCURVE",
"893 115 OFFCURVE",
"812 35 CURVE SMOOTH",
"731 -46 OFFCURVE",
"620 -96 OFFCURVE",
"496 -96 CURVE SMOOTH",
"373 -96 OFFCURVE",
"261 -46 OFFCURVE",
"181 35 CURVE SMOOTH",
"100 115 OFFCURVE",
"50 226 OFFCURVE",
"50 350 CURVE SMOOTH",
"50 474 OFFCURVE",
"100 585 OFFCURVE",
"181 666 CURVE SMOOTH",
"261 747 OFFCURVE",
"373 797 OFFCURVE",
"496 797 CURVE SMOOTH"
);
},
{
closed = 1;
nodes = (
"592 4 OFFCURVE",
"678 42 OFFCURVE",
"742 105 CURVE SMOOTH",
"805 168 OFFCURVE",
"843 254 OFFCURVE",
"843 350 CURVE SMOOTH",
"843 446 OFFCURVE",
"805 532 OFFCURVE",
"742 595 CURVE SMOOTH",
"678 658 OFFCURVE",
"592 697 OFFCURVE",
"496 697 CURVE SMOOTH",
"400 697 OFFCURVE",
"314 658 OFFCURVE",
"251 595 CURVE SMOOTH",
"188 532 OFFCURVE",
"150 446 OFFCURVE",
"150 350 CURVE SMOOTH",
"150 254 OFFCURVE",
"188 168 OFFCURVE",
"251 105 CURVE SMOOTH",
"314 42 OFFCURVE",
"400 4 OFFCURVE",
"496 4 CURVE SMOOTH"
);
},
{
closed = 1;
nodes = (
"290 387 LINE",
"285 394 OFFCURVE",
"282 401 OFFCURVE",
"282 408 CURVE SMOOTH",
"282 413 OFFCURVE",
"283 416 OFFCURVE",
"284 419 CURVE",
"289 431 OFFCURVE",
"297 437 OFFCURVE",
"310 437 CURVE SMOOTH",
"410 437 LINE SMOOTH",
"417 437 OFFCURVE",
"423 434 OFFCURVE",
"429 428 CURVE SMOOTH",
"476 381 LINE SMOOTH",
"481 376 OFFCURVE",
"488 373 OFFCURVE",
"496 373 CURVE SMOOTH",
"504 373 OFFCURVE",
"511 376 OFFCURVE",
"516 381 CURVE SMOOTH",
"563 428 LINE SMOOTH",
"569 434 OFFCURVE",
"576 437 OFFCURVE",
"583 437 CURVE SMOOTH",
"683 437 LINE SMOOTH",
"695 437 OFFCURVE",
"704 431 OFFCURVE",
"709 419 CURVE",
"710 415 OFFCURVE",
"711 412 OFFCURVE",
"711 408 CURVE SMOOTH",
"711 401 OFFCURVE",
"708 394 OFFCURVE",
"703 387 CURVE",
"516 201 LINE",
"511 195 OFFCURVE",
"504 192 OFFCURVE",
"496 192 CURVE SMOOTH",
"489 192 OFFCURVE",
"482 195 OFFCURVE",
"476 201 CURVE SMOOTH"
);
}
);
width = 993;
}
);
unicode = E018;
},
{
glyphname = sf.chevron.left.circle.o;
lastChange = "2014-08-08 16:40:53 +0000";
layers = (
{
layerId = "7BDE272C-C7FB-4166-8673-7B6B584E769E";
name = Regular;
paths = (
{
closed = 1;
nodes = (
"943 227 OFFCURVE",
"893 116 OFFCURVE",
"812 35 CURVE SMOOTH",
"731 -46 OFFCURVE",
"620 -96 OFFCURVE",
"496 -96 CURVE SMOOTH",
"372 -96 OFFCURVE",
"261 -46 OFFCURVE",
"181 35 CURVE SMOOTH",
"100 116 OFFCURVE",
"50 227 OFFCURVE",
"50 351 CURVE SMOOTH",
"50 474 OFFCURVE",
"100 586 OFFCURVE",
"181 666 CURVE SMOOTH",
"261 747 OFFCURVE",
"372 797 OFFCURVE",
"496 797 CURVE SMOOTH",
"620 797 OFFCURVE",
"731 747 OFFCURVE",
"812 666 CURVE SMOOTH",
"893 586 OFFCURVE",
"943 474 OFFCURVE",
"943 351 CURVE SMOOTH"
);
},
{
closed = 1;
nodes = (
"150 255 OFFCURVE",
"188 169 OFFCURVE",
"251 105 CURVE SMOOTH",
"314 42 OFFCURVE",
"400 4 OFFCURVE",
"496 4 CURVE SMOOTH",
"592 4 OFFCURVE",
"678 42 OFFCURVE",
"741 105 CURVE SMOOTH",
"804 169 OFFCURVE",
"843 255 OFFCURVE",
"843 351 CURVE SMOOTH",
"843 447 OFFCURVE",
"804 533 OFFCURVE",
"741 596 CURVE SMOOTH",
"678 659 OFFCURVE",
"592 697 OFFCURVE",
"496 697 CURVE SMOOTH",
"400 697 OFFCURVE",
"314 659 OFFCURVE",
"251 596 CURVE SMOOTH",
"188 533 OFFCURVE",
"150 447 OFFCURVE",
"150 351 CURVE SMOOTH"
);
},
{
closed = 1;
nodes = (
"533 557 LINE",
"540 562 OFFCURVE",
"547 565 OFFCURVE",
"554 565 CURVE SMOOTH",
"559 565 OFFCURVE",
"562 564 OFFCURVE",
"565 563 CURVE",
"577 558 OFFCURVE",
"583 550 OFFCURVE",
"583 537 CURVE SMOOTH",
"583 437 LINE SMOOTH",
"583 430 OFFCURVE",
"580 424 OFFCURVE",
"574 418 CURVE SMOOTH",
"527 371 LINE SMOOTH",
"522 366 OFFCURVE",
"519 359 OFFCURVE",
"519 351 CURVE SMOOTH",
"519 343 OFFCURVE",
"522 336 OFFCURVE",
"527 331 CURVE SMOOTH",
"574 284 LINE SMOOTH",
"580 278 OFFCURVE",
"583 271 OFFCURVE",
"583 264 CURVE SMOOTH",
"583 164 LINE SMOOTH",
"583 152 OFFCURVE",
"577 143 OFFCURVE",
"565 138 CURVE",
"561 137 OFFCURVE",
"558 136 OFFCURVE",
"554 136 CURVE SMOOTH",
"547 136 OFFCURVE",
"540 139 OFFCURVE",
"533 144 CURVE",
"347 331 LINE",
"341 336 OFFCURVE",
"338 343 OFFCURVE",
"338 351 CURVE SMOOTH",
"338 358 OFFCURVE",
"341 365 OFFCURVE",
"347 371 CURVE SMOOTH"
);
}
);
width = 993;
}
);
unicode = E01A;
},
{
glyphname = sf.chevron.right.circle.o;
lastChange = "2014-08-08 16:40:58 +0000";
layers = (
{
layerId = "7BDE272C-C7FB-4166-8673-7B6B584E769E";
name = Regular;
paths = (
{
closed = 1;
nodes = (
"50 474 OFFCURVE",
"100 585 OFFCURVE",
"181 666 CURVE SMOOTH",
"262 747 OFFCURVE",
"373 797 OFFCURVE",
"497 797 CURVE SMOOTH",
"621 797 OFFCURVE",
"732 747 OFFCURVE",
"812 666 CURVE SMOOTH",
"893 585 OFFCURVE",
"943 474 OFFCURVE",
"943 350 CURVE SMOOTH",
"943 227 OFFCURVE",
"893 115 OFFCURVE",
"812 35 CURVE SMOOTH",
"732 -46 OFFCURVE",
"621 -96 OFFCURVE",
"497 -96 CURVE SMOOTH",
"373 -96 OFFCURVE",
"262 -46 OFFCURVE",
"181 35 CURVE SMOOTH",
"100 115 OFFCURVE",
"50 227 OFFCURVE",
"50 350 CURVE SMOOTH"
);
},
{
closed = 1;
nodes = (
"843 446 OFFCURVE",
"805 532 OFFCURVE",
"742 596 CURVE SMOOTH",
"679 659 OFFCURVE",
"593 697 OFFCURVE",
"497 697 CURVE SMOOTH",
"401 697 OFFCURVE",
"315 659 OFFCURVE",
"252 596 CURVE SMOOTH",
"189 532 OFFCURVE",
"150 446 OFFCURVE",
"150 350 CURVE SMOOTH",
"150 254 OFFCURVE",
"189 168 OFFCURVE",
"252 105 CURVE SMOOTH",
"315 42 OFFCURVE",
"401 4 OFFCURVE",
"497 4 CURVE SMOOTH",
"593 4 OFFCURVE",
"679 42 OFFCURVE",
"742 105 CURVE SMOOTH",
"805 168 OFFCURVE",
"843 254 OFFCURVE",
"843 350 CURVE SMOOTH"
);
},
{
closed = 1;
nodes = (
"460 144 LINE",
"453 139 OFFCURVE",
"446 136 OFFCURVE",
"439 136 CURVE SMOOTH",
"434 136 OFFCURVE",
"431 137 OFFCURVE",
"428 138 CURVE",
"416 143 OFFCURVE",
"410 151 OFFCURVE",
"410 164 CURVE SMOOTH",
"410 264 LINE SMOOTH",
"410 271 OFFCURVE",
"413 277 OFFCURVE",
"419 283 CURVE SMOOTH",
"466 330 LINE SMOOTH",
"471 335 OFFCURVE",
"474 342 OFFCURVE",
"474 350 CURVE SMOOTH",
"474 358 OFFCURVE",
"471 365 OFFCURVE",
"466 370 CURVE SMOOTH",
"419 417 LINE SMOOTH",
"413 423 OFFCURVE",
"410 430 OFFCURVE",
"410 437 CURVE SMOOTH",
"410 537 LINE SMOOTH",
"410 549 OFFCURVE",
"416 558 OFFCURVE",
"428 563 CURVE",
"432 564 OFFCURVE",
"435 565 OFFCURVE",
"439 565 CURVE SMOOTH",
"446 565 OFFCURVE",
"453 562 OFFCURVE",
"460 557 CURVE",
"646 370 LINE",
"652 365 OFFCURVE",
"655 358 OFFCURVE",
"655 350 CURVE SMOOTH",
"655 343 OFFCURVE",
"652 336 OFFCURVE",
"646 330 CURVE SMOOTH"
);
}
);
width = 993;
}
);
unicode = E01B;
},
{
glyphname = sf.chevron.up.circle.o;
lastChange = "2014-08-08 16:41:02 +0000";
layers = (
{
layerId = "7BDE272C-C7FB-4166-8673-7B6B584E769E";
name = Regular;
paths = (
{
closed = 1;
nodes = (
"373 -96 OFFCURVE",
"262 -46 OFFCURVE",
"181 35 CURVE SMOOTH",
"100 116 OFFCURVE",
"50 227 OFFCURVE",
"50 351 CURVE SMOOTH",
"50 475 OFFCURVE",
"100 586 OFFCURVE",
"181 666 CURVE SMOOTH",
"262 747 OFFCURVE",
"373 797 OFFCURVE",
"497 797 CURVE SMOOTH",
"620 797 OFFCURVE",
"732 747 OFFCURVE",
"812 666 CURVE SMOOTH",
"893 586 OFFCURVE",
"943 475 OFFCURVE",
"943 351 CURVE SMOOTH",
"943 227 OFFCURVE",
"893 116 OFFCURVE",
"812 35 CURVE SMOOTH",
"732 -46 OFFCURVE",
"620 -96 OFFCURVE",
"497 -96 CURVE SMOOTH"
);
},
{
closed = 1;
nodes = (
"401 697 OFFCURVE",
"315 659 OFFCURVE",
"251 596 CURVE SMOOTH",
"188 533 OFFCURVE",
"150 447 OFFCURVE",
"150 351 CURVE SMOOTH",
"150 255 OFFCURVE",
"188 169 OFFCURVE",
"251 106 CURVE SMOOTH",
"315 43 OFFCURVE",
"401 4 OFFCURVE",
"497 4 CURVE SMOOTH",
"593 4 OFFCURVE",
"679 43 OFFCURVE",
"742 106 CURVE SMOOTH",
"805 169 OFFCURVE",
"843 255 OFFCURVE",
"843 351 CURVE SMOOTH",
"843 447 OFFCURVE",
"805 533 OFFCURVE",
"742 596 CURVE SMOOTH",
"679 659 OFFCURVE",
"593 697 OFFCURVE",
"497 697 CURVE SMOOTH"
);
},
{
closed = 1;
nodes = (
"703 314 LINE",
"708 307 OFFCURVE",
"711 300 OFFCURVE",
"711 293 CURVE SMOOTH",
"711 288 OFFCURVE",
"710 285 OFFCURVE",
"709 282 CURVE",
"704 270 OFFCURVE",
"696 264 OFFCURVE",
"683 264 CURVE SMOOTH",
"583 264 LINE SMOOTH",
"576 264 OFFCURVE",
"570 267 OFFCURVE",
"564 273 CURVE SMOOTH",
"517 320 LINE SMOOTH",
"512 325 OFFCURVE",
"505 328 OFFCURVE",
"497 328 CURVE SMOOTH",
"489 328 OFFCURVE",
"482 325 OFFCURVE",
"477 320 CURVE SMOOTH",
"430 273 LINE SMOOTH",
"424 267 OFFCURVE",
"417 264 OFFCURVE",
"410 264 CURVE SMOOTH",
"310 264 LINE SMOOTH",
"298 264 OFFCURVE",
"289 270 OFFCURVE",
"284 282 CURVE",
"283 286 OFFCURVE",
"282 289 OFFCURVE",
"282 293 CURVE SMOOTH",
"282 300 OFFCURVE",
"285 307 OFFCURVE",
"290 314 CURVE",
"477 500 LINE",
"482 506 OFFCURVE",
"489 509 OFFCURVE",
"497 509 CURVE SMOOTH",
"504 509 OFFCURVE",
"511 506 OFFCURVE",
"517 500 CURVE SMOOTH"
);
}
);
width = 993;
}
);
unicode = E019;
},
{
glyphname = sf.empty.circle;
lastChange = "2014-08-08 16:41:07 +0000";
layers = (
{
layerId = "7BDE272C-C7FB-4166-8673-7B6B584E769E";
name = Regular;
paths = (
{
closed = 1;
nodes = (
"910 231 OFFCURVE",
"862 125 OFFCURVE",
"784 47 CURVE SMOOTH",
"706 -31 OFFCURVE",
"599 -80 OFFCURVE",
"480 -80 CURVE SMOOTH",
"361 -80 OFFCURVE",
"255 -31 OFFCURVE",
"177 47 CURVE SMOOTH",
"99 125 OFFCURVE",
"50 231 OFFCURVE",
"50 350 CURVE SMOOTH",
"50 469 OFFCURVE",
"99 576 OFFCURVE",
"177 654 CURVE SMOOTH",
"255 732 OFFCURVE",
"361 780 OFFCURVE",
"480 780 CURVE SMOOTH",
"599 780 OFFCURVE",
"706 732 OFFCURVE",
"784 654 CURVE SMOOTH",
"862 576 OFFCURVE",
"910 469 OFFCURVE",
"910 350 CURVE SMOOTH"
);
}
);
width = 960;
}
);
unicode = E021;
},
{
glyphname = sf.plus.circle;
lastChange = "2014-08-08 16:41:12 +0000";
layers = (
{
layerId = "7BDE272C-C7FB-4166-8673-7B6B584E769E";
name = Regular;
paths = (
{
closed = 1;
nodes = (
"599 780 OFFCURVE",
"706 732 OFFCURVE",
"784 654 CURVE SMOOTH",
"862 576 OFFCURVE",
"910 469 OFFCURVE",
"910 350 CURVE SMOOTH",
"910 231 OFFCURVE",
"862 125 OFFCURVE",
"784 47 CURVE SMOOTH",
"706 -31 OFFCURVE",
"599 -80 OFFCURVE",
"480 -80 CURVE SMOOTH",
"361 -80 OFFCURVE",
"255 -31 OFFCURVE",
"177 47 CURVE SMOOTH",
"99 125 OFFCURVE",
"50 231 OFFCURVE",
"50 350 CURVE SMOOTH",
"50 469 OFFCURVE",
"99 576 OFFCURVE",
"177 654 CURVE SMOOTH",
"255 732 OFFCURVE",
"361 780 OFFCURVE",
"480 780 CURVE SMOOTH"
);
},
{
closed = 1;
nodes = (
"770 380 LINE SMOOTH",
"770 403 OFFCURVE",
"753 420 OFFCURVE",
"730 420 CURVE SMOOTH",
"551 420 LINE",
"551 600 LINE SMOOTH",
"551 623 OFFCURVE",
"534 640 OFFCURVE",
"511 640 CURVE SMOOTH",
"451 640 LINE SMOOTH",
"428 640 OFFCURVE",
"411 623 OFFCURVE",
"411 600 CURVE SMOOTH",
"411 420 LINE",
"230 420 LINE SMOOTH",
"207 420 OFFCURVE",
"190 403 OFFCURVE",
"190 380 CURVE SMOOTH",
"190 320 LINE SMOOTH",
"190 297 OFFCURVE",
"207 280 OFFCURVE",
"230 280 CURVE SMOOTH",
"411 280 LINE",
"411 100 LINE SMOOTH",
"411 77 OFFCURVE",
"428 60 OFFCURVE",
"451 60 CURVE SMOOTH",
"511 60 LINE SMOOTH",
"534 60 OFFCURVE",
"551 77 OFFCURVE",
"551 100 CURVE SMOOTH",
"551 280 LINE",
"730 280 LINE SMOOTH",
"753 280 OFFCURVE",
"770 297 OFFCURVE",
"770 320 CURVE SMOOTH"
);
}
);
width = 960;
}
);
unicode = E024;
},
{
glyphname = sf.minus.circle;
lastChange = "2014-08-08 16:41:17 +0000";
layers = (
{
layerId = "7BDE272C-C7FB-4166-8673-7B6B584E769E";
name = Regular;
paths = (
{
closed = 1;
nodes = (
"599 780 OFFCURVE",
"706 732 OFFCURVE",
"784 654 CURVE SMOOTH",
"862 576 OFFCURVE",
"910 469 OFFCURVE",
"910 350 CURVE SMOOTH",
"910 231 OFFCURVE",
"862 125 OFFCURVE",
"784 47 CURVE SMOOTH",
"706 -31 OFFCURVE",
"599 -80 OFFCURVE",
"480 -80 CURVE SMOOTH",
"361 -80 OFFCURVE",
"255 -31 OFFCURVE",
"177 47 CURVE SMOOTH",
"99 125 OFFCURVE",
"50 231 OFFCURVE",
"50 350 CURVE SMOOTH",
"50 469 OFFCURVE",
"99 576 OFFCURVE",
"177 654 CURVE SMOOTH",
"255 732 OFFCURVE",
"361 780 OFFCURVE",
"480 780 CURVE SMOOTH"
);
},
{
closed = 1;
nodes = (
"770 380 LINE SMOOTH",
"770 403 OFFCURVE",
"753 420 OFFCURVE",
"730 420 CURVE SMOOTH",
"230 420 LINE SMOOTH",
"207 420 OFFCURVE",
"190 403 OFFCURVE",
"190 380 CURVE SMOOTH",
"190 320 LINE SMOOTH",
"190 297 OFFCURVE",
"207 280 OFFCURVE",
"230 280 CURVE SMOOTH",
"730 280 LINE SMOOTH",
"753 280 OFFCURVE",
"770 297 OFFCURVE",
"770 320 CURVE SMOOTH"
);
}
);
width = 960;
}
);
unicode = E023;
},
{
glyphname = sf.checked.circle;
lastChange = "2014-08-08 16:41:20 +0000";
layers = (
{
layerId = "7BDE272C-C7FB-4166-8673-7B6B584E769E";
name = Regular;
paths = (
{
closed = 1;
nodes = (
"599 780 OFFCURVE",
"706 732 OFFCURVE",
"784 654 CURVE SMOOTH",
"862 576 OFFCURVE",
"910 469 OFFCURVE",
"910 350 CURVE SMOOTH",
"910 231 OFFCURVE",
"862 125 OFFCURVE",
"784 47 CURVE SMOOTH",
"706 -31 OFFCURVE",
"599 -80 OFFCURVE",
"480 -80 CURVE SMOOTH",
"361 -80 OFFCURVE",
"255 -31 OFFCURVE",
"177 47 CURVE SMOOTH",
"99 125 OFFCURVE",
"50 231 OFFCURVE",
"50 350 CURVE SMOOTH",
"50 469 OFFCURVE",
"99 576 OFFCURVE",
"177 654 CURVE SMOOTH",
"255 732 OFFCURVE",
"361 780 OFFCURVE",
"480 780 CURVE SMOOTH"
);
},
{
closed = 1;
nodes = (
"738 449 LINE",
"745 455 OFFCURVE",
"748 463 OFFCURVE",
"748 472 CURVE SMOOTH",
"748 481 OFFCURVE",
"745 489 OFFCURVE",
"738 496 CURVE SMOOTH",
"693 542 LINE",
"685 549 OFFCURVE",
"677 552 OFFCURVE",
"669 552 CURVE SMOOTH",
"660 552 OFFCURVE",
"653 549 OFFCURVE",
"646 542 CURVE SMOOTH",
"401 297 LINE",
"292 406 LINE",
"284 413 OFFCURVE",
"276 416 OFFCURVE",
"268 416 CURVE SMOOTH",
"259 416 OFFCURVE",
"252 413 OFFCURVE",
"245 406 CURVE SMOOTH",
"199 361 LINE SMOOTH",
"192 354 OFFCURVE",
"189 346 OFFCURVE",
"189 337 CURVE SMOOTH",
"189 328 OFFCURVE",
"192 320 OFFCURVE",
"199 314 CURVE",
"377 135 LINE",
"383 128 OFFCURVE",
"391 125 OFFCURVE",
"400 125 CURVE SMOOTH",
"409 125 OFFCURVE",
"417 128 OFFCURVE",
"424 135 CURVE SMOOTH"
);
}
);
width = 960;
}
);
unicode = E022;
},
{
glyphname = sf.x.circle;
lastChange = "2014-08-08 16:41:25 +0000";
layers = (
{
layerId = "7BDE272C-C7FB-4166-8673-7B6B584E769E";
name = Regular;
paths = (
{
closed = 1;
nodes = (
"599 780 OFFCURVE",
"706 732 OFFCURVE",
"784 654 CURVE SMOOTH",
"862 576 OFFCURVE",
"910 469 OFFCURVE",
"910 350 CURVE SMOOTH",
"910 231 OFFCURVE",
"862 125 OFFCURVE",
"784 47 CURVE SMOOTH",
"706 -31 OFFCURVE",
"599 -80 OFFCURVE",
"480 -80 CURVE SMOOTH",
"361 -80 OFFCURVE",
"255 -31 OFFCURVE",
"177 47 CURVE SMOOTH",
"99 125 OFFCURVE",
"50 231 OFFCURVE",
"50 350 CURVE SMOOTH",
"50 469 OFFCURVE",
"99 576 OFFCURVE",
"177 654 CURVE SMOOTH",
"255 732 OFFCURVE",
"361 780 OFFCURVE",
"480 780 CURVE SMOOTH"
);
},
{
closed = 1;
nodes = (
"579 346 LINE",
"707 473 LINE",
"715 480 OFFCURVE",
"719 490 OFFCURVE",
"719 501 CURVE SMOOTH",
"719 512 OFFCURVE",
"715 522 OFFCURVE",
"707 530 CURVE SMOOTH",
"664 572 LINE SMOOTH",
"656 580 OFFCURVE",
"646 584 OFFCURVE",
"635 584 CURVE SMOOTH",
"624 584 OFFCURVE",
"615 580 OFFCURVE",
"608 572 CURVE",
"480 445 LINE",
"352 573 LINE SMOOTH",
"344 581 OFFCURVE",
"335 585 OFFCURVE",
"324 585 CURVE SMOOTH",
"313 585 OFFCURVE",
"303 581 OFFCURVE",
"296 573 CURVE",
"253 531 LINE",
"245 524 OFFCURVE",
"241 514 OFFCURVE",
"241 503 CURVE SMOOTH",
"241 492 OFFCURVE",
"245 482 OFFCURVE",
"253 474 CURVE SMOOTH",
"381 346 LINE",
"254 219 LINE SMOOTH",
"246 211 OFFCURVE",
"242 201 OFFCURVE",
"242 190 CURVE SMOOTH",
"242 179 OFFCURVE",
"246 170 OFFCURVE",
"254 162 CURVE SMOOTH",
"297 120 LINE SMOOTH",
"305 112 OFFCURVE",
"314 108 OFFCURVE",
"325 108 CURVE SMOOTH",
"336 108 OFFCURVE",
"345 112 OFFCURVE",
"353 120 CURVE SMOOTH",
"480 247 LINE",
"607 121 LINE SMOOTH",
"615 113 OFFCURVE",
"624 109 OFFCURVE",
"635 109 CURVE SMOOTH",
"646 109 OFFCURVE",
"655 113 OFFCURVE",
"663 121 CURVE SMOOTH",
"706 163 LINE SMOOTH",
"714 171 OFFCURVE",
"718 180 OFFCURVE",
"718 191 CURVE SMOOTH",
"718 202 OFFCURVE",
"714 212 OFFCURVE",
"706 220 CURVE SMOOTH"
);
}
);
width = 960;
}
);
unicode = E025;
},
{
glyphname = sf.empty.circle.o;
lastChange = "2014-08-08 16:41:30 +0000";
layers = (
{
layerId = "7BDE272C-C7FB-4166-8673-7B6B584E769E";
name = Regular;
paths = (
{
closed = 1;
nodes = (
"899 465 OFFCURVE",
"910 409 OFFCURVE",
"910 350 CURVE SMOOTH",
"910 233 OFFCURVE",
"864 125 OFFCURVE",
"784 45 CURVE SMOOTH",
"705 -34 OFFCURVE",
"596 -80 OFFCURVE",
"480 -80 CURVE SMOOTH",
"363 -80 OFFCURVE",
"255 -34 OFFCURVE",
"175 46 CURVE SMOOTH",
"96 125 OFFCURVE",
"50 233 OFFCURVE",
"50 350 CURVE SMOOTH",
"50 466 OFFCURVE",
"96 575 OFFCURVE",
"176 655 CURVE SMOOTH",
"255 734 OFFCURVE",
"363 780 OFFCURVE",
"480 780 CURVE SMOOTH",
"596 780 OFFCURVE",
"705 734 OFFCURVE",
"785 654 CURVE SMOOTH",
"825 614 OFFCURVE",
"855 568 OFFCURVE",
"876 517 CURVE SMOOTH"
);
},
{
closed = 1;
nodes = (
"801 263 OFFCURVE",
"810 305 OFFCURVE",
"810 350 CURVE SMOOTH",
"810 439 OFFCURVE",
"773 524 OFFCURVE",
"713 584 CURVE SMOOTH",
"654 643 OFFCURVE",
"569 680 OFFCURVE",
"480 680 CURVE SMOOTH",
"391 680 OFFCURVE",
"306 643 OFFCURVE",
"246 583 CURVE SMOOTH",
"187 524 OFFCURVE",
"150 439 OFFCURVE",
"150 350 CURVE SMOOTH",
"150 261 OFFCURVE",
"187 176 OFFCURVE",
"247 116 CURVE SMOOTH",
"306 57 OFFCURVE",
"391 20 OFFCURVE",
"480 20 CURVE SMOOTH",
"569 20 OFFCURVE",
"654 57 OFFCURVE",
"714 117 CURVE SMOOTH",
"743 146 OFFCURVE",
"767 181 OFFCURVE",
"784 222 CURVE SMOOTH"
);
}
);
width = 960;
}
);
unicode = E02B;
},
{
glyphname = sf.plus.circle.o;
lastChange = "2014-08-08 16:41:34 +0000";
layers = (
{
layerId = "7BDE272C-C7FB-4166-8673-7B6B584E769E";
name = Regular;
paths = (
{
closed = 1;
nodes = (
"650 420 LINE SMOOTH",
"673 420 OFFCURVE",
"690 403 OFFCURVE",
"690 380 CURVE SMOOTH",
"690 320 LINE SMOOTH",
"690 297 OFFCURVE",
"673 280 OFFCURVE",
"650 280 CURVE SMOOTH",
"551 280 LINE",
"551 180 LINE SMOOTH",
"551 157 OFFCURVE",
"534 140 OFFCURVE",
"511 140 CURVE SMOOTH",
"451 140 LINE SMOOTH",
"428 140 OFFCURVE",
"411 157 OFFCURVE",
"411 180 CURVE SMOOTH",
"411 280 LINE",
"310 280 LINE SMOOTH",
"287 280 OFFCURVE",
"270 297 OFFCURVE",
"270 320 CURVE SMOOTH",
"270 380 LINE SMOOTH",
"270 403 OFFCURVE",
"287 420 OFFCURVE",
"310 420 CURVE SMOOTH",
"411 420 LINE",
"411 520 LINE SMOOTH",
"411 543 OFFCURVE",
"428 560 OFFCURVE",
"451 560 CURVE SMOOTH",
"511 560 LINE SMOOTH",
"534 560 OFFCURVE",
"551 543 OFFCURVE",
"551 520 CURVE SMOOTH",
"551 420 LINE"
);
},
{
closed = 1;
nodes = (
"899 465 OFFCURVE",
"910 409 OFFCURVE",
"910 350 CURVE SMOOTH",
"910 233 OFFCURVE",
"864 125 OFFCURVE",
"784 45 CURVE SMOOTH",
"744 5 OFFCURVE",
"699 -25 OFFCURVE",
"648 -46 CURVE SMOOTH",
"595 -69 OFFCURVE",
"539 -80 OFFCURVE",
"480 -80 CURVE SMOOTH",
"421 -80 OFFCURVE",
"365 -69 OFFCURVE",
"313 -46 CURVE",
"210 -5 OFFCURVE",
"128 79 OFFCURVE",
"84 183 CURVE SMOOTH",
"61 238 OFFCURVE",
"50 293 OFFCURVE",
"50 350 CURVE SMOOTH",
"50 463 OFFCURVE",
"97 575 OFFCURVE",
"176 654 CURVE SMOOTH",
"256 734 OFFCURVE",
"361 780 OFFCURVE",
"480 780 CURVE SMOOTH",
"539 780 OFFCURVE",
"595 769 OFFCURVE",
"648 746 CURVE SMOOTH",
"749 703 OFFCURVE",
"835 620 OFFCURVE",
"876 517 CURVE"
);
},
{
closed = 1;
nodes = (
"801 263 OFFCURVE",
"810 305 OFFCURVE",
"810 350 CURVE SMOOTH",
"810 439 OFFCURVE",
"777 520 OFFCURVE",
"714 583 CURVE SMOOTH",
"654 643 OFFCURVE",
"568 680 OFFCURVE",
"480 680 CURVE SMOOTH",
"391 680 OFFCURVE",
"304 643 OFFCURVE",
"247 583 CURVE SMOOTH",
"186 522 OFFCURVE",
"150 439 OFFCURVE",
"150 350 CURVE SMOOTH",
"150 261 OFFCURVE",
"186 178 OFFCURVE",
"247 117 CURVE SMOOTH",
"304 57 OFFCURVE",
"391 20 OFFCURVE",
"480 20 CURVE SMOOTH",
"568 20 OFFCURVE",
"654 57 OFFCURVE",
"714 117 CURVE SMOOTH",
"745 148 OFFCURVE",
"769 183 OFFCURVE",
"784 222 CURVE SMOOTH"
);
}
);
width = 960;
}
);
unicode = E02D;
},
{
glyphname = sf.minus.circle.o;
lastChange = "2014-08-08 16:41:38 +0000";
layers = (
{
layerId = "7BDE272C-C7FB-4166-8673-7B6B584E769E";
name = Regular;
paths = (
{
closed = 1;
nodes = (
"689 320 LINE SMOOTH",
"689 297 OFFCURVE",
"672 280 OFFCURVE",
"649 280 CURVE SMOOTH",
"309 280 LINE SMOOTH",
"286 280 OFFCURVE",
"269 297 OFFCURVE",
"269 320 CURVE SMOOTH",
"269 380 LINE SMOOTH",
"269 403 OFFCURVE",
"286 420 OFFCURVE",
"309 420 CURVE SMOOTH",
"649 420 LINE SMOOTH",
"672 420 OFFCURVE",
"689 403 OFFCURVE",
"689 380 CURVE SMOOTH"
);
},
{
closed = 1;
nodes = (
"899 462 OFFCURVE",
"910 407 OFFCURVE",
"910 350 CURVE SMOOTH",
"910 237 OFFCURVE",
"863 125 OFFCURVE",
"784 46 CURVE SMOOTH",
"703 -35 OFFCURVE",
"599 -80 OFFCURVE",
"480 -80 CURVE SMOOTH",
"421 -80 OFFCURVE",
"365 -69 OFFCURVE",
"312 -46 CURVE SMOOTH",
"209 -5 OFFCURVE",
"127 79 OFFCURVE",
"83 183 CURVE SMOOTH",
"61 236 OFFCURVE",
"50 291 OFFCURVE",
"50 350 CURVE SMOOTH",
"50 466 OFFCURVE",
"96 575 OFFCURVE",
"176 655 CURVE SMOOTH",
"215 694 OFFCURVE",
"261 725 OFFCURVE",
"312 746 CURVE SMOOTH",
"365 769 OFFCURVE",
"421 780 OFFCURVE",
"480 780 CURVE SMOOTH",
"599 780 OFFCURVE",
"703 734 OFFCURVE",
"784 654 CURVE SMOOTH",
"823 615 OFFCURVE",
"854 569 OFFCURVE",
"876 517 CURVE SMOOTH"
);
},
{
closed = 1;
nodes = (
"801 263 OFFCURVE",
"810 305 OFFCURVE",
"810 350 CURVE SMOOTH",
"810 439 OFFCURVE",
"774 522 OFFCURVE",
"713 583 CURVE SMOOTH",
"682 614 OFFCURVE",
"647 637 OFFCURVE",
"608 654 CURVE SMOOTH",
"567 671 OFFCURVE",
"525 680 OFFCURVE",
"480 680 CURVE SMOOTH",
"392 680 OFFCURVE",
"306 643 OFFCURVE",
"246 583 CURVE SMOOTH",
"185 522 OFFCURVE",
"150 442 OFFCURVE",
"150 350 CURVE SMOOTH",
"150 258 OFFCURVE",
"185 178 OFFCURVE",
"246 117 CURVE SMOOTH",
"306 57 OFFCURVE",
"392 20 OFFCURVE",
"480 20 CURVE SMOOTH",
"525 20 OFFCURVE",
"567 29 OFFCURVE",
"608 46 CURVE SMOOTH",
"647 63 OFFCURVE",
"682 86 OFFCURVE",
"713 117 CURVE SMOOTH",
"744 148 OFFCURVE",
"767 183 OFFCURVE",
"784 222 CURVE SMOOTH"
);
}
);
width = 960;
}
);
unicode = E02C;
},
{
glyphname = sf.checked.circle.o;
lastChange = "2014-08-08 16:41:47 +0000";
layers = (
{
layerId = "7BDE272C-C7FB-4166-8673-7B6B584E769E";
name = Regular;
paths = (
{
closed = 1;
nodes = (
"899 465 OFFCURVE",
"910 409 OFFCURVE",
"910 350 CURVE SMOOTH",
"910 233 OFFCURVE",
"864 125 OFFCURVE",
"784 45 CURVE SMOOTH",
"705 -34 OFFCURVE",
"596 -80 OFFCURVE",
"480 -80 CURVE SMOOTH",
"363 -80 OFFCURVE",
"257 -35 OFFCURVE",
"176 46 CURVE SMOOTH",
"97 125 OFFCURVE",
"50 231 OFFCURVE",
"50 350 CURVE SMOOTH",
"50 469 OFFCURVE",
"97 575 OFFCURVE",
"176 654 CURVE SMOOTH",
"257 735 OFFCURVE",
"363 780 OFFCURVE",
"480 780 CURVE SMOOTH",
"596 780 OFFCURVE",
"705 734 OFFCURVE",
"785 654 CURVE SMOOTH",
"825 614 OFFCURVE",
"855 568 OFFCURVE",
"876 517 CURVE SMOOTH"
);
},
{
closed = 1;
nodes = (
"801 263 OFFCURVE",
"810 305 OFFCURVE",
"810 350 CURVE SMOOTH",
"810 439 OFFCURVE",
"777 520 OFFCURVE",
"713 584 CURVE SMOOTH",
"654 643 OFFCURVE",
"568 680 OFFCURVE",
"480 680 CURVE SMOOTH",
"391 680 OFFCURVE",
"306 643 OFFCURVE",
"246 583 CURVE SMOOTH",
"187 524 OFFCURVE",
"150 439 OFFCURVE",
"150 350 CURVE SMOOTH",
"150 261 OFFCURVE",
"187 176 OFFCURVE",
"247 116 CURVE SMOOTH",
"306 57 OFFCURVE",
"391 20 OFFCURVE",
"480 20 CURVE SMOOTH",
"568 20 OFFCURVE",
"654 57 OFFCURVE",
"714 117 CURVE SMOOTH",
"745 148 OFFCURVE",
"769 183 OFFCURVE",
"784 222 CURVE SMOOTH"
);
},
{
closed = 1;
nodes = (
"438 164 LINE SMOOTH",
"431 157 OFFCURVE",
"423 154 OFFCURVE",
"414 154 CURVE SMOOTH",
"405 154 OFFCURVE",
"397 157 OFFCURVE",
"391 164 CURVE",
"242 314 LINE SMOOTH",
"235 321 OFFCURVE",
"232 329 OFFCURVE",
"232 338 CURVE SMOOTH",
"232 347 OFFCURVE",
"235 355 OFFCURVE",
"242 361 CURVE",
"287 406 LINE SMOOTH",
"294 413 OFFCURVE",
"301 416 OFFCURVE",
"310 416 CURVE SMOOTH",
"318 416 OFFCURVE",
"326 413 OFFCURVE",
"334 406 CURVE",
"415 325 LINE",
"602 512 LINE",
"608 519 OFFCURVE",
"616 522 OFFCURVE",
"625 522 CURVE SMOOTH",
"634 522 OFFCURVE",
"642 519 OFFCURVE",
"649 512 CURVE SMOOTH",
"695 467 LINE",
"702 461 OFFCURVE",
"705 453 OFFCURVE",
"705 444 CURVE SMOOTH",
"705 435 OFFCURVE",
"702 427 OFFCURVE",
"695 420 CURVE SMOOTH"
);
}
);
width = 960;
}
);
unicode = E02E;
},
{
glyphname = sf.x.circle.o;
lastChange = "2014-08-08 16:41:51 +0000";
layers = (
{
layerId = "7BDE272C-C7FB-4166-8673-7B6B584E769E";
name = Regular;
paths = (
{
closed = 1;
nodes = (
"899 465 OFFCURVE",
"910 409 OFFCURVE",
"910 350 CURVE SMOOTH",
"910 233 OFFCURVE",
"864 125 OFFCURVE",
"784 45 CURVE SMOOTH",
"744 5 OFFCURVE",
"699 -25 OFFCURVE",
"648 -46 CURVE SMOOTH",
"595 -69 OFFCURVE",
"539 -80 OFFCURVE",
"480 -80 CURVE SMOOTH",
"421 -80 OFFCURVE",
"365 -69 OFFCURVE",
"313 -46 CURVE",
"210 -5 OFFCURVE",
"128 79 OFFCURVE",
"84 183 CURVE SMOOTH",
"61 238 OFFCURVE",
"50 293 OFFCURVE",
"50 350 CURVE SMOOTH",
"50 463 OFFCURVE",
"97 575 OFFCURVE",
"176 654 CURVE SMOOTH",
"256 734 OFFCURVE",
"361 780 OFFCURVE",
"480 780 CURVE SMOOTH",
"539 780 OFFCURVE",
"595 769 OFFCURVE",
"648 746 CURVE SMOOTH",
"749 703 OFFCURVE",
"835 620 OFFCURVE",
"876 517 CURVE"
);
},
{
closed = 1;
nodes = (
"801 261 OFFCURVE",
"810 303 OFFCURVE",
"810 350 CURVE SMOOTH",
"810 442 OFFCURVE",
"775 522 OFFCURVE",
"714 583 CURVE SMOOTH",
"654 643 OFFCURVE",
"568 680 OFFCURVE",
"480 680 CURVE SMOOTH",
"437 680 OFFCURVE",
"394 671 OFFCURVE",
"352 654 CURVE SMOOTH",
"313 637 OFFCURVE",
"278 614 OFFCURVE",
"247 583 CURVE SMOOTH",
"186 522 OFFCURVE",
"150 439 OFFCURVE",
"150 350 CURVE SMOOTH",
"150 261 OFFCURVE",
"186 178 OFFCURVE",
"247 117 CURVE SMOOTH",
"278 86 OFFCURVE",
"313 63 OFFCURVE",
"352 46 CURVE SMOOTH",
"394 29 OFFCURVE",
"437 20 OFFCURVE",
"480 20 CURVE SMOOTH",
"568 20 OFFCURVE",
"654 57 OFFCURVE",
"714 117 CURVE SMOOTH",
"745 148 OFFCURVE",
"769 183 OFFCURVE",
"784 222 CURVE"
);
},
{
closed = 1;
nodes = (
"653 279 LINE SMOOTH",
"661 271 OFFCURVE",
"665 262 OFFCURVE",
"665 251 CURVE SMOOTH",
"665 240 OFFCURVE",
"661 230 OFFCURVE",
"653 223 CURVE",
"611 180 LINE",
"604 172 OFFCURVE",
"594 168 OFFCURVE",
"583 168 CURVE SMOOTH",
"572 168 OFFCURVE",
"562 172 OFFCURVE",
"554 180 CURVE SMOOTH",
"484 250 LINE",
"413 180 LINE SMOOTH",
"405 172 OFFCURVE",
"395 168 OFFCURVE",
"384 168 CURVE SMOOTH",
"373 168 OFFCURVE",
"364 172 OFFCURVE",
"357 180 CURVE",
"314 222 LINE",
"306 229 OFFCURVE",
"302 239 OFFCURVE",
"302 250 CURVE SMOOTH",
"302 261 OFFCURVE",
"306 271 OFFCURVE",
"314 279 CURVE SMOOTH",
"385 349 LINE",
"314 421 LINE SMOOTH",
"306 429 OFFCURVE",
"302 439 OFFCURVE",
"302 450 CURVE SMOOTH",
"302 461 OFFCURVE",
"306 470 OFFCURVE",
"314 477 CURVE",
"356 520 LINE",
"363 528 OFFCURVE",
"373 532 OFFCURVE",
"384 532 CURVE SMOOTH",
"395 532 OFFCURVE",
"405 528 OFFCURVE",
"413 520 CURVE SMOOTH",
"484 448 LINE",
"555 519 LINE",
"562 527 OFFCURVE",
"572 531 OFFCURVE",
"583 531 CURVE SMOOTH",
"594 531 OFFCURVE",
"603 527 OFFCURVE",
"611 519 CURVE SMOOTH",
"654 477 LINE",
"662 470 OFFCURVE",
"666 460 OFFCURVE",
"666 449 CURVE SMOOTH",
"666 438 OFFCURVE",
"662 428 OFFCURVE",
"654 420 CURVE SMOOTH",
"583 349 LINE"
);
}
);
width = 960;
}
);
unicode = E02F;
},
{
glyphname = sf.empty.square;
lastChange = "2014-08-08 16:42:02 +0000";
layers = (
{
layerId = "7BDE272C-C7FB-4166-8673-7B6B584E769E";
name = Regular;
paths = (
{
closed = 1;
nodes = (
"760 780 LINE SMOOTH",
"801 780 OFFCURVE",
"839 763 OFFCURVE",
"866 736 CURVE SMOOTH",
"893 709 OFFCURVE",
"910 671 OFFCURVE",
"910 630 CURVE SMOOTH",
"910 70 LINE SMOOTH",
"910 29 OFFCURVE",
"893 -9 OFFCURVE",
"866 -36 CURVE SMOOTH",
"839 -63 OFFCURVE",
"801 -80 OFFCURVE",
"760 -80 CURVE SMOOTH",
"200 -80 LINE SMOOTH",
"159 -80 OFFCURVE",
"121 -63 OFFCURVE",
"94 -36 CURVE SMOOTH",
"67 -9 OFFCURVE",
"50 29 OFFCURVE",
"50 70 CURVE SMOOTH",
"50 630 LINE SMOOTH",
"50 671 OFFCURVE",
"67 709 OFFCURVE",
"94 736 CURVE SMOOTH",
"121 763 OFFCURVE",
"159 780 OFFCURVE",
"200 780 CURVE SMOOTH"
);
}
);
width = 960;
}
);
unicode = E01C;
},
{
glyphname = sf.plus.square;
lastChange = "2014-08-08 16:42:08 +0000";
layers = (
{
layerId = "7BDE272C-C7FB-4166-8673-7B6B584E769E";
name = Regular;
paths = (
{
closed = 1;
nodes = (
"760 780 LINE SMOOTH",
"801 780 OFFCURVE",
"839 763 OFFCURVE",
"866 736 CURVE SMOOTH",
"893 709 OFFCURVE",
"910 671 OFFCURVE",
"910 630 CURVE SMOOTH",
"910 70 LINE SMOOTH",
"910 29 OFFCURVE",
"893 -9 OFFCURVE",
"866 -36 CURVE SMOOTH",
"839 -63 OFFCURVE",
"801 -80 OFFCURVE",
"760 -80 CURVE SMOOTH",
"200 -80 LINE SMOOTH",
"159 -80 OFFCURVE",
"121 -63 OFFCURVE",
"94 -36 CURVE SMOOTH",
"67 -9 OFFCURVE",
"50 29 OFFCURVE",
"50 70 CURVE SMOOTH",
"50 630 LINE SMOOTH",
"50 671 OFFCURVE",
"67 709 OFFCURVE",
"94 736 CURVE SMOOTH",
"121 763 OFFCURVE",
"159 780 OFFCURVE",
"200 780 CURVE SMOOTH"
);
},
{
closed = 1;
nodes = (
"770 380 LINE SMOOTH",
"770 403 OFFCURVE",
"753 420 OFFCURVE",
"730 420 CURVE SMOOTH",
"550 420 LINE",
"550 600 LINE SMOOTH",
"550 623 OFFCURVE",
"533 640 OFFCURVE",
"510 640 CURVE SMOOTH",
"450 640 LINE SMOOTH",
"427 640 OFFCURVE",
"410 623 OFFCURVE",
"410 600 CURVE SMOOTH",
"410 420 LINE",
"230 420 LINE SMOOTH",
"207 420 OFFCURVE",
"190 403 OFFCURVE",
"190 380 CURVE SMOOTH",
"190 320 LINE SMOOTH",
"190 297 OFFCURVE",
"207 280 OFFCURVE",
"230 280 CURVE SMOOTH",
"410 280 LINE",
"410 100 LINE SMOOTH",
"410 77 OFFCURVE",
"427 60 OFFCURVE",
"450 60 CURVE SMOOTH",
"510 60 LINE SMOOTH",
"533 60 OFFCURVE",
"550 77 OFFCURVE",
"550 100 CURVE SMOOTH",
"550 280 LINE",
"730 280 LINE SMOOTH",
"753 280 OFFCURVE",
"770 297 OFFCURVE",
"770 320 CURVE SMOOTH"
);
}
);
width = 960;
}
);
unicode = E01E;
},
{
glyphname = sf.minus.square;
lastChange = "2014-08-08 16:42:13 +0000";
layers = (
{
layerId = "7BDE272C-C7FB-4166-8673-7B6B584E769E";
name = Regular;
paths = (
{
closed = 1;
nodes = (
"760 780 LINE SMOOTH",
"801 780 OFFCURVE",
"839 763 OFFCURVE",
"866 736 CURVE SMOOTH",
"893 709 OFFCURVE",
"910 671 OFFCURVE",
"910 630 CURVE SMOOTH",
"910 70 LINE SMOOTH",
"910 29 OFFCURVE",
"893 -9 OFFCURVE",
"866 -36 CURVE SMOOTH",
"839 -63 OFFCURVE",
"801 -80 OFFCURVE",
"760 -80 CURVE SMOOTH",
"200 -80 LINE SMOOTH",
"159 -80 OFFCURVE",
"121 -63 OFFCURVE",
"94 -36 CURVE SMOOTH",
"67 -9 OFFCURVE",
"50 29 OFFCURVE",
"50 70 CURVE SMOOTH",
"50 630 LINE SMOOTH",
"50 671 OFFCURVE",
"67 709 OFFCURVE",
"94 736 CURVE SMOOTH",
"121 763 OFFCURVE",
"159 780 OFFCURVE",
"200 780 CURVE SMOOTH"
);
},
{
closed = 1;
nodes = (
"770 380 LINE SMOOTH",
"770 403 OFFCURVE",
"753 420 OFFCURVE",
"730 420 CURVE SMOOTH",
"230 420 LINE SMOOTH",
"207 420 OFFCURVE",
"190 403 OFFCURVE",
"190 380 CURVE SMOOTH",
"190 320 LINE SMOOTH",
"190 297 OFFCURVE",
"207 280 OFFCURVE",
"230 280 CURVE SMOOTH",
"730 280 LINE SMOOTH",
"753 280 OFFCURVE",
"770 297 OFFCURVE",
"770 320 CURVE SMOOTH"
);
}
);
width = 960;
}
);
unicode = E01F;
},
{
glyphname = sf.checked.square;
lastChange = "2014-08-08 16:42:18 +0000";
layers = (
{
layerId = "7BDE272C-C7FB-4166-8673-7B6B584E769E";
name = Regular;
paths = (
{
closed = 1;
nodes = (
"910 70 LINE SMOOTH",
"910 29 OFFCURVE",
"893 -9 OFFCURVE",
"866 -36 CURVE SMOOTH",
"839 -63 OFFCURVE",
"801 -80 OFFCURVE",
"760 -80 CURVE SMOOTH",
"200 -80 LINE SMOOTH",
"159 -80 OFFCURVE",
"121 -63 OFFCURVE",
"94 -36 CURVE SMOOTH",
"67 -9 OFFCURVE",
"50 29 OFFCURVE",
"50 70 CURVE SMOOTH",
"50 630 LINE SMOOTH",
"50 671 OFFCURVE",
"67 709 OFFCURVE",
"94 736 CURVE SMOOTH",
"121 763 OFFCURVE",
"159 780 OFFCURVE",
"200 780 CURVE SMOOTH",
"760 780 LINE SMOOTH",
"801 780 OFFCURVE",
"839 763 OFFCURVE",
"866 736 CURVE SMOOTH",
"893 709 OFFCURVE",
"910 671 OFFCURVE",
"910 630 CURVE SMOOTH"
);
},
{
closed = 1;
nodes = (
"761 471 LINE",
"768 479 OFFCURVE",
"771 487 OFFCURVE",
"771 495 CURVE SMOOTH",
"771 503 OFFCURVE",
"768 511 OFFCURVE",
"761 519 CURVE",
"715 564 LINE",
"707 571 OFFCURVE",
"699 574 OFFCURVE",
"691 574 CURVE SMOOTH",
"682 574 OFFCURVE",
"675 571 OFFCURVE",
"668 564 CURVE SMOOTH",
"401 297 LINE",
"292 406 LINE",
"284 413 OFFCURVE",
"276 416 OFFCURVE",
"268 416 CURVE SMOOTH",
"259 416 OFFCURVE",
"252 413 OFFCURVE",
"245 406 CURVE SMOOTH",
"199 360 LINE SMOOTH",
"192 353 OFFCURVE",
"189 346 OFFCURVE",
"189 337 CURVE SMOOTH",
"189 328 OFFCURVE",
"192 320 OFFCURVE",
"199 313 CURVE SMOOTH",
"377 135 LINE",
"383 128 OFFCURVE",
"391 125 OFFCURVE",
"400 125 CURVE SMOOTH",
"409 125 OFFCURVE",
"417 128 OFFCURVE",
"424 135 CURVE SMOOTH"
);
}
);
width = 960;
}
);
unicode = E01D;
},
{
glyphname = sf.x.square;
lastChange = "2014-08-08 16:42:27 +0000";
layers = (
{
layerId = "7BDE272C-C7FB-4166-8673-7B6B584E769E";
name = Regular;
paths = (
{
closed = 1;
nodes = (
"760 780 LINE SMOOTH",
"801 780 OFFCURVE",
"839 763 OFFCURVE",
"866 736 CURVE SMOOTH",
"893 708 OFFCURVE",
"910 671 OFFCURVE",
"910 630 CURVE SMOOTH",
"910 70 LINE SMOOTH",
"910 29 OFFCURVE",
"893 -9 OFFCURVE",
"866 -36 CURVE SMOOTH",
"839 -63 OFFCURVE",
"801 -80 OFFCURVE",
"760 -80 CURVE SMOOTH",
"200 -80 LINE SMOOTH",
"159 -80 OFFCURVE",
"121 -63 OFFCURVE",
"94 -36 CURVE SMOOTH",
"67 -9 OFFCURVE",
"50 29 OFFCURVE",
"50 70 CURVE SMOOTH",
"50 630 LINE SMOOTH",
"50 671 OFFCURVE",
"67 708 OFFCURVE",
"94 736 CURVE SMOOTH",
"121 763 OFFCURVE",
"159 780 OFFCURVE",
"200 780 CURVE SMOOTH"
);
},
{
closed = 1;
nodes = (
"579 349 LINE",
"707 477 LINE SMOOTH",
"714 484 OFFCURVE",
"718 494 OFFCURVE",
"718 505 CURVE SMOOTH",
"718 515 OFFCURVE",
"714 524 OFFCURVE",
"707 533 CURVE",
"664 576 LINE",
"655 583 OFFCURVE",
"646 587 OFFCURVE",
"636 587 CURVE SMOOTH",
"625 587 OFFCURVE",
"615 583 OFFCURVE",
"608 576 CURVE SMOOTH",
"480 448 LINE",
"352 576 LINE SMOOTH",
"344 584 OFFCURVE",
"335 588 OFFCURVE",
"324 588 CURVE SMOOTH",
"313 588 OFFCURVE",
"303 584 OFFCURVE",
"296 576 CURVE",
"253 534 LINE",
"245 527 OFFCURVE",
"241 517 OFFCURVE",
"241 506 CURVE SMOOTH",
"241 495 OFFCURVE",
"245 485 OFFCURVE",
"253 477 CURVE SMOOTH",
"381 349 LINE",
"254 222 LINE SMOOTH",
"246 214 OFFCURVE",
"242 204 OFFCURVE",
"242 193 CURVE SMOOTH",
"242 182 OFFCURVE",
"246 173 OFFCURVE",
"254 165 CURVE SMOOTH",
"297 123 LINE SMOOTH",
"305 115 OFFCURVE",
"314 111 OFFCURVE",
"325 111 CURVE SMOOTH",
"336 111 OFFCURVE",
"345 115 OFFCURVE",
"353 123 CURVE SMOOTH",
"480 250 LINE",
"607 124 LINE SMOOTH",
"615 116 OFFCURVE",
"624 112 OFFCURVE",
"635 112 CURVE SMOOTH",
"646 112 OFFCURVE",
"655 116 OFFCURVE",
"663 124 CURVE SMOOTH",
"706 166 LINE SMOOTH",
"714 174 OFFCURVE",
"718 183 OFFCURVE",
"718 194 CURVE SMOOTH",
"718 205 OFFCURVE",
"714 215 OFFCURVE",
"706 223 CURVE SMOOTH"
);
}
);
width = 960;
}
);
unicode = E020;
},
{
glyphname = sf.empty.square.o;
lastChange = "2014-08-08 16:42:57 +0000";
layers = (
{
layerId = "7BDE272C-C7FB-4166-8673-7B6B584E769E";
name = Regular;
paths = (
{
closed = 1;
nodes = (
"739 780 LINE SMOOTH",
"786 780 OFFCURVE",
"828 761 OFFCURVE",
"860 730 CURVE SMOOTH",
"891 698 OFFCURVE",
"910 656 OFFCURVE",
"910 609 CURVE SMOOTH",
"910 91 LINE SMOOTH",
"910 44 OFFCURVE",
"891 1 OFFCURVE",
"860 -30 CURVE SMOOTH",
"828 -61 OFFCURVE",
"786 -80 OFFCURVE",
"739 -80 CURVE SMOOTH",
"221 -80 LINE SMOOTH",
"174 -80 OFFCURVE",
"131 -61 OFFCURVE",
"100 -30 CURVE SMOOTH",
"69 1 OFFCURVE",
"50 44 OFFCURVE",
"50 91 CURVE SMOOTH",
"50 609 LINE SMOOTH",
"50 656 OFFCURVE",
"69 698 OFFCURVE",
"100 730 CURVE SMOOTH",
"131 761 OFFCURVE",
"174 780 OFFCURVE",
"221 780 CURVE SMOOTH"
);
},
{
closed = 1;
nodes = (
"810 609 LINE SMOOTH",
"810 648 OFFCURVE",
"778 680 OFFCURVE",
"739 680 CURVE SMOOTH",
"221 680 LINE SMOOTH",
"182 680 OFFCURVE",
"150 648 OFFCURVE",
"150 609 CURVE SMOOTH",
"150 91 LINE SMOOTH",
"150 52 OFFCURVE",
"182 20 OFFCURVE",
"221 20 CURVE SMOOTH",
"739 20 LINE SMOOTH",
"778 20 OFFCURVE",
"810 52 OFFCURVE",
"810 91 CURVE SMOOTH"
);
}
);
width = 960;
}
);
unicode = E026;
},
{
glyphname = sf.plus.square.o;
lastChange = "2014-08-08 16:43:03 +0000";
layers = (
{
layerId = "7BDE272C-C7FB-4166-8673-7B6B584E769E";
name = Regular;
paths = (
{
closed = 1;
nodes = (
"739 780 LINE SMOOTH",
"786 780 OFFCURVE",
"828 761 OFFCURVE",
"860 730 CURVE SMOOTH",
"891 698 OFFCURVE",
"910 656 OFFCURVE",
"910 609 CURVE SMOOTH",
"910 91 LINE SMOOTH",
"910 44 OFFCURVE",
"891 1 OFFCURVE",
"860 -30 CURVE SMOOTH",
"828 -61 OFFCURVE",
"786 -80 OFFCURVE",
"739 -80 CURVE SMOOTH",
"221 -80 LINE SMOOTH",
"174 -80 OFFCURVE",
"131 -61 OFFCURVE",
"100 -30 CURVE SMOOTH",
"69 1 OFFCURVE",
"50 44 OFFCURVE",
"50 91 CURVE SMOOTH",
"50 609 LINE SMOOTH",
"50 656 OFFCURVE",
"69 698 OFFCURVE",
"100 730 CURVE SMOOTH",
"131 761 OFFCURVE",
"174 780 OFFCURVE",
"221 780 CURVE SMOOTH"
);
},
{
closed = 1;
nodes = (
"810 609 LINE SMOOTH",
"810 648 OFFCURVE",
"778 680 OFFCURVE",
"739 680 CURVE SMOOTH",
"221 680 LINE SMOOTH",
"182 680 OFFCURVE",
"150 648 OFFCURVE",
"150 609 CURVE SMOOTH",
"150 91 LINE SMOOTH",
"150 52 OFFCURVE",
"182 20 OFFCURVE",
"221 20 CURVE SMOOTH",
"739 20 LINE SMOOTH",
"778 20 OFFCURVE",
"810 52 OFFCURVE",
"810 91 CURVE SMOOTH"
);
},
{
closed = 1;
nodes = (
"649 420 LINE SMOOTH",
"672 420 OFFCURVE",
"689 403 OFFCURVE",
"689 380 CURVE SMOOTH",
"689 320 LINE SMOOTH",
"689 297 OFFCURVE",
"672 280 OFFCURVE",
"649 280 CURVE SMOOTH",
"550 280 LINE",
"550 180 LINE SMOOTH",
"550 157 OFFCURVE",
"533 140 OFFCURVE",
"510 140 CURVE SMOOTH",
"450 140 LINE SMOOTH",
"427 140 OFFCURVE",
"410 157 OFFCURVE",
"410 180 CURVE SMOOTH",
"410 280 LINE",
"309 280 LINE SMOOTH",
"286 280 OFFCURVE",
"269 297 OFFCURVE",
"269 320 CURVE SMOOTH",
"269 380 LINE SMOOTH",
"269 403 OFFCURVE",
"286 420 OFFCURVE",
"309 420 CURVE SMOOTH",
"410 420 LINE",
"410 520 LINE SMOOTH",
"410 543 OFFCURVE",
"427 560 OFFCURVE",
"450 560 CURVE SMOOTH",
"510 560 LINE SMOOTH",
"533 560 OFFCURVE",
"550 543 OFFCURVE",
"550 520 CURVE SMOOTH",
"550 420 LINE"
);
}
);
width = 960;
}
);
unicode = E027;
},
{
glyphname = sf.minus.square.o;
lastChange = "2014-08-08 16:43:07 +0000";
layers = (
{
layerId = "7BDE272C-C7FB-4166-8673-7B6B584E769E";
name = Regular;
paths = (
{
closed = 1;
nodes = (
"739 780 LINE SMOOTH",
"786 780 OFFCURVE",
"828 761 OFFCURVE",
"860 730 CURVE SMOOTH",
"891 698 OFFCURVE",
"910 656 OFFCURVE",
"910 609 CURVE SMOOTH",
"910 91 LINE SMOOTH",
"910 44 OFFCURVE",
"891 1 OFFCURVE",
"860 -30 CURVE SMOOTH",
"828 -61 OFFCURVE",
"786 -80 OFFCURVE",
"739 -80 CURVE SMOOTH",
"221 -80 LINE SMOOTH",
"174 -80 OFFCURVE",
"131 -61 OFFCURVE",
"100 -30 CURVE SMOOTH",
"69 1 OFFCURVE",
"50 44 OFFCURVE",
"50 91 CURVE SMOOTH",
"50 609 LINE SMOOTH",
"50 656 OFFCURVE",
"69 698 OFFCURVE",
"100 730 CURVE SMOOTH",
"131 761 OFFCURVE",
"174 780 OFFCURVE",
"221 780 CURVE SMOOTH"
);
},
{
closed = 1;
nodes = (
"810 609 LINE SMOOTH",
"810 648 OFFCURVE",
"778 680 OFFCURVE",
"739 680 CURVE SMOOTH",
"221 680 LINE SMOOTH",
"182 680 OFFCURVE",
"150 648 OFFCURVE",
"150 609 CURVE SMOOTH",
"150 91 LINE SMOOTH",
"150 52 OFFCURVE",
"182 20 OFFCURVE",
"221 20 CURVE SMOOTH",
"739 20 LINE SMOOTH",
"778 20 OFFCURVE",
"810 52 OFFCURVE",
"810 91 CURVE SMOOTH"
);
},
{
closed = 1;
nodes = (
"689 320 LINE SMOOTH",
"689 297 OFFCURVE",
"672 280 OFFCURVE",
"649 280 CURVE SMOOTH",
"309 280 LINE SMOOTH",
"286 280 OFFCURVE",
"269 297 OFFCURVE",
"269 320 CURVE SMOOTH",
"269 380 LINE SMOOTH",
"269 403 OFFCURVE",
"286 420 OFFCURVE",
"309 420 CURVE SMOOTH",
"649 420 LINE SMOOTH",
"672 420 OFFCURVE",
"689 403 OFFCURVE",
"689 380 CURVE SMOOTH"
);
}
);
width = 960;
}
);
unicode = E028;
},
{
glyphname = sf.checked.square.o;
lastChange = "2014-08-08 16:43:14 +0000";
layers = (
{
layerId = "7BDE272C-C7FB-4166-8673-7B6B584E769E";
name = Regular;
paths = (
{
closed = 1;
nodes = (
"739 780 LINE SMOOTH",
"786 780 OFFCURVE",
"828 761 OFFCURVE",
"860 730 CURVE SMOOTH",
"891 698 OFFCURVE",
"910 656 OFFCURVE",
"910 609 CURVE SMOOTH",
"910 91 LINE SMOOTH",
"910 44 OFFCURVE",
"891 1 OFFCURVE",
"860 -30 CURVE SMOOTH",
"828 -61 OFFCURVE",
"786 -80 OFFCURVE",
"739 -80 CURVE SMOOTH",
"221 -80 LINE SMOOTH",
"174 -80 OFFCURVE",
"131 -61 OFFCURVE",
"100 -30 CURVE SMOOTH",
"69 1 OFFCURVE",
"50 44 OFFCURVE",
"50 91 CURVE SMOOTH",
"50 609 LINE SMOOTH",
"50 656 OFFCURVE",
"69 698 OFFCURVE",
"100 730 CURVE SMOOTH",
"131 761 OFFCURVE",
"174 780 OFFCURVE",
"221 780 CURVE SMOOTH"
);
},
{
closed = 1;
nodes = (
"810 609 LINE SMOOTH",
"810 648 OFFCURVE",
"778 680 OFFCURVE",
"739 680 CURVE SMOOTH",
"221 680 LINE SMOOTH",
"182 680 OFFCURVE",
"150 648 OFFCURVE",
"150 609 CURVE SMOOTH",
"150 91 LINE SMOOTH",
"150 52 OFFCURVE",
"182 20 OFFCURVE",
"221 20 CURVE SMOOTH",
"739 20 LINE SMOOTH",
"778 20 OFFCURVE",
"810 52 OFFCURVE",
"810 91 CURVE SMOOTH"
);
},
{
closed = 1;
nodes = (
"438 164 LINE",
"432 157 OFFCURVE",
"424 154 OFFCURVE",
"415 154 CURVE SMOOTH",
"406 154 OFFCURVE",
"398 157 OFFCURVE",
"391 164 CURVE SMOOTH",
"242 314 LINE SMOOTH",
"235 321 OFFCURVE",
"232 329 OFFCURVE",
"232 338 CURVE SMOOTH",
"232 347 OFFCURVE",
"235 355 OFFCURVE",
"242 361 CURVE",
"287 406 LINE SMOOTH",
"294 413 OFFCURVE",
"301 416 OFFCURVE",
"310 416 CURVE SMOOTH",
"318 416 OFFCURVE",
"326 413 OFFCURVE",
"334 406 CURVE",
"415 326 LINE",
"626 536 LINE",
"634 543 OFFCURVE",
"642 546 OFFCURVE",
"650 546 CURVE SMOOTH",
"657 546 OFFCURVE",
"665 543 OFFCURVE",
"673 536 CURVE",
"718 491 LINE SMOOTH",
"725 484 OFFCURVE",
"728 476 OFFCURVE",
"728 467 CURVE SMOOTH",
"728 458 OFFCURVE",
"725 450 OFFCURVE",
"718 444 CURVE"
);
}
);
width = 960;
}
);
unicode = E029;
},
{
glyphname = sf.x.square.o;
lastChange = "2014-08-08 16:43:19 +0000";
layers = (
{
layerId = "7BDE272C-C7FB-4166-8673-7B6B584E769E";
name = Regular;
paths = (
{
closed = 1;
nodes = (
"739 780 LINE SMOOTH",
"787 780 OFFCURVE",
"829 761 OFFCURVE",
"860 730 CURVE SMOOTH",
"891 698 OFFCURVE",
"910 656 OFFCURVE",
"910 609 CURVE SMOOTH",
"910 91 LINE SMOOTH",
"910 44 OFFCURVE",
"891 1 OFFCURVE",
"860 -30 CURVE SMOOTH",
"829 -61 OFFCURVE",
"787 -80 OFFCURVE",
"739 -80 CURVE SMOOTH",
"221 -80 LINE SMOOTH",
"174 -80 OFFCURVE",
"131 -61 OFFCURVE",
"100 -30 CURVE SMOOTH",
"69 1 OFFCURVE",
"50 44 OFFCURVE",
"50 91 CURVE SMOOTH",
"50 609 LINE SMOOTH",
"50 656 OFFCURVE",
"69 698 OFFCURVE",
"100 730 CURVE SMOOTH",
"131 761 OFFCURVE",
"174 780 OFFCURVE",
"221 780 CURVE SMOOTH"
);
},
{
closed = 1;
nodes = (
"810 609 LINE SMOOTH",
"810 648 OFFCURVE",
"778 680 OFFCURVE",
"739 680 CURVE SMOOTH",
"221 680 LINE SMOOTH",
"182 680 OFFCURVE",
"150 648 OFFCURVE",
"150 609 CURVE SMOOTH",
"150 91 LINE SMOOTH",
"150 52 OFFCURVE",
"182 20 OFFCURVE",
"221 20 CURVE SMOOTH",
"739 20 LINE SMOOTH",
"778 20 OFFCURVE",
"810 52 OFFCURVE",
"810 91 CURVE SMOOTH"
);
},
{
closed = 1;
nodes = (
"650 280 LINE",
"657 271 OFFCURVE",
"661 262 OFFCURVE",
"661 251 CURVE SMOOTH",
"661 241 OFFCURVE",
"657 232 OFFCURVE",
"650 223 CURVE",
"607 181 LINE SMOOTH",
"599 173 OFFCURVE",
"589 169 OFFCURVE",
"578 169 CURVE SMOOTH",
"567 169 OFFCURVE",
"558 173 OFFCURVE",
"551 181 CURVE",
"481 251 LINE",
"410 180 LINE SMOOTH",
"402 172 OFFCURVE",
"392 168 OFFCURVE",
"381 168 CURVE SMOOTH",
"370 168 OFFCURVE",
"361 172 OFFCURVE",
"353 180 CURVE SMOOTH",
"311 222 LINE SMOOTH",
"303 230 OFFCURVE",
"299 239 OFFCURVE",
"299 250 CURVE SMOOTH",
"299 261 OFFCURVE",
"303 271 OFFCURVE",
"311 279 CURVE SMOOTH",
"382 350 LINE",
"310 421 LINE",
"302 428 OFFCURVE",
"298 438 OFFCURVE",
"298 449 CURVE SMOOTH",
"298 460 OFFCURVE",
"302 470 OFFCURVE",
"310 478 CURVE SMOOTH",
"353 520 LINE SMOOTH",
"361 528 OFFCURVE",
"371 532 OFFCURVE",
"382 532 CURVE SMOOTH",
"393 532 OFFCURVE",
"402 528 OFFCURVE",
"409 520 CURVE",
"481 449 LINE",
"551 519 LINE SMOOTH",
"559 527 OFFCURVE",
"568 531 OFFCURVE",
"579 531 CURVE SMOOTH",
"590 531 OFFCURVE",
"600 527 OFFCURVE",
"608 519 CURVE SMOOTH",
"650 477 LINE SMOOTH",
"658 469 OFFCURVE",
"662 459 OFFCURVE",
"662 448 CURVE SMOOTH",
"662 437 OFFCURVE",
"658 428 OFFCURVE",
"650 420 CURVE SMOOTH",
"580 350 LINE"
);
}
);
width = 960;
}
);
unicode = E02A;
},
{
glyphname = sf.calendar;
lastChange = "2014-08-08 16:43:41 +0000";
layers = (
{
layerId = "7BDE272C-C7FB-4166-8673-7B6B584E769E";
name = Regular;
paths = (
{
closed = 1;
nodes = (
"700 590 LINE SMOOTH",
"700 562 OFFCURVE",
"678 540 OFFCURVE",
"650 540 CURVE SMOOTH",
"622 540 OFFCURVE",
"600 562 OFFCURVE",
"600 590 CURVE SMOOTH",
"600 660 LINE SMOOTH",
"600 687 OFFCURVE",
"622 710 OFFCURVE",
"650 710 CURVE SMOOTH",
"678 710 OFFCURVE",
"700 687 OFFCURVE",
"700 660 CURVE SMOOTH"
);
},
{
closed = 1;
nodes = (
"360 660 LINE SMOOTH",
"360 687 OFFCURVE",
"338 710 OFFCURVE",
"310 710 CURVE SMOOTH",
"282 710 OFFCURVE",
"260 687 OFFCURVE",
"260 660 CURVE SMOOTH",
"260 590 LINE SMOOTH",
"260 562 OFFCURVE",
"282 540 OFFCURVE",
"310 540 CURVE SMOOTH",
"338 540 OFFCURVE",
"360 562 OFFCURVE",
"360 590 CURVE SMOOTH"
);
},
{
closed = 1;
nodes = (
"750 620 LINE",
"750 590 LINE SMOOTH",
"750 534 OFFCURVE",
"706 490 OFFCURVE",
"650 490 CURVE SMOOTH",
"594 490 OFFCURVE",
"550 534 OFFCURVE",
"550 590 CURVE SMOOTH",
"550 620 LINE",
"410 620 LINE",
"410 590 LINE SMOOTH",
"410 534 OFFCURVE",
"366 490 OFFCURVE",
"310 490 CURVE SMOOTH",
"254 490 OFFCURVE",
"210 534 OFFCURVE",
"210 590 CURVE SMOOTH",
"210 620 LINE",
"78 620 LINE SMOOTH",
"63 620 OFFCURVE",
"50 607 OFFCURVE",
"50 591 CURVE SMOOTH",
"50 18 LINE SMOOTH",
"50 2 OFFCURVE",
"63 -10 OFFCURVE",
"78 -10 CURVE SMOOTH",
"882 -10 LINE SMOOTH",
"897 -10 OFFCURVE",
"910 2 OFFCURVE",
"910 18 CURVE SMOOTH",
"910 591 LINE SMOOTH",
"910 607 OFFCURVE",
"897 620 OFFCURVE",
"882 620 CURVE SMOOTH"
);
},
{
closed = 1;
nodes = (
"239 385 LINE",
"339 385 LINE",
"339 285 LINE",
"239 285 LINE"
);
},
{
closed = 1;
nodes = (
"340 95 LINE",
"240 95 LINE",
"240 195 LINE",
"340 195 LINE"
);
},
{
closed = 1;
nodes = (
"430 385 LINE",
"530 385 LINE",
"530 285 LINE",
"430 285 LINE"
);
},
{
closed = 1;
nodes = (
"531 95 LINE",
"431 95 LINE",
"431 195 LINE",
"531 195 LINE"
);
},
{
closed = 1;
nodes = (
"619 385 LINE",
"719 385 LINE",
"719 285 LINE",
"619 285 LINE"
);
},
{
closed = 1;
nodes = (
"720 95 LINE",
"620 95 LINE",
"620 195 LINE",
"720 195 LINE"
);
}
);
width = 960;
}
);
unicode = E030;
},
{
glyphname = sf.calendar.day;
lastChange = "2014-08-08 16:43:46 +0000";
layers = (
{
layerId = "7BDE272C-C7FB-4166-8673-7B6B584E769E";
name = Regular;
paths = (
{
closed = 1;
nodes = (
"750 620 LINE",
"750 590 LINE SMOOTH",
"750 562 OFFCURVE",
"739 538 OFFCURVE",
"721 520 CURVE SMOOTH",
"703 502 OFFCURVE",
"678 490 OFFCURVE",
"650 490 CURVE SMOOTH",
"594 490 OFFCURVE",
"550 534 OFFCURVE",
"550 590 CURVE SMOOTH",
"550 620 LINE",
"410 620 LINE",
"410 590 LINE SMOOTH",
"410 562 OFFCURVE",
"399 538 OFFCURVE",
"381 520 CURVE SMOOTH",
"363 502 OFFCURVE",
"338 490 OFFCURVE",
"310 490 CURVE SMOOTH",
"254 490 OFFCURVE",
"210 534 OFFCURVE",
"210 590 CURVE SMOOTH",
"210 620 LINE",
"79 620 LINE SMOOTH",
"63 620 OFFCURVE",
"50 607 OFFCURVE",
"50 591 CURVE SMOOTH",
"50 18 LINE SMOOTH",
"50 2 OFFCURVE",
"63 -10 OFFCURVE",
"79 -10 CURVE SMOOTH",
"882 -10 LINE SMOOTH",
"898 -10 OFFCURVE",
"910 2 OFFCURVE",
"910 18 CURVE SMOOTH",
"910 591 LINE SMOOTH",
"910 607 OFFCURVE",
"898 620 OFFCURVE",
"882 620 CURVE SMOOTH"
);
},
{
closed = 1;
nodes = (
"566 318 LINE",
"515 262 OFFCURVE",
"503 212 OFFCURVE",
"495 141 CURVE SMOOTH",
"493 117 LINE",
"436 117 LINE",
"438 141 LINE SMOOTH",
"442 176 OFFCURVE",
"449 207 OFFCURVE",
"461 238 CURVE SMOOTH",
"473 268 OFFCURVE",
"490 295 OFFCURVE",
"511 318 CURVE",
"389 318 LINE",
"389 362 LINE",
"566 362 LINE"
);
},
{
closed = 1;
nodes = (
"700 590 LINE SMOOTH",
"700 562 OFFCURVE",
"678 540 OFFCURVE",
"650 540 CURVE SMOOTH",
"623 540 OFFCURVE",
"600 562 OFFCURVE",
"600 590 CURVE SMOOTH",
"600 660 LINE SMOOTH",
"600 687 OFFCURVE",
"623 710 OFFCURVE",
"650 710 CURVE SMOOTH",
"678 710 OFFCURVE",
"700 687 OFFCURVE",
"700 660 CURVE SMOOTH"
);
},
{
closed = 1;
nodes = (
"361 590 LINE SMOOTH",
"361 562 OFFCURVE",
"338 540 OFFCURVE",
"311 540 CURVE SMOOTH",
"283 540 OFFCURVE",
"261 562 OFFCURVE",
"261 590 CURVE SMOOTH",
"261 660 LINE SMOOTH",
"261 687 OFFCURVE",
"283 710 OFFCURVE",
"311 710 CURVE SMOOTH",
"338 710 OFFCURVE",
"361 687 OFFCURVE",
"361 660 CURVE SMOOTH"
);
}
);
width = 960;
}
);
unicode = E032;
},
{
glyphname = sf.calendar.day.o;
lastChange = "2014-08-08 16:43:51 +0000";
layers = (
{
layerId = "7BDE272C-C7FB-4166-8673-7B6B584E769E";
name = Regular;
paths = (
{
closed = 1;
nodes = (
"910 18 LINE SMOOTH",
"910 3 OFFCURVE",
"897 -10 OFFCURVE",
"882 -10 CURVE SMOOTH",
"78 -10 LINE SMOOTH",
"63 -10 OFFCURVE",
"50 3 OFFCURVE",
"50 18 CURVE SMOOTH",
"50 592 LINE SMOOTH",
"50 607 OFFCURVE",
"63 620 OFFCURVE",
"78 620 CURVE SMOOTH",
"122 620 LINE SMOOTH",
"137 620 OFFCURVE",
"150 607 OFFCURVE",
"150 592 CURVE SMOOTH",
"150 90 LINE",
"810 90 LINE",
"810 592 LINE SMOOTH",
"810 607 OFFCURVE",
"823 620 OFFCURVE",
"838 620 CURVE SMOOTH",
"882 620 LINE SMOOTH",
"897 620 OFFCURVE",
"910 607 OFFCURVE",
"910 592 CURVE SMOOTH"
);
},
{
closed = 1;
nodes = (
"360 590 LINE SMOOTH",
"360 562 OFFCURVE",
"338 540 OFFCURVE",
"310 540 CURVE SMOOTH",
"282 540 OFFCURVE",
"260 562 OFFCURVE",
"260 590 CURVE SMOOTH",
"260 660 LINE SMOOTH",
"260 688 OFFCURVE",
"282 710 OFFCURVE",
"310 710 CURVE SMOOTH",
"338 710 OFFCURVE",
"360 688 OFFCURVE",
"360 660 CURVE SMOOTH"
);
},
{
closed = 1;
nodes = (
"700 590 LINE SMOOTH",
"700 562 OFFCURVE",
"678 540 OFFCURVE",
"650 540 CURVE SMOOTH",
"622 540 OFFCURVE",
"600 562 OFFCURVE",
"600 590 CURVE SMOOTH",
"600 660 LINE SMOOTH",
"600 688 OFFCURVE",
"622 710 OFFCURVE",
"650 710 CURVE SMOOTH",
"678 710 OFFCURVE",
"700 688 OFFCURVE",
"700 660 CURVE SMOOTH"
);
},
{
closed = 1;
nodes = (
"578 399 LINE",
"554 372 OFFCURVE",
"537 345 OFFCURVE",
"528 318 CURVE",
"517 291 OFFCURVE",
"512 259 OFFCURVE",
"508 222 CURVE SMOOTH",
"506 198 LINE",
"449 198 LINE",
"451 222 LINE SMOOTH",
"456 291 OFFCURVE",
"481 352 OFFCURVE",
"524 399 CURVE",
"402 399 LINE",
"402 443 LINE",
"578 443 LINE"
);
}
);
width = 960;
}
);
unicode = E033;
},
{
glyphname = sf.calendar.o;
lastChange = "2014-08-08 16:43:55 +0000";
layers = (
{
layerId = "7BDE272C-C7FB-4166-8673-7B6B584E769E";
name = Regular;
paths = (
{
closed = 1;
nodes = (
"910 18 LINE SMOOTH",
"910 3 OFFCURVE",
"897 -10 OFFCURVE",
"882 -10 CURVE SMOOTH",
"78 -10 LINE SMOOTH",
"63 -10 OFFCURVE",
"50 3 OFFCURVE",
"50 18 CURVE SMOOTH",
"50 592 LINE SMOOTH",
"50 607 OFFCURVE",
"63 620 OFFCURVE",
"78 620 CURVE SMOOTH",
"122 620 LINE SMOOTH",
"137 620 OFFCURVE",
"150 607 OFFCURVE",
"150 592 CURVE SMOOTH",
"150 90 LINE",
"810 90 LINE",
"810 592 LINE SMOOTH",
"810 607 OFFCURVE",
"823 620 OFFCURVE",
"838 620 CURVE SMOOTH",
"882 620 LINE SMOOTH",
"897 620 OFFCURVE",
"910 607 OFFCURVE",
"910 592 CURVE SMOOTH"
);
},
{
closed = 1;
nodes = (
"360 590 LINE SMOOTH",
"360 562 OFFCURVE",
"338 540 OFFCURVE",
"310 540 CURVE SMOOTH",
"282 540 OFFCURVE",
"260 562 OFFCURVE",
"260 590 CURVE SMOOTH",
"260 660 LINE SMOOTH",
"260 688 OFFCURVE",
"282 710 OFFCURVE",
"310 710 CURVE SMOOTH",
"338 710 OFFCURVE",
"360 688 OFFCURVE",
"360 660 CURVE SMOOTH"
);
},
{
closed = 1;
nodes = (
"700 590 LINE SMOOTH",
"700 562 OFFCURVE",
"678 540 OFFCURVE",
"650 540 CURVE SMOOTH",
"622 540 OFFCURVE",
"600 562 OFFCURVE",
"600 590 CURVE SMOOTH",
"600 660 LINE SMOOTH",
"600 688 OFFCURVE",
"622 710 OFFCURVE",
"650 710 CURVE SMOOTH",
"678 710 OFFCURVE",
"700 688 OFFCURVE",
"700 660 CURVE SMOOTH"
);
},
{
closed = 1;
nodes = (
"339 370 LINE",
"239 370 LINE",
"239 470 LINE",
"339 470 LINE"
);
},
{
closed = 1;
nodes = (
"530 370 LINE",
"430 370 LINE",
"430 470 LINE",
"530 470 LINE"
);
},
{
closed = 1;
nodes = (
"719 370 LINE",
"619 370 LINE",
"619 470 LINE",
"719 470 LINE"
);
},
{
closed = 1;
nodes = (
"340 180 LINE",
"240 180 LINE",
"240 280 LINE",
"340 280 LINE"
);
},
{
closed = 1;
nodes = (
"531 180 LINE",
"431 180 LINE",
"431 280 LINE",
"531 280 LINE"
);
},
{
closed = 1;
nodes = (
"720 180 LINE",
"620 180 LINE",
"620 280 LINE",
"720 280 LINE"
);
}
);
width = 960;
}
);
unicode = E031;
},
{
glyphname = sf.alarm.clock;
lastChange = "2014-08-08 16:44:08 +0000";
layers = (
{
layerId = "7BDE272C-C7FB-4166-8673-7B6B584E769E";
name = Regular;
paths = (
{
closed = 1;
nodes = (
"864 421 OFFCURVE",
"874 370 OFFCURVE",
"874 315 CURVE SMOOTH",
"874 206 OFFCURVE",
"831 108 OFFCURVE",
"759 36 CURVE SMOOTH",
"686 -37 OFFCURVE",
"588 -80 OFFCURVE",
"479 -80 CURVE SMOOTH",
"370 -80 OFFCURVE",
"272 -37 OFFCURVE",
"200 35 CURVE SMOOTH",
"127 108 OFFCURVE",
"84 206 OFFCURVE",
"84 315 CURVE SMOOTH",
"84 424 OFFCURVE",
"127 522 OFFCURVE",
"199 594 CURVE SMOOTH",
"272 667 OFFCURVE",
"370 710 OFFCURVE",
"479 710 CURVE SMOOTH",
"588 710 OFFCURVE",
"686 667 OFFCURVE",
"758 595 CURVE SMOOTH",
"795 558 OFFCURVE",
"823 516 OFFCURVE",
"843 469 CURVE SMOOTH"
);
},
{
closed = 1;
nodes = (
"657 155 OFFCURVE",
"661 165 OFFCURVE",
"661 178 CURVE SMOOTH",
"661 191 OFFCURVE",
"657 202 OFFCURVE",
"648 211 CURVE SMOOTH",
"525 334 LINE",
"525 508 LINE SMOOTH",
"525 533 OFFCURVE",
"504 554 OFFCURVE",
"479 554 CURVE SMOOTH",
"454 554 OFFCURVE",
"433 533 OFFCURVE",
"433 508 CURVE SMOOTH",
"433 315 LINE SMOOTH",
"433 300 OFFCURVE",
"439 288 OFFCURVE",
"450 280 CURVE",
"583 146 LINE SMOOTH",
"592 137 OFFCURVE",
"603 132 OFFCURVE",
"615 132 CURVE SMOOTH",
"628 132 OFFCURVE",
"639 137 OFFCURVE",
"648 146 CURVE SMOOTH"
);
},
{
closed = 1;
nodes = (
"632 768 OFFCURVE",
"664 778 OFFCURVE",
"699 780 CURVE",
"708 780 LINE SMOOTH",
"761 780 OFFCURVE",
"810 760 OFFCURVE",
"846 726 CURVE SMOOTH",
"882 692 OFFCURVE",
"905 643 OFFCURVE",
"908 590 CURVE",
"908 578 LINE SMOOTH",
"908 547 OFFCURVE",
"901 518 OFFCURVE",
"888 490 CURVE",
"864 554 OFFCURVE",
"825 610 OFFCURVE",
"776 654 CURVE SMOOTH",
"727 698 OFFCURVE",
"667 732 OFFCURVE",
"602 749 CURVE"
);
},
{
closed = 1;
nodes = (
"291 732 OFFCURVE",
"231 698 OFFCURVE",
"182 654 CURVE SMOOTH",
"133 610 OFFCURVE",
"94 554 OFFCURVE",
"70 490 CURVE",
"57 518 OFFCURVE",
"50 547 OFFCURVE",
"50 578 CURVE SMOOTH",
"50 590 LINE",
"53 643 OFFCURVE",
"76 692 OFFCURVE",
"112 726 CURVE SMOOTH",
"148 760 OFFCURVE",
"197 780 OFFCURVE",
"250 780 CURVE SMOOTH",
"259 780 LINE",
"294 778 OFFCURVE",
"326 768 OFFCURVE",
"356 749 CURVE"
);
}
);
width = 958;
}
);
unicode = E038;
},
{
glyphname = sf.alarm.clock.o;
lastChange = "2014-08-11 11:34:34 +0000";
layers = (
{
hints = (
{
origin = "{0, 11}";
target = "{1, 11}";
},
{
origin = "{1, 23}";
target = "{0, 23}";
},
{
horizontal = 1;
origin = "{0, 17}";
target = "{1, 5}";
},
{
horizontal = 1;
origin = "{0, 5}";
target = "{1, 17}";
},
{
origin = "{2, 7}";
target = "{2, 1}";
},
{
horizontal = 1;
origin = "{0, 5}";
target = down;
type = TopGhost;
},
{
horizontal = 1;
origin = "{0, 17}";
target = up;
type = BottomGhost;
}
);
layerId = "7BDE272C-C7FB-4166-8673-7B6B584E769E";
name = Regular;
paths = (
{
closed = 1;
nodes = (
"803 564 OFFCURVE",
"728 639 OFFCURVE",
"633 679 CURVE SMOOTH",
"585 700 OFFCURVE",
"534 710 OFFCURVE",
"479 710 CURVE SMOOTH",
"370 710 OFFCURVE",
"272 667 OFFCURVE",
"199 594 CURVE SMOOTH",
"127 522 OFFCURVE",
"84 424 OFFCURVE",
"84 315 CURVE SMOOTH",
"84 206 OFFCURVE",
"127 108 OFFCURVE",
"200 35 CURVE SMOOTH",
"272 -37 OFFCURVE",
"370 -80 OFFCURVE",
"479 -80 CURVE SMOOTH",
"588 -80 OFFCURVE",
"686 -37 OFFCURVE",
"759 36 CURVE SMOOTH",
"831 108 OFFCURVE",
"874 206 OFFCURVE",
"874 315 CURVE SMOOTH",
"874 370 OFFCURVE",
"864 421 OFFCURVE",
"843 469 CURVE SMOOTH"
);
},
{
closed = 1;
nodes = (
"729 126 OFFCURVE",
"668 65 OFFCURVE",
"597 36 CURVE SMOOTH",
"560 20 OFFCURVE",
"520 12 OFFCURVE",
"479 12 CURVE SMOOTH",
"395 12 OFFCURVE",
"322 44 OFFCURVE",
"265 101 CURVE SMOOTH",
"208 158 OFFCURVE",
"176 231 OFFCURVE",
"176 315 CURVE SMOOTH",
"176 398 OFFCURVE",
"208 472 OFFCURVE",
"265 529 CURVE SMOOTH",
"322 586 OFFCURVE",
"395 618 OFFCURVE",
"479 618 CURVE SMOOTH",
"562 618 OFFCURVE",
"636 586 OFFCURVE",
"693 529 CURVE SMOOTH",
"750 472 OFFCURVE",
"782 398 OFFCURVE",
"782 315 CURVE SMOOTH",
"782 273 OFFCURVE",
"774 234 OFFCURVE",
"758 197 CURVE SMOOTH"
);
},
{
closed = 1;
nodes = (
"525 334 LINE",
"525 508 LINE SMOOTH",
"525 533 OFFCURVE",
"504 554 OFFCURVE",
"479 554 CURVE SMOOTH",
"454 554 OFFCURVE",
"433 533 OFFCURVE",
"433 508 CURVE SMOOTH",
"433 315 LINE SMOOTH",
"433 300 OFFCURVE",
"439 288 OFFCURVE",
"450 280 CURVE",
"583 146 LINE SMOOTH",
"592 137 OFFCURVE",
"603 132 OFFCURVE",
"615 132 CURVE SMOOTH",
"640 132 OFFCURVE",
"661 153 OFFCURVE",
"661 178 CURVE SMOOTH",
"661 191 OFFCURVE",
"657 202 OFFCURVE",
"648 211 CURVE SMOOTH"
);
},
{
closed = 1;
nodes = (
"632 768 OFFCURVE",
"664 778 OFFCURVE",
"699 780 CURVE",
"708 780 LINE SMOOTH",
"761 780 OFFCURVE",
"810 760 OFFCURVE",
"846 726 CURVE SMOOTH",
"882 692 OFFCURVE",
"905 643 OFFCURVE",
"908 590 CURVE",
"908 578 LINE SMOOTH",
"908 547 OFFCURVE",
"901 518 OFFCURVE",
"888 490 CURVE",
"864 554 OFFCURVE",
"825 610 OFFCURVE",
"776 654 CURVE SMOOTH",
"727 698 OFFCURVE",
"667 732 OFFCURVE",
"602 749 CURVE"
);
},
{
closed = 1;
nodes = (
"326 768 OFFCURVE",
"294 778 OFFCURVE",
"259 780 CURVE",
"250 780 LINE SMOOTH",
"197 780 OFFCURVE",
"148 760 OFFCURVE",
"112 726 CURVE SMOOTH",
"76 692 OFFCURVE",
"53 643 OFFCURVE",
"50 590 CURVE",
"50 578 LINE SMOOTH",
"50 547 OFFCURVE",
"57 518 OFFCURVE",
"70 490 CURVE",
"94 554 OFFCURVE",
"133 610 OFFCURVE",
"182 654 CURVE SMOOTH",
"231 698 OFFCURVE",
"291 732 OFFCURVE",
"356 749 CURVE"
);
}
);
width = 958;
}
);
unicode = E039;
},
{
glyphname = sf.clock;
lastChange = "2014-08-08 16:49:57 +0000";
layers = (
{
layerId = "7BDE272C-C7FB-4166-8673-7B6B584E769E";
name = Regular;
paths = (
{
closed = 1;
nodes = (
"899 465 OFFCURVE",
"910 409 OFFCURVE",
"910 350 CURVE SMOOTH",
"910 233 OFFCURVE",
"864 125 OFFCURVE",
"785 46 CURVE SMOOTH",
"705 -34 OFFCURVE",
"596 -80 OFFCURVE",
"480 -80 CURVE SMOOTH",
"363 -80 OFFCURVE",
"255 -34 OFFCURVE",
"176 45 CURVE SMOOTH",
"96 125 OFFCURVE",
"50 233 OFFCURVE",
"50 350 CURVE SMOOTH",
"50 466 OFFCURVE",
"96 575 OFFCURVE",
"175 654 CURVE SMOOTH",
"255 734 OFFCURVE",
"363 780 OFFCURVE",
"480 780 CURVE SMOOTH",
"596 780 OFFCURVE",
"705 734 OFFCURVE",
"784 655 CURVE SMOOTH",
"825 614 OFFCURVE",
"855 568 OFFCURVE",
"876 517 CURVE SMOOTH"
);
},
{
closed = 1;
nodes = (
"673 177 OFFCURVE",
"678 188 OFFCURVE",
"678 201 CURVE SMOOTH",
"678 214 OFFCURVE",
"673 226 OFFCURVE",
"664 237 CURVE",
"530 371 LINE",
"530 560 LINE SMOOTH",
"530 588 OFFCURVE",
"508 610 OFFCURVE",
"480 610 CURVE SMOOTH",
"452 610 OFFCURVE",
"430 588 OFFCURVE",
"430 560 CURVE SMOOTH",
"430 350 LINE SMOOTH",
"430 335 OFFCURVE",
"436 322 OFFCURVE",
"448 311 CURVE",
"593 166 LINE SMOOTH",
"602 157 OFFCURVE",
"614 152 OFFCURVE",
"628 152 CURVE SMOOTH",
"643 152 OFFCURVE",
"655 157 OFFCURVE",
"664 166 CURVE"
);
}
);
width = 960;
}
);
unicode = E034;
},
{
glyphname = sf.clock.o;
lastChange = "2014-08-08 16:50:18 +0000";
layers = (
{
layerId = "7BDE272C-C7FB-4166-8673-7B6B584E769E";
name = Regular;
paths = (
{
closed = 1;
nodes = (
"899 465 OFFCURVE",
"910 409 OFFCURVE",
"910 350 CURVE SMOOTH",
"910 233 OFFCURVE",
"864 125 OFFCURVE",
"785 46 CURVE SMOOTH",
"705 -34 OFFCURVE",
"596 -80 OFFCURVE",
"480 -80 CURVE SMOOTH",
"363 -80 OFFCURVE",
"255 -34 OFFCURVE",
"176 45 CURVE SMOOTH",
"96 125 OFFCURVE",
"50 233 OFFCURVE",
"50 350 CURVE SMOOTH",
"50 466 OFFCURVE",
"96 575 OFFCURVE",
"175 654 CURVE SMOOTH",
"255 734 OFFCURVE",
"363 780 OFFCURVE",
"480 780 CURVE SMOOTH",
"596 780 OFFCURVE",
"705 734 OFFCURVE",
"784 655 CURVE SMOOTH",
"825 614 OFFCURVE",
"855 568 OFFCURVE",
"876 517 CURVE SMOOTH"
);
},
{
closed = 1;
nodes = (
"801 263 OFFCURVE",
"810 305 OFFCURVE",
"810 350 CURVE SMOOTH",
"810 439 OFFCURVE",
"773 524 OFFCURVE",
"714 583 CURVE SMOOTH",
"654 643 OFFCURVE",
"569 680 OFFCURVE",
"480 680 CURVE SMOOTH",
"391 680 OFFCURVE",
"306 643 OFFCURVE",
"247 584 CURVE SMOOTH",
"187 524 OFFCURVE",
"150 439 OFFCURVE",
"150 350 CURVE SMOOTH",
"150 261 OFFCURVE",
"187 176 OFFCURVE",
"246 117 CURVE SMOOTH",
"306 57 OFFCURVE",
"391 20 OFFCURVE",
"480 20 CURVE SMOOTH",
"569 20 OFFCURVE",
"654 57 OFFCURVE",
"713 116 CURVE SMOOTH",
"743 146 OFFCURVE",
"767 181 OFFCURVE",
"784 222 CURVE SMOOTH"
);
},
{
closed = 1;
nodes = (
"655 157 OFFCURVE",
"643 152 OFFCURVE",
"628 152 CURVE SMOOTH",
"614 152 OFFCURVE",
"602 157 OFFCURVE",
"593 166 CURVE SMOOTH",
"448 311 LINE",
"436 322 OFFCURVE",
"430 335 OFFCURVE",
"430 350 CURVE SMOOTH",
"430 560 LINE SMOOTH",
"430 588 OFFCURVE",
"452 610 OFFCURVE",
"480 610 CURVE SMOOTH",
"508 610 OFFCURVE",
"530 588 OFFCURVE",
"530 560 CURVE SMOOTH",
"530 371 LINE",
"664 237 LINE",
"673 226 OFFCURVE",
"678 214 OFFCURVE",
"678 201 CURVE SMOOTH",
"678 188 OFFCURVE",
"673 177 OFFCURVE",
"664 166 CURVE"
);
}
);
width = 960;
}
);
unicode = E035;
},
{
glyphname = sf.clock.reverse;
lastChange = "2014-08-08 16:50:24 +0000";
layers = (
{
layerId = "7BDE272C-C7FB-4166-8673-7B6B584E769E";
name = Regular;
paths = (
{
closed = 1;
nodes = (
"734 157 OFFCURVE",
"722 152 OFFCURVE",
"708 152 CURVE SMOOTH",
"693 152 OFFCURVE",
"682 157 OFFCURVE",
"673 166 CURVE SMOOTH",
"528 311 LINE",
"516 321 OFFCURVE",
"510 334 OFFCURVE",
"510 350 CURVE SMOOTH",
"510 560 LINE SMOOTH",
"510 588 OFFCURVE",
"532 610 OFFCURVE",
"560 610 CURVE SMOOTH",
"587 610 OFFCURVE",
"610 588 OFFCURVE",
"610 560 CURVE SMOOTH",
"610 371 LINE",
"743 237 LINE SMOOTH",
"753 227 OFFCURVE",
"758 215 OFFCURVE",
"758 201 CURVE SMOOTH",
"758 188 OFFCURVE",
"753 176 OFFCURVE",
"743 166 CURVE SMOOTH"
);
},
{
closed = 1;
nodes = (
"979 462 OFFCURVE",
"990 407 OFFCURVE",
"990 350 CURVE SMOOTH",
"990 237 OFFCURVE",
"943 125 OFFCURVE",
"864 46 CURVE SMOOTH",
"783 -35 OFFCURVE",
"683 -76 OFFCURVE",
"572 -80 CURVE",
"565 -80 OFFCURVE",
"560 -75 OFFCURVE",
"560 -68 CURVE SMOOTH",
"560 8 LINE SMOOTH",
"560 16 OFFCURVE",
"564 20 OFFCURVE",
"571 20 CURVE SMOOTH",
"651 21 OFFCURVE",
"733 56 OFFCURVE",
"793 117 CURVE SMOOTH",
"853 177 OFFCURVE",
"890 262 OFFCURVE",
"890 350 CURVE SMOOTH",
"890 439 OFFCURVE",
"854 522 OFFCURVE",
"793 583 CURVE SMOOTH",
"762 614 OFFCURVE",
"727 637 OFFCURVE",
"688 654 CURVE SMOOTH",
"646 671 OFFCURVE",
"603 680 OFFCURVE",
"560 680 CURVE SMOOTH",
"472 680 OFFCURVE",
"386 643 OFFCURVE",
"326 583 CURVE SMOOTH",
"295 552 OFFCURVE",
"272 517 OFFCURVE",
"255 478 CURVE SMOOTH",
"238 438 OFFCURVE",
"230 394 OFFCURVE",
"230 350 CURVE",
"298 350 LINE SMOOTH",
"304 350 OFFCURVE",
"308 348 OFFCURVE",
"309 343 CURVE",
"310 342 OFFCURVE",
"310 340 OFFCURVE",
"310 338 CURVE SMOOTH",
"310 335 OFFCURVE",
"309 332 OFFCURVE",
"307 329 CURVE",
"189 211 LINE SMOOTH",
"187 209 OFFCURVE",
"184 208 OFFCURVE",
"180 208 CURVE SMOOTH",
"177 208 OFFCURVE",
"174 209 OFFCURVE",
"172 211 CURVE SMOOTH",
"54 329 LINE SMOOTH",
"51 332 OFFCURVE",
"50 335 OFFCURVE",
"50 338 CURVE SMOOTH",
"50 340 OFFCURVE",
"50 342 OFFCURVE",
"51 343 CURVE",
"53 348 OFFCURVE",
"57 350 OFFCURVE",
"62 350 CURVE SMOOTH",
"130 350 LINE",
"130 466 OFFCURVE",
"175 573 OFFCURVE",
"256 654 CURVE SMOOTH",
"295 693 OFFCURVE",
"341 724 OFFCURVE",
"392 746 CURVE SMOOTH",
"445 769 OFFCURVE",
"501 780 OFFCURVE",
"560 780 CURVE SMOOTH",
"679 780 OFFCURVE",
"784 733 OFFCURVE",
"863 654 CURVE SMOOTH",
"904 613 OFFCURVE",
"935 568 OFFCURVE",
"956 517 CURVE SMOOTH"
);
}
);
width = 1040;
}
);
unicode = E03A;
},
{
glyphname = sf.stopwatch;
lastChange = "2014-08-08 16:50:31 +0000";
layers = (
{
layerId = "7BDE272C-C7FB-4166-8673-7B6B584E769E";
name = Regular;
paths = (
{
closed = 1;
nodes = (
"395 730 LINE",
"395 758 OFFCURVE",
"417 780 OFFCURVE",
"445 780 CURVE SMOOTH",
"473 780 OFFCURVE",
"495 758 OFFCURVE",
"495 727 CURVE",
"479 729 OFFCURVE",
"462 730 OFFCURVE",
"445 730 CURVE SMOOTH"
);
},
{
closed = 1;
nodes = (
"612 695 OFFCURVE",
"597 702 OFFCURVE",
"581 707 CURVE",
"583 710 LINE",
"591 729 OFFCURVE",
"608 738 OFFCURVE",
"627 738 CURVE SMOOTH",
"643 738 OFFCURVE",
"661 730 OFFCURVE",
"671 715 CURVE SMOOTH",
"676 707 OFFCURVE",
"678 698 OFFCURVE",
"678 689 CURVE SMOOTH",
"678 681 OFFCURVE",
"676 673 OFFCURVE",
"672 665 CURVE",
"671 662 LINE",
"656 671 OFFCURVE",
"642 680 OFFCURVE",
"627 687 CURVE"
);
},
{
closed = 1;
nodes = (
"830 421 OFFCURVE",
"840 370 OFFCURVE",
"840 315 CURVE SMOOTH",
"840 206 OFFCURVE",
"797 108 OFFCURVE",
"725 36 CURVE SMOOTH",
"652 -37 OFFCURVE",
"554 -80 OFFCURVE",
"445 -80 CURVE SMOOTH",
"336 -80 OFFCURVE",
"238 -37 OFFCURVE",
"166 35 CURVE SMOOTH",
"93 108 OFFCURVE",
"50 206 OFFCURVE",
"50 315 CURVE SMOOTH",
"50 424 OFFCURVE",
"93 522 OFFCURVE",
"165 594 CURVE SMOOTH",
"238 667 OFFCURVE",
"336 710 OFFCURVE",
"445 710 CURVE SMOOTH",
"554 710 OFFCURVE",
"652 667 OFFCURVE",
"724 595 CURVE SMOOTH",
"761 558 OFFCURVE",
"789 516 OFFCURVE",
"809 469 CURVE SMOOTH"
);
},
{
closed = 1;
nodes = (
"491 508 LINE SMOOTH",
"491 533 OFFCURVE",
"470 554 OFFCURVE",
"445 554 CURVE SMOOTH",
"420 554 OFFCURVE",
"399 533 OFFCURVE",
"399 508 CURVE SMOOTH",
"399 338 LINE SMOOTH",
"399 313 OFFCURVE",
"420 292 OFFCURVE",
"445 292 CURVE SMOOTH",
"470 292 OFFCURVE",
"491 313 OFFCURVE",
"491 338 CURVE SMOOTH"
);
}
);
width = 890;
}
);
unicode = E036;
},
{
glyphname = sf.stopwatch.o;
lastChange = "2014-08-08 16:50:45 +0000";
layers = (
{
layerId = "7BDE272C-C7FB-4166-8673-7B6B584E769E";
name = Regular;
paths = (
{
closed = 1;
nodes = (
"395 730 LINE",
"395 758 OFFCURVE",
"417 780 OFFCURVE",
"445 780 CURVE SMOOTH",
"473 780 OFFCURVE",
"495 758 OFFCURVE",
"495 727 CURVE",
"479 729 OFFCURVE",
"462 730 OFFCURVE",
"445 730 CURVE SMOOTH"
);
},
{
closed = 1;
nodes = (
"830 421 OFFCURVE",
"840 370 OFFCURVE",
"840 315 CURVE SMOOTH",
"840 206 OFFCURVE",
"797 108 OFFCURVE",
"725 36 CURVE SMOOTH",
"652 -37 OFFCURVE",
"554 -80 OFFCURVE",
"445 -80 CURVE SMOOTH",
"336 -80 OFFCURVE",
"238 -37 OFFCURVE",
"166 35 CURVE SMOOTH",
"93 108 OFFCURVE",
"50 206 OFFCURVE",
"50 315 CURVE SMOOTH",
"50 424 OFFCURVE",
"93 522 OFFCURVE",
"165 594 CURVE SMOOTH",
"238 667 OFFCURVE",
"336 710 OFFCURVE",
"445 710 CURVE SMOOTH",
"554 710 OFFCURVE",
"652 667 OFFCURVE",
"724 595 CURVE SMOOTH",
"761 558 OFFCURVE",
"789 516 OFFCURVE",
"809 469 CURVE SMOOTH"
);
},
{
closed = 1;
nodes = (
"740 234 OFFCURVE",
"748 273 OFFCURVE",
"748 315 CURVE SMOOTH",
"748 398 OFFCURVE",
"716 472 OFFCURVE",
"659 529 CURVE SMOOTH",
"602 586 OFFCURVE",
"528 618 OFFCURVE",
"445 618 CURVE SMOOTH",
"361 618 OFFCURVE",
"288 586 OFFCURVE",
"231 529 CURVE SMOOTH",
"174 472 OFFCURVE",
"142 398 OFFCURVE",
"142 315 CURVE SMOOTH",
"142 231 OFFCURVE",
"174 158 OFFCURVE",
"231 101 CURVE SMOOTH",
"288 44 OFFCURVE",
"361 12 OFFCURVE",
"445 12 CURVE SMOOTH",
"528 12 OFFCURVE",
"602 44 OFFCURVE",
"659 101 CURVE SMOOTH",
"688 130 OFFCURVE",
"709 162 OFFCURVE",
"724 197 CURVE SMOOTH"
);
},
{
closed = 1;
nodes = (
"612 695 OFFCURVE",
"597 702 OFFCURVE",
"581 707 CURVE",
"583 710 LINE",
"591 729 OFFCURVE",
"608 738 OFFCURVE",
"627 738 CURVE SMOOTH",
"643 738 OFFCURVE",
"661 730 OFFCURVE",
"671 715 CURVE SMOOTH",
"676 707 OFFCURVE",
"678 698 OFFCURVE",
"678 689 CURVE SMOOTH",
"678 681 OFFCURVE",
"676 673 OFFCURVE",
"672 665 CURVE",
"671 662 LINE",
"656 671 OFFCURVE",
"642 680 OFFCURVE",
"627 687 CURVE"
);
},
{
closed = 1;
nodes = (
"470 554 OFFCURVE",
"491 533 OFFCURVE",
"491 508 CURVE SMOOTH",
"491 338 LINE SMOOTH",
"491 313 OFFCURVE",
"470 292 OFFCURVE",
"445 292 CURVE SMOOTH",
"420 292 OFFCURVE",
"399 313 OFFCURVE",
"399 338 CURVE SMOOTH",
"399 508 LINE SMOOTH",
"399 533 OFFCURVE",
"420 554 OFFCURVE",
"445 554 CURVE SMOOTH"
);
}
);
width = 890;
}
);
unicode = E037;
},
{
glyphname = sf.dribbble;
lastChange = "2014-08-08 16:51:02 +0000";
layers = (
{
layerId = "7BDE272C-C7FB-4166-8673-7B6B584E769E";
name = Regular;
paths = (
{
closed = 1;
nodes = (
"50 752 OFFCURVE",
"78 780 OFFCURVE",
"113 780 CURVE SMOOTH",
"841 780 LINE SMOOTH",
"876 780 OFFCURVE",
"905 752 OFFCURVE",
"905 718 CURVE SMOOTH",
"905 -18 LINE SMOOTH",
"905 -52 OFFCURVE",
"876 -80 OFFCURVE",
"841 -80 CURVE SMOOTH",
"113 -80 LINE SMOOTH",
"78 -80 OFFCURVE",
"50 -52 OFFCURVE",
"50 -18 CURVE SMOOTH",
"50 718 LINE SMOOTH"
);
},
{
closed = 1;
nodes = (
"636 63 OFFCURVE",
"765 191 OFFCURVE",
"765 350 CURVE SMOOTH",
"765 509 OFFCURVE",
"636 637 OFFCURVE",
"477 637 CURVE SMOOTH",
"319 637 OFFCURVE",
"189 509 OFFCURVE",
"189 350 CURVE SMOOTH",
"189 191 OFFCURVE",
"319 63 OFFCURVE",
"477 63 CURVE SMOOTH"
);
},
{
closed = 1;
nodes = (
"622 210 OFFCURVE",
"611 254 OFFCURVE",
"594 304 CURVE",
"602 305 OFFCURVE",
"610 305 OFFCURVE",
"618 305 CURVE SMOOTH",
"651 305 OFFCURVE",
"680 300 OFFCURVE",
"697 296 CURVE",
"686 252 OFFCURVE",
"662 212 OFFCURVE",
"628 182 CURVE"
);
},
{
closed = 1;
nodes = (
"432 124 OFFCURVE",
"390 137 OFFCURVE",
"353 162 CURVE",
"359 172 OFFCURVE",
"371 187 OFFCURVE",
"387 204 CURVE SMOOTH",
"420 238 OFFCURVE",
"461 265 OFFCURVE",
"509 284 CURVE",
"532 220 OFFCURVE",
"545 165 OFFCURVE",
"551 136 CURVE",
"527 128 OFFCURVE",
"503 124 OFFCURVE",
"477 124 CURVE SMOOTH"
);
},
{
closed = 1;
nodes = (
"268 254 OFFCURVE",
"254 295 OFFCURVE",
"252 337 CURVE",
"291 338 OFFCURVE",
"380 343 OFFCURVE",
"474 368 CURVE",
"475 366 OFFCURVE",
"476 364 OFFCURVE",
"477 362 CURVE",
"382 328 OFFCURVE",
"320 257 OFFCURVE",
"293 219 CURVE"
);
},
{
closed = 1;
nodes = (
"280 473 OFFCURVE",
"318 518 OFFCURVE",
"367 546 CURVE",
"381 526 OFFCURVE",
"407 488 OFFCURVE",
"433 443 CURVE",
"361 426 OFFCURVE",
"298 422 OFFCURVE",
"263 420 CURVE"
);
},
{
closed = 1;
nodes = (
"496 513 OFFCURVE",
"471 550 OFFCURVE",
"455 574 CURVE",
"462 575 OFFCURVE",
"470 575 OFFCURVE",
"477 575 CURVE SMOOTH",
"526 575 OFFCURVE",
"573 559 OFFCURVE",
"612 531 CURVE",
"597 515 OFFCURVE",
"568 490 OFFCURVE",
"520 470 CURVE"
);
},
{
closed = 1;
nodes = (
"680 379 OFFCURVE",
"646 383 OFFCURVE",
"609 383 CURVE SMOOTH",
"593 383 OFFCURVE",
"579 383 OFFCURVE",
"565 381 CURVE",
"562 387 OFFCURVE",
"560 392 OFFCURVE",
"557 398 CURVE",
"612 423 OFFCURVE",
"647 453 OFFCURVE",
"666 473 CURVE",
"685 444 OFFCURVE",
"697 411 OFFCURVE",
"702 376 CURVE"
);
}
);
width = 955;
}
);
unicode = E03C;
},
{
glyphname = sf.facebook;
lastChange = "2014-08-08 16:51:05 +0000";
layers = (
{
layerId = "7BDE272C-C7FB-4166-8673-7B6B584E769E";
name = Regular;
paths = (
{
closed = 1;
nodes = (
"114 780 LINE SMOOTH",
"78 780 OFFCURVE",
"50 752 OFFCURVE",
"50 718 CURVE SMOOTH",
"50 -18 LINE SMOOTH",
"50 -52 OFFCURVE",
"78 -80 OFFCURVE",
"114 -80 CURVE SMOOTH",
"530 -80 LINE",
"530 249 LINE",
"420 249 LINE",
"420 377 LINE",
"530 377 LINE",
"530 471 LINE SMOOTH",
"530 581 OFFCURVE",
"597 640 OFFCURVE",
"695 640 CURVE SMOOTH",
"742 640 OFFCURVE",
"782 637 OFFCURVE",
"794 635 CURVE",
"794 521 LINE",
"726 521 LINE SMOOTH",
"673 521 OFFCURVE",
"663 496 OFFCURVE",
"663 459 CURVE SMOOTH",
"663 377 LINE",
"789 377 LINE",
"773 249 LINE",
"663 249 LINE",
"663 -80 LINE",
"846 -80 LINE SMOOTH",
"882 -80 OFFCURVE",
"910 -52 OFFCURVE",
"910 -18 CURVE SMOOTH",
"910 718 LINE SMOOTH",
"910 752 OFFCURVE",
"882 780 OFFCURVE",
"846 780 CURVE SMOOTH"
);
}
);
width = 960;
}
);
unicode = E03D;
},
{
glyphname = sf.google.plus;
lastChange = "2014-08-08 16:51:08 +0000";
layers = (
{
hints = (
{
origin = "{4, 2}";
target = "{4, 1}";
},
{
horizontal = 1;
origin = "{4, 10}";
target = "{4, 11}";
},
{
horizontal = 1;
origin = "{0, 2}";
target = down;
type = TopGhost;
},
{
horizontal = 1;
origin = "{0, 11}";
target = up;
type = BottomGhost;
},
{
origin = "{1, 10}";
target = "{3, 4}";
},
{
origin = "{1, 25}";
target = "{1, 68}";
},
{
origin = "{2, 35}";
target = "{1, 56}";
},
{
origin = "{1, 43}";
target = "{2, 8}";
},
{
origin = "{1, 49}";
target = "{2, 2}";
},
{
horizontal = 1;
origin = "{1, 95}";
target = "{1, 0}";
}
);
layerId = "7BDE272C-C7FB-4166-8673-7B6B584E769E";
name = Regular;
paths = (
{
closed = 1;
nodes = (
"50 752 OFFCURVE",
"78 780 OFFCURVE",
"113 780 CURVE SMOOTH",
"841 780 LINE SMOOTH",
"876 780 OFFCURVE",
"905 752 OFFCURVE",
"905 718 CURVE SMOOTH",
"905 -18 LINE SMOOTH",
"905 -52 OFFCURVE",
"876 -80 OFFCURVE",
"841 -80 CURVE SMOOTH",
"113 -80 LINE SMOOTH",
"78 -80 OFFCURVE",
"50 -52 OFFCURVE",
"50 -18 CURVE SMOOTH",
"50 718 LINE SMOOTH"
);
},
{
closed = 1;
nodes = (
"587 642 LINE",
"432 642 LINE SMOOTH",
"412 642 OFFCURVE",
"390 640 OFFCURVE",
"366 635 CURVE SMOOTH",
"343 629 OFFCURVE",
"320 617 OFFCURVE",
"298 599 CURVE",
"266 568 OFFCURVE",
"249 534 OFFCURVE",
"249 496 CURVE SMOOTH",
"249 464 OFFCURVE",
"261 437 OFFCURVE",
"283 413 CURVE",
"305 388 OFFCURVE",
"337 375 OFFCURVE",
"378 374 CURVE SMOOTH",
"386 374 OFFCURVE",
"394 375 OFFCURVE",
"403 376 CURVE",
"401 372 OFFCURVE",
"400 367 OFFCURVE",
"398 362 CURVE",
"396 358 OFFCURVE",
"395 352 OFFCURVE",
"395 345 CURVE SMOOTH",
"395 334 OFFCURVE",
"398 324 OFFCURVE",
"403 316 CURVE",
"407 308 OFFCURVE",
"412 300 OFFCURVE",
"418 292 CURVE",
"400 292 OFFCURVE",
"377 290 OFFCURVE",
"349 286 CURVE SMOOTH",
"322 281 OFFCURVE",
"295 271 OFFCURVE",
"270 257 CURVE SMOOTH",
"248 244 OFFCURVE",
"233 228 OFFCURVE",
"224 210 CURVE SMOOTH",
"215 193 OFFCURVE",
"211 177 OFFCURVE",
"211 163 CURVE SMOOTH",
"211 133 OFFCURVE",
"224 108 OFFCURVE",
"251 87 CURVE",
"278 64 OFFCURVE",
"319 52 OFFCURVE",
"373 52 CURVE SMOOTH",
"438 53 OFFCURVE",
"487 68 OFFCURVE",
"522 98 CURVE SMOOTH",
"555 127 OFFCURVE",
"572 161 OFFCURVE",
"572 198 CURVE",
"571 225 OFFCURVE",
"565 246 OFFCURVE",
"553 263 CURVE",
"541 279 OFFCURVE",
"527 293 OFFCURVE",
"510 307 CURVE SMOOTH",
"484 328 LINE",
"480 332 OFFCURVE",
"476 336 OFFCURVE",
"472 342 CURVE",
"468 347 OFFCURVE",
"465 354 OFFCURVE",
"465 362 CURVE SMOOTH",
"465 370 OFFCURVE",
"468 377 OFFCURVE",
"472 383 CURVE",
"476 390 OFFCURVE",
"480 395 OFFCURVE",
"485 400 CURVE",
"493 407 OFFCURVE",
"501 414 OFFCURVE",
"508 421 CURVE",
"514 427 OFFCURVE",
"521 435 OFFCURVE",
"526 443 CURVE SMOOTH",
"538 459 OFFCURVE",
"544 482 OFFCURVE",
"545 509 CURVE SMOOTH",
"545 525 OFFCURVE",
"543 538 OFFCURVE",
"540 549 CURVE",
"535 560 OFFCURVE",
"531 570 OFFCURVE",
"525 579 CURVE SMOOTH",
"520 587 OFFCURVE",
"514 595 OFFCURVE",
"508 601 CURVE",
"502 607 OFFCURVE",
"497 611 OFFCURVE",
"492 614 CURVE",
"540 614 LINE"
);
},
{
closed = 1;
nodes = (
"474 93 OFFCURVE",
"446 85 OFFCURVE",
"410 84 CURVE SMOOTH",
"369 85 OFFCURVE",
"337 94 OFFCURVE",
"314 112 CURVE SMOOTH",
"289 129 OFFCURVE",
"277 152 OFFCURVE",
"277 179 CURVE SMOOTH",
"277 193 OFFCURVE",
"279 205 OFFCURVE",
"285 214 CURVE",
"290 224 OFFCURVE",
"296 232 OFFCURVE",
"303 238 CURVE",
"311 244 OFFCURVE",
"318 249 OFFCURVE",
"325 252 CURVE SMOOTH",
"332 255 OFFCURVE",
"338 257 OFFCURVE",
"342 259 CURVE",
"359 264 OFFCURVE",
"375 267 OFFCURVE",
"391 270 CURVE",
"407 271 OFFCURVE",
"417 272 OFFCURVE",
"421 271 CURVE",
"428 271 OFFCURVE",
"434 271 OFFCURVE",
"439 270 CURVE",
"468 250 OFFCURVE",
"489 233 OFFCURVE",
"502 219 CURVE",
"515 205 OFFCURVE",
"522 188 OFFCURVE",
"522 168 CURVE SMOOTH",
"522 144 OFFCURVE",
"512 124 OFFCURVE",
"494 109 CURVE SMOOTH"
);
},
{
closed = 1;
nodes = (
"358 420 OFFCURVE",
"348 432 OFFCURVE",
"340 446 CURVE SMOOTH",
"323 476 OFFCURVE",
"315 505 OFFCURVE",
"315 533 CURVE",
"315 555 OFFCURVE",
"320 574 OFFCURVE",
"332 591 CURVE",
"346 607 OFFCURVE",
"363 616 OFFCURVE",
"384 616 CURVE",
"400 616 OFFCURVE",
"414 611 OFFCURVE",
"427 602 CURVE",
"439 593 OFFCURVE",
"448 581 OFFCURVE",
"456 566 CURVE SMOOTH",
"471 535 OFFCURVE",
"479 504 OFFCURVE",
"479 474 CURVE SMOOTH",
"479 466 OFFCURVE",
"478 458 OFFCURVE",
"477 447 CURVE",
"475 437 OFFCURVE",
"471 427 OFFCURVE",
"465 417 CURVE",
"451 403 OFFCURVE",
"434 396 OFFCURVE",
"414 395 CURVE",
"397 395 OFFCURVE",
"383 400 OFFCURVE",
"371 410 CURVE SMOOTH"
);
},
{
closed = 1;
nodes = (
"737 406 LINE",
"737 487 LINE",
"677 487 LINE",
"677 406 LINE",
"595 406 LINE",
"595 346 LINE",
"677 346 LINE",
"677 265 LINE",
"737 265 LINE",
"737 346 LINE",
"818 346 LINE",
"818 406 LINE"
);
}
);
width = 955;
}
);
unicode = E055;
},
{
glyphname = sf.linkedin;
lastChange = "2014-08-08 16:51:13 +0000";
layers = (
{
layerId = "7BDE272C-C7FB-4166-8673-7B6B584E769E";
name = Regular;
paths = (
{
closed = 1;
nodes = (
"50 752 OFFCURVE",
"78 780 OFFCURVE",
"113 780 CURVE SMOOTH",
"841 780 LINE SMOOTH",
"876 780 OFFCURVE",
"904 752 OFFCURVE",
"904 718 CURVE SMOOTH",
"904 -18 LINE SMOOTH",
"904 -52 OFFCURVE",
"876 -80 OFFCURVE",
"841 -80 CURVE SMOOTH",
"113 -80 LINE SMOOTH",
"78 -80 OFFCURVE",
"50 -52 OFFCURVE",
"50 -18 CURVE SMOOTH",
"50 718 LINE SMOOTH"
);
},
{
closed = 1;
nodes = (
"308 449 LINE",
"178 449 LINE",
"178 58 LINE",
"308 58 LINE"
);
},
{
closed = 1;
nodes = (
"288 502 OFFCURVE",
"316 532 OFFCURVE",
"316 570 CURVE",
"315 608 OFFCURVE",
"288 637 OFFCURVE",
"244 637 CURVE SMOOTH",
"199 637 OFFCURVE",
"170 608 OFFCURVE",
"170 570 CURVE SMOOTH",
"170 532 OFFCURVE",
"198 502 OFFCURVE",
"242 502 CURVE SMOOTH",
"243 502 LINE SMOOTH"
);
},
{
closed = 1;
nodes = (
"509 58 LINE",
"509 276 LINE SMOOTH",
"509 288 OFFCURVE",
"510 300 OFFCURVE",
"514 308 CURVE SMOOTH",
"523 332 OFFCURVE",
"544 356 OFFCURVE",
"580 356 CURVE SMOOTH",
"627 356 OFFCURVE",
"646 320 OFFCURVE",
"646 267 CURVE SMOOTH",
"646 58 LINE",
"776 58 LINE",
"776 282 LINE SMOOTH",
"776 402 OFFCURVE",
"712 458 OFFCURVE",
"627 458 CURVE SMOOTH",
"556 458 OFFCURVE",
"526 419 OFFCURVE",
"509 392 CURVE",
"509 392 LINE",
"509 449 LINE",
"380 449 LINE",
"381 412 OFFCURVE",
"380 58 OFFCURVE",
"380 58 CURVE"
);
}
);
width = 954;
}
);
unicode = E03B;
},
{
glyphname = sf.twitter;
lastChange = "2014-08-08 16:51:16 +0000";
layers = (
{
layerId = "7BDE272C-C7FB-4166-8673-7B6B584E769E";
name = Regular;
paths = (
{
closed = 1;
nodes = (
"50 752 OFFCURVE",
"78 780 OFFCURVE",
"113 780 CURVE SMOOTH",
"841 780 LINE SMOOTH",
"876 780 OFFCURVE",
"905 752 OFFCURVE",
"905 718 CURVE SMOOTH",
"905 -18 LINE SMOOTH",
"905 -52 OFFCURVE",
"876 -80 OFFCURVE",
"841 -80 CURVE SMOOTH",
"113 -80 LINE SMOOTH",
"78 -80 OFFCURVE",
"50 -52 OFFCURVE",
"50 -18 CURVE SMOOTH",
"50 718 LINE SMOOTH"
);
},
{
closed = 1;
nodes = (
"747 521 OFFCURVE",
"724 514 OFFCURVE",
"699 511 CURVE",
"724 526 OFFCURVE",
"743 550 OFFCURVE",
"752 577 CURVE",
"729 564 OFFCURVE",
"703 554 OFFCURVE",
"676 549 CURVE",
"654 572 OFFCURVE",
"623 586 OFFCURVE",
"589 586 CURVE SMOOTH",
"523 586 OFFCURVE",
"470 533 OFFCURVE",
"470 467 CURVE SMOOTH",
"470 458 OFFCURVE",
"471 448 OFFCURVE",
"473 440 CURVE",
"374 445 OFFCURVE",
"286 492 OFFCURVE",
"227 564 CURVE",
"217 547 OFFCURVE",
"211 526 OFFCURVE",
"211 504 CURVE SMOOTH",
"211 463 OFFCURVE",
"232 427 OFFCURVE",
"264 405 CURVE",
"245 406 OFFCURVE",
"226 411 OFFCURVE",
"210 420 CURVE",
"210 420 OFFCURVE",
"210 419 OFFCURVE",
"210 419 CURVE SMOOTH",
"210 361 OFFCURVE",
"251 313 OFFCURVE",
"306 302 CURVE",
"296 299 OFFCURVE",
"285 297 OFFCURVE",
"274 297 CURVE SMOOTH",
"267 297 OFFCURVE",
"259 298 OFFCURVE",
"252 300 CURVE",
"267 252 OFFCURVE",
"311 218 OFFCURVE",
"363 217 CURVE",
"322 185 OFFCURVE",
"271 166 OFFCURVE",
"215 166 CURVE SMOOTH",
"206 166 OFFCURVE",
"196 166 OFFCURVE",
"187 167 CURVE",
"239 134 OFFCURVE",
"302 114 OFFCURVE",
"369 114 CURVE SMOOTH",
"589 114 OFFCURVE",
"709 296 OFFCURVE",
"709 453 CURVE SMOOTH",
"709 458 OFFCURVE",
"709 463 OFFCURVE",
"708 469 CURVE",
"732 485 OFFCURVE",
"752 506 OFFCURVE",
"768 530 CURVE"
);
}
);
width = 955;
}
);
unicode = E03E;
},
{
glyphname = sf.comment;
lastChange = "2014-08-08 16:51:28 +0000";
layers = (
{
layerId = "7BDE272C-C7FB-4166-8673-7B6B584E769E";
name = Regular;
paths = (
{
closed = 1;
nodes = (
"239 -30 OFFCURVE",
"233 -28 OFFCURVE",
"226 -25 CURVE",
"216 -17 OFFCURVE",
"211 -8 OFFCURVE",
"211 2 CURVE SMOOTH",
"211 5 OFFCURVE",
"211 8 OFFCURVE",
"212 9 CURVE",
"246 101 LINE",
"217 101 LINE SMOOTH",
"173 101 OFFCURVE",
"131 118 OFFCURVE",
"99 150 CURVE SMOOTH",
"68 181 OFFCURVE",
"50 223 OFFCURVE",
"50 267 CURVE SMOOTH",
"50 566 LINE SMOOTH",
"50 611 OFFCURVE",
"69 653 OFFCURVE",
"99 682 CURVE SMOOTH",
"129 711 OFFCURVE",
"169 730 OFFCURVE",
"216 730 CURVE SMOOTH",
"744 730 LINE SMOOTH",
"788 730 OFFCURVE",
"830 713 OFFCURVE",
"861 682 CURVE SMOOTH",
"892 651 OFFCURVE",
"910 610 OFFCURVE",
"910 566 CURVE SMOOTH",
"910 266 LINE SMOOTH",
"910 221 OFFCURVE",
"892 180 OFFCURVE",
"862 150 CURVE SMOOTH",
"832 120 OFFCURVE",
"790 101 OFFCURVE",
"745 101 CURVE SMOOTH",
"411 101 LINE",
"263 -24 LINE SMOOTH",
"258 -28 OFFCURVE",
"252 -30 OFFCURVE",
"245 -30 CURVE SMOOTH"
);
}
);
width = 960;
}
);
unicode = E03F;
},
{
glyphname = sf.comment.o;
lastChange = "2014-08-08 16:51:35 +0000";
layers = (
{
layerId = "7BDE272C-C7FB-4166-8673-7B6B584E769E";
name = Regular;
paths = (
{
closed = 1;
nodes = (
"239 -30 OFFCURVE",
"233 -28 OFFCURVE",
"226 -25 CURVE",
"216 -17 OFFCURVE",
"211 -8 OFFCURVE",
"211 2 CURVE SMOOTH",
"211 5 OFFCURVE",
"211 8 OFFCURVE",
"212 9 CURVE",
"246 101 LINE",
"217 101 LINE SMOOTH",
"173 101 OFFCURVE",
"131 118 OFFCURVE",
"99 150 CURVE SMOOTH",
"68 181 OFFCURVE",
"50 223 OFFCURVE",
"50 267 CURVE SMOOTH",
"50 566 LINE SMOOTH",
"50 611 OFFCURVE",
"69 653 OFFCURVE",
"99 682 CURVE SMOOTH",
"129 711 OFFCURVE",
"171 730 OFFCURVE",
"216 730 CURVE SMOOTH",
"744 730 LINE SMOOTH",
"788 730 OFFCURVE",
"830 713 OFFCURVE",
"861 682 CURVE SMOOTH",
"892 651 OFFCURVE",
"910 610 OFFCURVE",
"910 566 CURVE SMOOTH",
"910 266 LINE SMOOTH",
"910 221 OFFCURVE",
"892 180 OFFCURVE",
"862 150 CURVE SMOOTH",
"832 120 OFFCURVE",
"790 101 OFFCURVE",
"745 101 CURVE SMOOTH",
"411 101 LINE",
"263 -24 LINE SMOOTH",
"258 -28 OFFCURVE",
"252 -30 OFFCURVE",
"245 -30 CURVE SMOOTH"
);
},
{
closed = 1;
nodes = (
"745 181 LINE SMOOTH",
"792 181 OFFCURVE",
"830 219 OFFCURVE",
"830 266 CURVE SMOOTH",
"830 566 LINE SMOOTH",
"830 587 OFFCURVE",
"821 609 OFFCURVE",
"804 625 CURVE SMOOTH",
"787 642 OFFCURVE",
"767 650 OFFCURVE",
"744 650 CURVE SMOOTH",
"216 650 LINE SMOOTH",
"192 650 OFFCURVE",
"171 641 OFFCURVE",
"156 626 CURVE SMOOTH",
"140 610 OFFCURVE",
"130 589 OFFCURVE",
"130 566 CURVE SMOOTH",
"130 267 LINE SMOOTH",
"130 219 OFFCURVE",
"170 181 OFFCURVE",
"217 181 CURVE SMOOTH"
);
}
);
width = 960;
}
);
unicode = E040;
},
{
glyphname = sf.reply;
lastChange = "2014-08-08 16:51:42 +0000";
layers = (
{
layerId = "7BDE272C-C7FB-4166-8673-7B6B584E769E";
name = Regular;
paths = (
{
closed = 1;
nodes = (
"486 447 LINE SMOOTH",
"462 447 OFFCURVE",
"441 437 OFFCURVE",
"426 422 CURVE SMOOTH",
"410 406 OFFCURVE",
"400 384 OFFCURVE",
"400 360 CURVE SMOOTH",
"400 179 LINE SMOOTH",
"400 172 OFFCURVE",
"397 169 OFFCURVE",
"390 169 CURVE SMOOTH",
"355 169 LINE",
"233 66 LINE",
"228 63 OFFCURVE",
"222 61 OFFCURVE",
"217 61 CURVE SMOOTH",
"214 61 OFFCURVE",
"209 62 OFFCURVE",
"202 65 CURVE",
"193 72 OFFCURVE",
"189 79 OFFCURVE",
"189 88 CURVE SMOOTH",
"189 91 OFFCURVE",
"189 93 OFFCURVE",
"190 94 CURVE",
"218 169 LINE",
"180 169 LINE SMOOTH",
"144 169 OFFCURVE",
"112 184 OFFCURVE",
"88 208 CURVE SMOOTH",
"64 231 OFFCURVE",
"50 263 OFFCURVE",
"50 299 CURVE SMOOTH",
"50 596 LINE SMOOTH",
"50 632 OFFCURVE",
"64 664 OFFCURVE",
"88 688 CURVE SMOOTH",
"112 712 OFFCURVE",
"144 726 OFFCURVE",
"180 726 CURVE SMOOTH",
"681 726 LINE SMOOTH",
"717 726 OFFCURVE",
"749 712 OFFCURVE",
"773 688 CURVE SMOOTH",
"797 664 OFFCURVE",
"811 632 OFFCURVE",
"811 596 CURVE SMOOTH",
"811 457 LINE SMOOTH",
"811 450 OFFCURVE",
"808 447 OFFCURVE",
"801 447 CURVE SMOOTH"
);
},
{
closed = 1;
nodes = (
"540 367 LINE SMOOTH",
"507 367 OFFCURVE",
"480 340 OFFCURVE",
"480 307 CURVE SMOOTH",
"480 126 LINE SMOOTH",
"480 93 OFFCURVE",
"507 66 OFFCURVE",
"540 66 CURVE SMOOTH",
"702 66 LINE",
"805 -21 LINE",
"810 -24 OFFCURVE",
"816 -26 OFFCURVE",
"821 -26 CURVE SMOOTH",
"826 -26 OFFCURVE",
"831 -25 OFFCURVE",
"836 -22 CURVE",
"845 -15 OFFCURVE",
"849 -8 OFFCURVE",
"849 1 CURVE SMOOTH",
"849 4 OFFCURVE",
"849 6 OFFCURVE",
"848 7 CURVE",
"827 66 LINE",
"850 66 LINE SMOOTH",
"883 66 OFFCURVE",
"910 93 OFFCURVE",
"910 126 CURVE SMOOTH",
"910 307 LINE SMOOTH",
"910 340 OFFCURVE",
"883 367 OFFCURVE",
"850 367 CURVE SMOOTH"
);
}
);
width = 960;
}
);
unicode = E041;
},
{
glyphname = sf.reply.o;
lastChange = "2014-08-08 16:51:49 +0000";
layers = (
{
layerId = "7BDE272C-C7FB-4166-8673-7B6B584E769E";
name = Regular;
paths = (
{
closed = 1;
nodes = (
"540 367 LINE SMOOTH",
"507 367 OFFCURVE",
"480 340 OFFCURVE",
"480 307 CURVE SMOOTH",
"480 126 LINE SMOOTH",
"480 93 OFFCURVE",
"507 66 OFFCURVE",
"540 66 CURVE SMOOTH",
"702 66 LINE",
"805 -21 LINE",
"810 -24 OFFCURVE",
"816 -26 OFFCURVE",
"821 -26 CURVE SMOOTH",
"826 -26 OFFCURVE",
"831 -25 OFFCURVE",
"836 -22 CURVE",
"845 -15 OFFCURVE",
"849 -8 OFFCURVE",
"849 1 CURVE SMOOTH",
"849 4 OFFCURVE",
"849 6 OFFCURVE",
"848 7 CURVE",
"827 66 LINE",
"850 66 LINE SMOOTH",
"883 66 OFFCURVE",
"910 93 OFFCURVE",
"910 126 CURVE SMOOTH",
"910 307 LINE SMOOTH",
"910 340 OFFCURVE",
"883 367 OFFCURVE",
"850 367 CURVE SMOOTH"
);
},
{
closed = 1;
nodes = (
"811 457 LINE SMOOTH",
"811 450 OFFCURVE",
"808 447 OFFCURVE",
"801 447 CURVE SMOOTH",
"741 447 LINE SMOOTH",
"734 447 OFFCURVE",
"731 450 OFFCURVE",
"731 457 CURVE SMOOTH",
"731 596 LINE SMOOTH",
"731 623 OFFCURVE",
"709 646 OFFCURVE",
"681 646 CURVE SMOOTH",
"180 646 LINE SMOOTH",
"152 646 OFFCURVE",
"130 623 OFFCURVE",
"130 596 CURVE SMOOTH",
"130 299 LINE SMOOTH",
"130 272 OFFCURVE",
"152 249 OFFCURVE",
"180 249 CURVE SMOOTH",
"390 249 LINE SMOOTH",
"397 249 OFFCURVE",
"400 246 OFFCURVE",
"400 239 CURVE SMOOTH",
"400 179 LINE SMOOTH",
"400 172 OFFCURVE",
"397 169 OFFCURVE",
"390 169 CURVE SMOOTH",
"355 169 LINE",
"233 66 LINE",
"228 63 OFFCURVE",
"222 61 OFFCURVE",
"217 61 CURVE SMOOTH",
"214 61 OFFCURVE",
"209 62 OFFCURVE",
"202 65 CURVE",
"193 72 OFFCURVE",
"189 79 OFFCURVE",
"189 88 CURVE SMOOTH",
"189 91 OFFCURVE",
"189 93 OFFCURVE",
"190 94 CURVE",
"218 169 LINE",
"180 169 LINE SMOOTH",
"144 169 OFFCURVE",
"112 184 OFFCURVE",
"88 208 CURVE SMOOTH",
"64 231 OFFCURVE",
"50 263 OFFCURVE",
"50 299 CURVE SMOOTH",
"50 596 LINE SMOOTH",
"50 632 OFFCURVE",
"64 664 OFFCURVE",
"88 688 CURVE SMOOTH",
"112 712 OFFCURVE",
"144 726 OFFCURVE",
"180 726 CURVE SMOOTH",
"681 726 LINE SMOOTH",
"717 726 OFFCURVE",
"749 712 OFFCURVE",
"773 688 CURVE SMOOTH",
"797 664 OFFCURVE",
"811 632 OFFCURVE",
"811 596 CURVE SMOOTH"
);
}
);
width = 960;
}
);
unicode = E042;
},
{
glyphname = sf.compass;
lastChange = "2014-08-08 16:52:03 +0000";
layers = (
{
layerId = "7BDE272C-C7FB-4166-8673-7B6B584E769E";
name = Regular;
paths = (
{
closed = 1;
nodes = (
"855 569 OFFCURVE",
"824 615 OFFCURVE",
"784 654 CURVE SMOOTH",
"745 694 OFFCURVE",
"699 725 OFFCURVE",
"647 746 CURVE SMOOTH",
"594 769 OFFCURVE",
"538 780 OFFCURVE",
"480 780 CURVE SMOOTH",
"422 780 OFFCURVE",
"366 769 OFFCURVE",
"313 746 CURVE SMOOTH",
"261 725 OFFCURVE",
"215 694 OFFCURVE",
"176 654 CURVE SMOOTH",
"136 615 OFFCURVE",
"105 569 OFFCURVE",
"84 517 CURVE SMOOTH",
"61 464 OFFCURVE",
"50 408 OFFCURVE",
"50 350 CURVE SMOOTH",
"50 292 OFFCURVE",
"61 236 OFFCURVE",
"84 183 CURVE SMOOTH",
"105 131 OFFCURVE",
"136 85 OFFCURVE",
"176 46 CURVE SMOOTH",
"215 6 OFFCURVE",
"261 -25 OFFCURVE",
"313 -46 CURVE SMOOTH",
"366 -69 OFFCURVE",
"422 -80 OFFCURVE",
"480 -80 CURVE SMOOTH",
"538 -80 OFFCURVE",
"594 -69 OFFCURVE",
"647 -46 CURVE SMOOTH",
"699 -25 OFFCURVE",
"745 6 OFFCURVE",
"784 46 CURVE SMOOTH",
"824 85 OFFCURVE",
"855 131 OFFCURVE",
"876 183 CURVE SMOOTH",
"899 236 OFFCURVE",
"910 292 OFFCURVE",
"910 350 CURVE SMOOTH",
"910 408 OFFCURVE",
"899 464 OFFCURVE",
"876 517 CURVE SMOOTH"
);
},
{
closed = 1;
nodes = (
"296 166 LINE",
"431 399 LINE",
"664 534 LINE",
"529 301 LINE"
);
},
{
closed = 1;
nodes = (
"444 386 LINE",
"346 216 LINE",
"516 314 LINE"
);
}
);
width = 960;
}
);
unicode = E043;
},
{
glyphname = sf.compass.o;
lastChange = "2014-08-08 16:52:09 +0000";
layers = (
{
layerId = "7BDE272C-C7FB-4166-8673-7B6B584E769E";
name = Regular;
paths = (
{
closed = 1;
nodes = (
"855 569 OFFCURVE",
"824 615 OFFCURVE",
"784 654 CURVE SMOOTH",
"745 694 OFFCURVE",
"699 725 OFFCURVE",
"647 746 CURVE SMOOTH",
"594 769 OFFCURVE",
"538 780 OFFCURVE",
"480 780 CURVE SMOOTH",
"422 780 OFFCURVE",
"366 769 OFFCURVE",
"313 746 CURVE SMOOTH",
"261 725 OFFCURVE",
"215 694 OFFCURVE",
"176 654 CURVE SMOOTH",
"136 615 OFFCURVE",
"105 569 OFFCURVE",
"84 517 CURVE SMOOTH",
"61 464 OFFCURVE",
"50 408 OFFCURVE",
"50 350 CURVE SMOOTH",
"50 292 OFFCURVE",
"61 236 OFFCURVE",
"84 183 CURVE SMOOTH",
"105 131 OFFCURVE",
"136 85 OFFCURVE",
"176 46 CURVE SMOOTH",
"215 6 OFFCURVE",
"261 -25 OFFCURVE",
"313 -46 CURVE SMOOTH",
"366 -69 OFFCURVE",
"422 -80 OFFCURVE",
"480 -80 CURVE SMOOTH",
"538 -80 OFFCURVE",
"594 -69 OFFCURVE",
"647 -46 CURVE SMOOTH",
"699 -25 OFFCURVE",
"745 6 OFFCURVE",
"784 46 CURVE SMOOTH",
"824 85 OFFCURVE",
"855 131 OFFCURVE",
"876 183 CURVE SMOOTH",
"899 236 OFFCURVE",
"910 292 OFFCURVE",
"910 350 CURVE SMOOTH",
"910 408 OFFCURVE",
"899 464 OFFCURVE",
"876 517 CURVE SMOOTH"
);
},
{
closed = 1;
nodes = (
"767 182 OFFCURVE",
"744 147 OFFCURVE",
"713 117 CURVE SMOOTH",
"683 86 OFFCURVE",
"648 63 OFFCURVE",
"608 46 CURVE SMOOTH",
"568 29 OFFCURVE",
"525 20 OFFCURVE",
"480 20 CURVE SMOOTH",
"435 20 OFFCURVE",
"392 29 OFFCURVE",
"352 46 CURVE SMOOTH",
"312 63 OFFCURVE",
"277 86 OFFCURVE",
"247 117 CURVE SMOOTH",
"216 147 OFFCURVE",
"193 182 OFFCURVE",
"176 222 CURVE SMOOTH",
"159 262 OFFCURVE",
"150 305 OFFCURVE",
"150 350 CURVE SMOOTH",
"150 395 OFFCURVE",
"159 438 OFFCURVE",
"176 478 CURVE SMOOTH",
"193 518 OFFCURVE",
"216 553 OFFCURVE",
"247 583 CURVE SMOOTH",
"277 614 OFFCURVE",
"312 637 OFFCURVE",
"352 654 CURVE SMOOTH",
"392 671 OFFCURVE",
"435 680 OFFCURVE",
"480 680 CURVE SMOOTH",
"525 680 OFFCURVE",
"568 671 OFFCURVE",
"608 654 CURVE SMOOTH",
"648 637 OFFCURVE",
"683 614 OFFCURVE",
"713 583 CURVE SMOOTH",
"744 553 OFFCURVE",
"767 518 OFFCURVE",
"784 478 CURVE SMOOTH",
"801 438 OFFCURVE",
"810 395 OFFCURVE",
"810 350 CURVE SMOOTH",
"810 305 OFFCURVE",
"801 262 OFFCURVE",
"784 222 CURVE SMOOTH"
);
},
{
closed = 1;
nodes = (
"501 329 LINE",
"401 271 LINE",
"459 371 LINE",
"431 399 LINE",
"296 166 LINE",
"529 301 LINE"
);
},
{
closed = 1;
nodes = (
"664 534 LINE",
"431 399 LINE",
"529 301 LINE"
);
}
);
width = 960;
}
);
unicode = E044;
},
{
glyphname = sf.direction;
lastChange = "2014-08-08 16:52:15 +0000";
layers = (
{
layerId = "7BDE272C-C7FB-4166-8673-7B6B584E769E";
name = Regular;
paths = (
{
closed = 1;
nodes = (
"912 756 OFFCURVE",
"910 766 OFFCURVE",
"903 773 CURVE SMOOTH",
"897 780 OFFCURVE",
"886 782 OFFCURVE",
"878 777 CURVE SMOOTH",
"62 371 LINE SMOOTH",
"53 366 OFFCURVE",
"48 356 OFFCURVE",
"50 346 CURVE SMOOTH",
"53 336 OFFCURVE",
"62 329 OFFCURVE",
"72 329 CURVE SMOOTH",
"437 329 LINE SMOOTH",
"449 329 OFFCURVE",
"459 319 OFFCURVE",
"459 307 CURVE SMOOTH",
"459 -58 LINE SMOOTH",
"459 -68 OFFCURVE",
"466 -77 OFFCURVE",
"476 -80 CURVE SMOOTH",
"486 -82 OFFCURVE",
"496 -77 OFFCURVE",
"501 -68 CURVE SMOOTH",
"907 748 LINE SMOOTH"
);
}
);
width = 959.777;
}
);
unicode = E045;
},
{
glyphname = sf.direction.o;
lastChange = "2014-08-08 16:52:31 +0000";
layers = (
{
layerId = "7BDE272C-C7FB-4166-8673-7B6B584E769E";
name = Regular;
paths = (
{
closed = 1;
nodes = (
"912 756 OFFCURVE",
"910 766 OFFCURVE",
"903 773 CURVE SMOOTH",
"897 780 OFFCURVE",
"886 782 OFFCURVE",
"878 777 CURVE SMOOTH",
"62 371 LINE SMOOTH",
"53 366 OFFCURVE",
"48 356 OFFCURVE",
"50 346 CURVE SMOOTH",
"53 336 OFFCURVE",
"62 329 OFFCURVE",
"72 329 CURVE SMOOTH",
"437 329 LINE SMOOTH",
"449 329 OFFCURVE",
"459 319 OFFCURVE",
"459 307 CURVE SMOOTH",
"459 -58 LINE SMOOTH",
"459 -68 OFFCURVE",
"466 -77 OFFCURVE",
"476 -80 CURVE SMOOTH",
"486 -82 OFFCURVE",
"496 -77 OFFCURVE",
"501 -68 CURVE SMOOTH",
"907 748 LINE SMOOTH"
);
},
{
closed = 1;
nodes = (
"764 634 LINE",
"537 178 LINE",
"537 384 LINE SMOOTH",
"537 397 OFFCURVE",
"527 407 OFFCURVE",
"514 407 CURVE SMOOTH",
"308 407 LINE"
);
}
);
width = 959.777;
}
);
unicode = E046;
},
{
glyphname = sf.poi;
lastChange = "2014-08-08 16:52:37 +0000";
layers = (
{
layerId = "7BDE272C-C7FB-4166-8673-7B6B584E769E";
name = Regular;
paths = (
{
closed = 1;
nodes = (
"540 671 OFFCURVE",
"430 780 OFFCURVE",
"295 780 CURVE SMOOTH",
"160 780 OFFCURVE",
"50 671 OFFCURVE",
"50 535 CURVE SMOOTH",
"50 518 OFFCURVE",
"52 501 OFFCURVE",
"55 484 CURVE",
"69 442 LINE",
"70 439 OFFCURVE",
"71 436 OFFCURVE",
"72 433 CURVE",
"276 -68 LINE SMOOTH",
"280 -75 OFFCURVE",
"287 -80 OFFCURVE",
"295 -80 CURVE SMOOTH",
"303 -80 OFFCURVE",
"310 -75 OFFCURVE",
"314 -68 CURVE SMOOTH",
"518 433 LINE",
"519 436 OFFCURVE",
"520 439 OFFCURVE",
"521 442 CURVE",
"535 484 LINE",
"538 501 OFFCURVE",
"540 518 OFFCURVE",
"540 535 CURVE SMOOTH"
);
},
{
closed = 1;
nodes = (
"215 390 OFFCURVE",
"150 455 OFFCURVE",
"150 535 CURVE SMOOTH",
"150 615 OFFCURVE",
"215 680 OFFCURVE",
"295 680 CURVE SMOOTH",
"375 680 OFFCURVE",
"440 615 OFFCURVE",
"440 535 CURVE SMOOTH",
"440 455 OFFCURVE",
"375 390 OFFCURVE",
"295 390 CURVE SMOOTH"
);
}
);
width = 590;
}
);
unicode = E047;
},
{
glyphname = sf.poi.o;
lastChange = "2014-08-08 16:52:43 +0000";
layers = (
{
layerId = "7BDE272C-C7FB-4166-8673-7B6B584E769E";
name = Regular;
paths = (
{
closed = 1;
nodes = (
"311 -75 OFFCURVE",
"303 -80 OFFCURVE",
"295 -80 CURVE SMOOTH",
"287 -80 OFFCURVE",
"280 -75 OFFCURVE",
"277 -68 CURVE SMOOTH",
"72 433 LINE",
"71 436 OFFCURVE",
"70 439 OFFCURVE",
"69 441 CURVE SMOOTH",
"68 443 LINE",
"56 482 LINE",
"55 484 LINE SMOOTH",
"52 501 OFFCURVE",
"50 518 OFFCURVE",
"50 535 CURVE SMOOTH",
"50 600 OFFCURVE",
"76 662 OFFCURVE",
"122 708 CURVE SMOOTH",
"168 755 OFFCURVE",
"230 780 OFFCURVE",
"295 780 CURVE SMOOTH",
"361 780 OFFCURVE",
"422 755 OFFCURVE",
"469 708 CURVE SMOOTH",
"515 662 OFFCURVE",
"540 600 OFFCURVE",
"540 535 CURVE SMOOTH",
"540 518 OFFCURVE",
"539 501 OFFCURVE",
"535 484 CURVE SMOOTH",
"535 482 LINE",
"523 443 LINE",
"522 441 LINE SMOOTH",
"521 438 OFFCURVE",
"520 436 OFFCURVE",
"518 433 CURVE",
"314 -68 LINE SMOOTH"
);
},
{
closed = 1;
nodes = (
"147 470 OFFCURVE",
"147 469 OFFCURVE",
"148 468 CURVE SMOOTH",
"148 467 LINE",
"295 96 LINE",
"443 467 LINE",
"443 468 LINE SMOOTH",
"443 469 OFFCURVE",
"444 470 OFFCURVE",
"444 471 CURVE",
"454 503 LINE",
"456 513 OFFCURVE",
"457 524 OFFCURVE",
"457 535 CURVE SMOOTH",
"457 624 OFFCURVE",
"385 697 OFFCURVE",
"295 697 CURVE SMOOTH",
"206 697 OFFCURVE",
"133 624 OFFCURVE",
"133 535 CURVE SMOOTH",
"133 524 OFFCURVE",
"134 513 OFFCURVE",
"136 503 CURVE",
"146 471 LINE"
);
},
{
closed = 1;
nodes = (
"380 489 OFFCURVE",
"342 451 OFFCURVE",
"295 451 CURVE SMOOTH",
"248 451 OFFCURVE",
"210 489 OFFCURVE",
"210 536 CURVE SMOOTH",
"210 583 OFFCURVE",
"248 621 OFFCURVE",
"295 621 CURVE SMOOTH",
"342 621 OFFCURVE",
"380 583 OFFCURVE",
"380 536 CURVE SMOOTH"
);
}
);
width = 590;
}
);
unicode = E048;
},
{
glyphname = sf.star;
lastChange = "2014-08-08 16:52:50 +0000";
layers = (
{
layerId = "7BDE272C-C7FB-4166-8673-7B6B584E769E";
name = Regular;
paths = (
{
closed = 1;
nodes = (
"223 -80 LINE",
"276 231 LINE",
"50 452 LINE",
"362 497 LINE",
"502 780 LINE",
"642 497 LINE",
"954 452 LINE",
"728 231 LINE",
"782 -80 LINE",
"502 67 LINE"
);
}
);
width = 1004;
}
);
unicode = E049;
},
{
glyphname = sf.star.o;
lastChange = "2014-08-08 16:52:57 +0000";
layers = (
{
layerId = "7BDE272C-C7FB-4166-8673-7B6B584E769E";
name = Regular;
paths = (
{
closed = 1;
nodes = (
"642 497 LINE",
"502 780 LINE",
"362 497 LINE",
"50 452 LINE",
"276 231 LINE",
"223 -80 LINE",
"502 67 LINE",
"782 -80 LINE",
"728 231 LINE",
"954 452 LINE"
);
},
{
closed = 1;
nodes = (
"356 103 LINE",
"384 266 LINE",
"265 382 LINE",
"429 406 LINE",
"502 554 LINE",
"575 406 LINE",
"739 382 LINE",
"621 266 LINE",
"649 103 LINE",
"502 180 LINE"
);
}
);
width = 1004;
}
);
unicode = E04A;
},
{
glyphname = sf.half.star;
lastChange = "2014-08-08 16:53:11 +0000";
layers = (
{
layerId = "7BDE272C-C7FB-4166-8673-7B6B584E769E";
name = Regular;
paths = (
{
closed = 1;
nodes = (
"502 780 LINE",
"362 497 LINE",
"50 452 LINE",
"276 231 LINE",
"223 -80 LINE",
"502 67 LINE"
);
}
);
width = 552;
}
);
unicode = E04B;
},
{
glyphname = sf.half.star.o;
lastChange = "2014-08-08 16:53:15 +0000";
layers = (
{
layerId = "7BDE272C-C7FB-4166-8673-7B6B584E769E";
name = Regular;
paths = (
{
closed = 1;
nodes = (
"642 497 LINE",
"502 780 LINE",
"362 497 LINE",
"50 452 LINE",
"276 231 LINE",
"223 -80 LINE",
"502 67 LINE",
"782 -80 LINE",
"728 231 LINE",
"954 452 LINE"
);
},
{
closed = 1;
nodes = (
"502 554 LINE",
"575 406 LINE",
"739 382 LINE",
"621 266 LINE",
"649 103 LINE",
"502 180 LINE"
);
}
);
width = 1004;
}
);
unicode = E04C;
},
{
glyphname = sf.reorder;
lastChange = "2014-08-08 16:53:23 +0000";
layers = (
{
hints = (
{
horizontal = 1;
origin = "{0, 12}";
target = "{0, 3}";
},
{
horizontal = 1;
origin = "{1, 12}";
target = "{1, 3}";
},
{
horizontal = 1;
origin = "{2, 12}";
target = "{2, 3}";
}
);
layerId = "7BDE272C-C7FB-4166-8673-7B6B584E769E";
name = Regular;
paths = (
{
closed = 1;
nodes = (
"50 104 LINE SMOOTH",
"50 124 OFFCURVE",
"66 140 OFFCURVE",
"86 140 CURVE SMOOTH",
"873 140 LINE SMOOTH",
"893 140 OFFCURVE",
"909 124 OFFCURVE",
"909 104 CURVE SMOOTH",
"909 36 LINE SMOOTH",
"909 16 OFFCURVE",
"893 0 OFFCURVE",
"873 0 CURVE SMOOTH",
"86 0 LINE SMOOTH",
"66 0 OFFCURVE",
"50 16 OFFCURVE",
"50 36 CURVE SMOOTH"
);
},
{
closed = 1;
nodes = (
"50 385 LINE SMOOTH",
"50 404 OFFCURVE",
"66 420 OFFCURVE",
"86 420 CURVE SMOOTH",
"873 420 LINE SMOOTH",
"893 420 OFFCURVE",
"909 404 OFFCURVE",
"909 385 CURVE SMOOTH",
"909 315 LINE SMOOTH",
"909 296 OFFCURVE",
"893 280 OFFCURVE",
"873 280 CURVE SMOOTH",
"86 280 LINE SMOOTH",
"66 280 OFFCURVE",
"50 296 OFFCURVE",
"50 315 CURVE SMOOTH"
);
},
{
closed = 1;
nodes = (
"50 664 LINE SMOOTH",
"50 684 OFFCURVE",
"66 700 OFFCURVE",
"86 700 CURVE",
"873 700 LINE SMOOTH",
"893 700 OFFCURVE",
"909 684 OFFCURVE",
"909 664 CURVE SMOOTH",
"909 596 LINE SMOOTH",
"909 576 OFFCURVE",
"893 560 OFFCURVE",
"873 560 CURVE SMOOTH",
"86 560 LINE SMOOTH",
"66 560 OFFCURVE",
"50 576 OFFCURVE",
"50 596 CURVE SMOOTH"
);
}
);
width = 959;
}
);
unicode = E04D;
},
{
glyphname = sf.tag;
lastChange = "2014-08-08 16:53:32 +0000";
layers = (
{
layerId = "7BDE272C-C7FB-4166-8673-7B6B584E769E";
name = Regular;
paths = (
{
closed = 1;
nodes = (
"769 618 LINE SMOOTH",
"771 643 OFFCURVE",
"761 668 OFFCURVE",
"744 686 CURVE SMOOTH",
"726 703 OFFCURVE",
"701 713 OFFCURVE",
"676 711 CURVE SMOOTH",
"430 695 LINE SMOOTH",
"409 693 OFFCURVE",
"389 684 OFFCURVE",
"374 669 CURVE SMOOTH",
"63 359 LINE SMOOTH",
"46 342 OFFCURVE",
"46 314 OFFCURVE",
"63 297 CURVE SMOOTH",
"355 5 LINE SMOOTH",
"372 -12 OFFCURVE",
"400 -12 OFFCURVE",
"417 5 CURVE SMOOTH",
"727 316 LINE SMOOTH",
"742 331 OFFCURVE",
"751 351 OFFCURVE",
"753 372 CURVE SMOOTH"
);
},
{
closed = 1;
nodes = (
"540 513 OFFCURVE",
"540 539 OFFCURVE",
"556 554 CURVE SMOOTH",
"571 570 OFFCURVE",
"597 570 OFFCURVE",
"612 554 CURVE SMOOTH",
"628 539 OFFCURVE",
"628 513 OFFCURVE",
"612 498 CURVE SMOOTH",
"597 482 OFFCURVE",
"571 482 OFFCURVE",
"556 498 CURVE SMOOTH"
);
}
);
width = 819.253;
}
);
unicode = E051;
},
{
glyphname = sf.tag.o;
lastChange = "2014-08-08 16:53:38 +0000";
layers = (
{
layerId = "7BDE272C-C7FB-4166-8673-7B6B584E769E";
name = Regular;
paths = (
{
closed = 1;
nodes = (
"769 618 LINE SMOOTH",
"770 643 OFFCURVE",
"761 668 OFFCURVE",
"743 686 CURVE SMOOTH",
"725 703 OFFCURVE",
"701 713 OFFCURVE",
"676 711 CURVE SMOOTH",
"429 695 LINE SMOOTH",
"408 693 OFFCURVE",
"388 684 OFFCURVE",
"373 669 CURVE SMOOTH",
"62 359 LINE SMOOTH",
"46 342 OFFCURVE",
"46 314 OFFCURVE",
"62 297 CURVE SMOOTH",
"355 5 LINE SMOOTH",
"372 -12 OFFCURVE",
"399 -12 OFFCURVE",
"416 5 CURVE SMOOTH",
"727 316 LINE SMOOTH",
"742 331 OFFCURVE",
"751 351 OFFCURVE",
"752 372 CURVE SMOOTH"
);
},
{
closed = 1;
nodes = (
"131 328 LINE",
"423 620 LINE SMOOTH",
"426 623 OFFCURVE",
"430 625 OFFCURVE",
"434 625 CURVE SMOOTH",
"680 641 LINE SMOOTH",
"685 642 OFFCURVE",
"690 640 OFFCURVE",
"694 636 CURVE SMOOTH",
"697 633 OFFCURVE",
"699 628 OFFCURVE",
"699 623 CURVE SMOOTH",
"682 376 LINE SMOOTH",
"682 372 OFFCURVE",
"680 368 OFFCURVE",
"677 365 CURVE SMOOTH",
"385 73 LINE"
);
},
{
closed = 1;
nodes = (
"596 482 OFFCURVE",
"571 482 OFFCURVE",
"555 498 CURVE SMOOTH",
"540 513 OFFCURVE",
"540 539 OFFCURVE",
"555 554 CURVE SMOOTH",
"571 570 OFFCURVE",
"596 570 OFFCURVE",
"612 554 CURVE SMOOTH",
"628 539 OFFCURVE",
"628 513 OFFCURVE",
"612 498 CURVE SMOOTH"
);
}
);
width = 819.075;
}
);
unicode = E052;
},
{
glyphname = sf.ticket;
lastChange = "2014-08-08 16:54:22 +0000";
layers = (
{
layerId = "7BDE272C-C7FB-4166-8673-7B6B584E769E";
name = Regular;
paths = (
{
closed = 1;
nodes = (
"789 556 OFFCURVE",
"749 556 OFFCURVE",
"726 580 CURVE SMOOTH",
"702 604 OFFCURVE",
"702 642 OFFCURVE",
"726 666 CURVE",
"623 769 LINE SMOOTH",
"612 780 OFFCURVE",
"595 780 OFFCURVE",
"584 769 CURVE SMOOTH",
"87 272 LINE SMOOTH",
"76 262 OFFCURVE",
"76 244 OFFCURVE",
"87 234 CURVE SMOOTH",
"190 130 LINE",
"213 154 OFFCURVE",
"253 154 OFFCURVE",
"276 130 CURVE SMOOTH",
"300 106 OFFCURVE",
"300 68 OFFCURVE",
"276 44 CURVE",
"379 -60 LINE SMOOTH",
"390 -70 OFFCURVE",
"407 -70 OFFCURVE",
"418 -60 CURVE SMOOTH",
"915 438 LINE SMOOTH",
"926 449 OFFCURVE",
"926 466 OFFCURVE",
"915 476 CURVE SMOOTH",
"812 580 LINE"
);
}
);
width = 1002;
}
);
unicode = E04F;
},
{
glyphname = sf.ticket.o;
lastChange = "2014-08-08 16:55:09 +0000";
layers = (
{
layerId = "7BDE272C-C7FB-4166-8673-7B6B584E769E";
name = Regular;
paths = (
{
closed = 1;
nodes = (
"925 466 OFFCURVE",
"925 449 OFFCURVE",
"915 438 CURVE SMOOTH",
"418 -60 LINE SMOOTH",
"407 -70 OFFCURVE",
"390 -70 OFFCURVE",
"379 -60 CURVE SMOOTH",
"276 44 LINE",
"300 68 OFFCURVE",
"300 106 OFFCURVE",
"276 130 CURVE SMOOTH",
"252 154 OFFCURVE",
"213 154 OFFCURVE",
"190 130 CURVE",
"87 234 LINE SMOOTH",
"76 244 OFFCURVE",
"76 262 OFFCURVE",
"87 272 CURVE SMOOTH",
"583 769 LINE SMOOTH",
"595 780 OFFCURVE",
"611 780 OFFCURVE",
"623 769 CURVE SMOOTH",
"726 666 LINE",
"701 642 OFFCURVE",
"701 604 OFFCURVE",
"726 580 CURVE SMOOTH",
"749 556 OFFCURVE",
"788 556 OFFCURVE",
"812 580 CURVE",
"915 476 LINE SMOOTH"
);
},
{
closed = 1;
nodes = (
"841 458 LINE",
"799 500 LINE",
"758 490 OFFCURVE",
"712 502 OFFCURVE",
"679 533 CURVE SMOOTH",
"647 566 OFFCURVE",
"636 611 OFFCURVE",
"646 653 CURVE",
"603 695 LINE",
"160 252 LINE",
"203 210 LINE",
"244 220 OFFCURVE",
"290 209 OFFCURVE",
"322 177 CURVE SMOOTH",
"355 144 OFFCURVE",
"366 99 OFFCURVE",
"356 57 CURVE",
"398 14 LINE"
);
}
);
width = 1001.25;
}
);
unicode = E050;
},
{
glyphname = sf.ul;
lastChange = "2014-08-08 16:55:25 +0000";
layers = (
{
layerId = "7BDE272C-C7FB-4166-8673-7B6B584E769E";
name = Regular;
paths = (
{
closed = 1;
nodes = (
"300 104 LINE SMOOTH",
"300 124 OFFCURVE",
"316 140 OFFCURVE",
"336 140 CURVE SMOOTH",
"874 140 LINE SMOOTH",
"894 140 OFFCURVE",
"910 124 OFFCURVE",
"910 104 CURVE SMOOTH",
"910 36 LINE SMOOTH",
"910 16 OFFCURVE",
"894 0 OFFCURVE",
"874 0 CURVE SMOOTH",
"336 0 LINE SMOOTH",
"316 0 OFFCURVE",
"300 16 OFFCURVE",
"300 36 CURVE SMOOTH"
);
},
{
closed = 1;
nodes = (
"300 385 LINE SMOOTH",
"300 404 OFFCURVE",
"316 420 OFFCURVE",
"336 420 CURVE SMOOTH",
"874 420 LINE SMOOTH",
"894 420 OFFCURVE",
"910 404 OFFCURVE",
"910 385 CURVE SMOOTH",
"910 315 LINE SMOOTH",
"910 296 OFFCURVE",
"894 280 OFFCURVE",
"874 280 CURVE SMOOTH",
"336 280 LINE SMOOTH",
"316 280 OFFCURVE",
"300 296 OFFCURVE",
"300 315 CURVE SMOOTH"
);
},
{
closed = 1;
nodes = (
"300 664 LINE SMOOTH",
"300 684 OFFCURVE",
"316 700 OFFCURVE",
"336 700 CURVE SMOOTH",
"874 700 LINE SMOOTH",
"894 700 OFFCURVE",
"910 684 OFFCURVE",
"910 664 CURVE SMOOTH",
"910 596 LINE SMOOTH",
"910 576 OFFCURVE",
"894 560 OFFCURVE",
"874 560 CURVE SMOOTH",
"336 560 LINE SMOOTH",
"316 560 OFFCURVE",
"300 576 OFFCURVE",
"300 596 CURVE SMOOTH"
);
},
{
closed = 1;
nodes = (
"50 385 LINE SMOOTH",
"50 404 OFFCURVE",
"65 420 OFFCURVE",
"82 420 CURVE SMOOTH",
"157 420 LINE SMOOTH",
"176 420 OFFCURVE",
"190 404 OFFCURVE",
"190 385 CURVE SMOOTH",
"190 315 LINE SMOOTH",
"190 296 OFFCURVE",
"176 280 OFFCURVE",
"157 280 CURVE SMOOTH",
"82 280 LINE SMOOTH",
"65 280 OFFCURVE",
"50 296 OFFCURVE",
"50 315 CURVE SMOOTH"
);
},
{
closed = 1;
nodes = (
"50 104 LINE SMOOTH",
"50 124 OFFCURVE",
"65 140 OFFCURVE",
"82 140 CURVE SMOOTH",
"157 140 LINE SMOOTH",
"176 140 OFFCURVE",
"190 124 OFFCURVE",
"190 104 CURVE SMOOTH",
"190 36 LINE SMOOTH",
"190 16 OFFCURVE",
"176 0 OFFCURVE",
"157 0 CURVE SMOOTH",
"82 0 LINE SMOOTH",
"65 0 OFFCURVE",
"50 16 OFFCURVE",
"50 36 CURVE SMOOTH"
);
},
{
closed = 1;
nodes = (
"50 664 LINE SMOOTH",
"50 684 OFFCURVE",
"65 700 OFFCURVE",
"82 700 CURVE SMOOTH",
"157 700 LINE SMOOTH",
"176 700 OFFCURVE",
"190 684 OFFCURVE",
"190 664 CURVE SMOOTH",
"190 596 LINE SMOOTH",
"190 576 OFFCURVE",
"176 560 OFFCURVE",
"157 560 CURVE SMOOTH",
"82 560 LINE SMOOTH",
"65 560 OFFCURVE",
"50 576 OFFCURVE",
"50 596 CURVE SMOOTH"
);
}
);
width = 960;
}
);
unicode = E04E;
},
{
glyphname = sf.tasks;
lastChange = "2014-08-08 16:55:39 +0000";
layers = (
{
layerId = "7BDE272C-C7FB-4166-8673-7B6B584E769E";
name = Regular;
paths = (
{
closed = 1;
nodes = (
"50 713 LINE",
"50 540 LINE",
"1000 540 LINE",
"1000 713 LINE"
);
},
{
closed = 1;
nodes = (
"565 589 LINE",
"565 665 LINE",
"964 665 LINE",
"964 589 LINE"
);
},
{
closed = 1;
nodes = (
"50 442 LINE",
"50 269 LINE",
"1000 269 LINE",
"1000 442 LINE"
);
},
{
closed = 1;
nodes = (
"262 317 LINE",
"262 394 LINE",
"964 394 LINE",
"964 317 LINE"
);
},
{
closed = 1;
nodes = (
"50 160 LINE",
"50 -13 LINE",
"1000 -13 LINE",
"1000 160 LINE"
);
},
{
closed = 1;
nodes = (
"444 35 LINE",
"444 111 LINE",
"964 111 LINE",
"964 35 LINE"
);
}
);
width = 1050;
}
);
unicode = E054;
},
{
glyphname = sf.power.off;
lastChange = "2014-08-08 16:55:46 +0000";
layers = (
{
layerId = "7BDE272C-C7FB-4166-8673-7B6B584E769E";
name = Regular;
paths = (
{
closed = 1;
nodes = (
"745 592 OFFCURVE",
"690 641 OFFCURVE",
"624 674 CURVE",
"624 674 OFFCURVE",
"624 674 OFFCURVE",
"624 674 CURVE",
"619 676 OFFCURVE",
"614 676 OFFCURVE",
"609 673 CURVE SMOOTH",
"605 670 OFFCURVE",
"602 665 OFFCURVE",
"602 660 CURVE SMOOTH",
"602 586 LINE SMOOTH",
"602 577 OFFCURVE",
"606 570 OFFCURVE",
"613 565 CURVE SMOOTH",
"696 510 OFFCURVE",
"746 418 OFFCURVE",
"746 317 CURVE SMOOTH",
"746 153 OFFCURVE",
"612 20 OFFCURVE",
"448 20 CURVE SMOOTH",
"284 20 OFFCURVE",
"150 153 OFFCURVE",
"150 317 CURVE SMOOTH",
"150 420 OFFCURVE",
"204 516 OFFCURVE",
"290 570 CURVE SMOOTH",
"298 574 OFFCURVE",
"302 582 OFFCURVE",
"302 591 CURVE SMOOTH",
"302 665 LINE SMOOTH",
"302 670 OFFCURVE",
"299 675 OFFCURVE",
"295 677 CURVE SMOOTH",
"291 680 OFFCURVE",
"286 680 OFFCURVE",
"281 678 CURVE",
"281 678 OFFCURVE",
"281 678 OFFCURVE",
"281 678 CURVE",
"213 647 OFFCURVE",
"156 597 OFFCURVE",
"115 534 CURVE SMOOTH",
"73 470 OFFCURVE",
"50 395 OFFCURVE",
"50 317 CURVE SMOOTH",
"50 264 OFFCURVE",
"61 212 OFFCURVE",
"82 163 CURVE SMOOTH",
"102 115 OFFCURVE",
"130 73 OFFCURVE",
"167 36 CURVE SMOOTH",
"203 0 OFFCURVE",
"246 -29 OFFCURVE",
"293 -49 CURVE SMOOTH",
"342 -69 OFFCURVE",
"394 -80 OFFCURVE",
"448 -80 CURVE SMOOTH",
"502 -80 OFFCURVE",
"554 -69 OFFCURVE",
"603 -49 CURVE SMOOTH",
"650 -29 OFFCURVE",
"693 0 OFFCURVE",
"729 36 CURVE SMOOTH",
"766 73 OFFCURVE",
"794 115 OFFCURVE",
"814 163 CURVE SMOOTH",
"835 212 OFFCURVE",
"846 264 OFFCURVE",
"846 317 CURVE SMOOTH",
"846 393 OFFCURVE",
"824 466 OFFCURVE",
"784 530 CURVE SMOOTH"
);
},
{
closed = 1;
nodes = (
"498 491 OFFCURVE",
"487 480 OFFCURVE",
"473 480 CURVE SMOOTH",
"423 480 LINE SMOOTH",
"409 480 OFFCURVE",
"398 491 OFFCURVE",
"398 505 CURVE SMOOTH",
"398 755 LINE SMOOTH",
"398 769 OFFCURVE",
"409 780 OFFCURVE",
"423 780 CURVE SMOOTH",
"473 780 LINE SMOOTH",
"487 780 OFFCURVE",
"498 769 OFFCURVE",
"498 755 CURVE SMOOTH",
"498 505 LINE SMOOTH"
);
}
);
width = 896;
}
);
unicode = E056;
},
{
glyphname = sf.search;
lastChange = "2014-08-08 16:55:56 +0000";
layers = (
{
layerId = "7BDE272C-C7FB-4166-8673-7B6B584E769E";
name = Regular;
paths = (
{
closed = 1;
nodes = (
"687 228 LINE",
"701 248 OFFCURVE",
"713 270 OFFCURVE",
"723 293 CURVE SMOOTH",
"741 337 OFFCURVE",
"751 382 OFFCURVE",
"751 430 CURVE SMOOTH",
"751 477 OFFCURVE",
"741 523 OFFCURVE",
"723 566 CURVE SMOOTH",
"705 608 OFFCURVE",
"680 645 OFFCURVE",
"648 677 CURVE SMOOTH",
"616 710 OFFCURVE",
"578 735 OFFCURVE",
"537 752 CURVE SMOOTH",
"493 771 OFFCURVE",
"448 780 OFFCURVE",
"400 780 CURVE SMOOTH",
"353 780 OFFCURVE",
"307 771 OFFCURVE",
"264 752 CURVE SMOOTH",
"222 735 OFFCURVE",
"185 710 OFFCURVE",
"153 677 CURVE SMOOTH",
"120 645 OFFCURVE",
"95 608 OFFCURVE",
"78 566 CURVE SMOOTH",
"59 523 OFFCURVE",
"50 477 OFFCURVE",
"50 430 CURVE SMOOTH",
"50 382 OFFCURVE",
"59 337 OFFCURVE",
"78 293 CURVE SMOOTH",
"95 252 OFFCURVE",
"120 214 OFFCURVE",
"153 182 CURVE SMOOTH",
"185 150 OFFCURVE",
"222 125 OFFCURVE",
"264 107 CURVE SMOOTH",
"307 89 OFFCURVE",
"353 79 OFFCURVE",
"400 79 CURVE SMOOTH",
"448 79 OFFCURVE",
"493 89 OFFCURVE",
"537 107 CURVE SMOOTH",
"560 117 OFFCURVE",
"582 129 OFFCURVE",
"602 143 CURVE",
"808 -62 LINE SMOOTH",
"819 -74 OFFCURVE",
"835 -80 OFFCURVE",
"850 -80 CURVE SMOOTH",
"865 -80 OFFCURVE",
"881 -74 OFFCURVE",
"892 -62 CURVE SMOOTH",
"916 -39 OFFCURVE",
"916 -1 OFFCURVE",
"892 22 CURVE SMOOTH"
);
},
{
closed = 1;
nodes = (
"273 199 OFFCURVE",
"170 303 OFFCURVE",
"170 430 CURVE SMOOTH",
"170 557 OFFCURVE",
"273 660 OFFCURVE",
"400 660 CURVE SMOOTH",
"527 660 OFFCURVE",
"631 557 OFFCURVE",
"631 430 CURVE SMOOTH",
"631 303 OFFCURVE",
"527 199 OFFCURVE",
"400 199 CURVE SMOOTH"
);
}
);
width = 960;
}
);
unicode = E057;
},
{
glyphname = sf.mail;
lastChange = "2014-08-08 16:56:06 +0000";
layers = (
{
layerId = "7BDE272C-C7FB-4166-8673-7B6B584E769E";
name = Regular;
paths = (
{
closed = 1;
nodes = (
"79 660 LINE SMOOTH",
"63 660 OFFCURVE",
"50 647 OFFCURVE",
"50 632 CURVE SMOOTH",
"50 69 LINE SMOOTH",
"50 54 OFFCURVE",
"63 41 OFFCURVE",
"79 41 CURVE SMOOTH",
"882 41 LINE SMOOTH",
"898 41 OFFCURVE",
"910 54 OFFCURVE",
"910 69 CURVE SMOOTH",
"910 632 LINE SMOOTH",
"910 647 OFFCURVE",
"898 660 OFFCURVE",
"882 660 CURVE SMOOTH"
);
},
{
closed = 1;
nodes = (
"481 363 LINE",
"254 560 LINE",
"707 560 LINE"
);
},
{
closed = 1;
nodes = (
"150 518 LINE",
"429 275 LINE SMOOTH",
"444 262 OFFCURVE",
"462 256 OFFCURVE",
"481 256 CURVE SMOOTH",
"499 256 OFFCURVE",
"517 262 OFFCURVE",
"532 275 CURVE SMOOTH",
"810 518 LINE",
"810 141 LINE",
"150 141 LINE"
);
},
{
closed = 1;
nodes = (
"79 660 LINE SMOOTH",
"63 660 OFFCURVE",
"50 647 OFFCURVE",
"50 631 CURVE SMOOTH",
"50 69 LINE SMOOTH",
"50 53 OFFCURVE",
"63 40 OFFCURVE",
"79 40 CURVE SMOOTH",
"882 40 LINE SMOOTH",
"898 40 OFFCURVE",
"910 53 OFFCURVE",
"910 69 CURVE SMOOTH",
"910 631 LINE SMOOTH",
"910 647 OFFCURVE",
"898 660 OFFCURVE",
"882 660 CURVE SMOOTH"
);
},
{
closed = 1;
nodes = (
"481 363 LINE",
"254 560 LINE",
"707 560 LINE"
);
},
{
closed = 1;
nodes = (
"150 518 LINE",
"429 274 LINE SMOOTH",
"444 262 OFFCURVE",
"462 255 OFFCURVE",
"481 255 CURVE SMOOTH",
"499 255 OFFCURVE",
"517 262 OFFCURVE",
"532 274 CURVE SMOOTH",
"810 517 LINE",
"810 140 LINE",
"150 140 LINE"
);
}
);
width = 960;
}
);
unicode = E058;
},
{
glyphname = sf.test.tube;
lastChange = "2014-08-08 16:56:19 +0000";
layers = (
{
layerId = "7BDE272C-C7FB-4166-8673-7B6B584E769E";
name = Regular;
paths = (
{
closed = 1;
nodes = (
"270 162 LINE SMOOTH",
"270 139 OFFCURVE",
"279 118 OFFCURVE",
"295 102 CURVE SMOOTH",
"311 87 OFFCURVE",
"332 78 OFFCURVE",
"354 78 CURVE SMOOTH",
"377 78 OFFCURVE",
"398 87 OFFCURVE",
"413 102 CURVE SMOOTH",
"429 118 OFFCURVE",
"438 139 OFFCURVE",
"438 161 CURVE SMOOTH",
"438 162 LINE",
"438 306 LINE SMOOTH",
"438 317 OFFCURVE",
"432 326 OFFCURVE",
"422 330 CURVE SMOOTH",
"305 376 LINE SMOOTH",
"297 379 OFFCURVE",
"288 378 OFFCURVE",
"281 374 CURVE SMOOTH",
"274 369 OFFCURVE",
"270 361 OFFCURVE",
"270 353 CURVE SMOOTH"
);
},
{
closed = 1;
nodes = (
"317 450 OFFCURVE",
"335 432 OFFCURVE",
"357 432 CURVE SMOOTH",
"379 432 OFFCURVE",
"397 450 OFFCURVE",
"397 472 CURVE SMOOTH",
"397 494 OFFCURVE",
"379 512 OFFCURVE",
"357 512 CURVE SMOOTH",
"335 512 OFFCURVE",
"317 494 OFFCURVE",
"317 472 CURVE SMOOTH"
);
},
{
closed = 1;
nodes = (
"334 540 OFFCURVE",
"347 553 OFFCURVE",
"347 570 CURVE SMOOTH",
"347 587 OFFCURVE",
"334 600 OFFCURVE",
"317 600 CURVE SMOOTH",
"300 600 OFFCURVE",
"287 587 OFFCURVE",
"287 570 CURVE SMOOTH",
"287 553 OFFCURVE",
"300 540 OFFCURVE",
"317 540 CURVE SMOOTH"
);
},
{
closed = 1;
nodes = (
"426 510 OFFCURVE",
"435 519 OFFCURVE",
"435 530 CURVE SMOOTH",
"435 541 OFFCURVE",
"426 550 OFFCURVE",
"415 550 CURVE SMOOTH",
"404 550 OFFCURVE",
"395 541 OFFCURVE",
"395 530 CURVE SMOOTH",
"395 519 OFFCURVE",
"404 510 OFFCURVE",
"415 510 CURVE SMOOTH"
);
},
{
closed = 1;
nodes = (
"100 780 LINE SMOOTH",
"72 780 OFFCURVE",
"50 758 OFFCURVE",
"50 730 CURVE SMOOTH",
"50 702 OFFCURVE",
"72 680 OFFCURVE",
"100 680 CURVE SMOOTH",
"120 680 LINE",
"120 154 LINE SMOOTH",
"120 25 OFFCURVE",
"225 -80 OFFCURVE",
"354 -80 CURVE SMOOTH",
"483 -80 OFFCURVE",
"588 25 OFFCURVE",
"588 154 CURVE SMOOTH",
"588 680 LINE",
"608 680 LINE SMOOTH",
"636 680 OFFCURVE",
"658 702 OFFCURVE",
"658 730 CURVE SMOOTH",
"658 758 OFFCURVE",
"636 780 OFFCURVE",
"608 780 CURVE SMOOTH"
);
},
{
closed = 1;
nodes = (
"488 118 OFFCURVE",
"474 84 OFFCURVE",
"449 59 CURVE SMOOTH",
"424 34 OFFCURVE",
"390 20 OFFCURVE",
"354 20 CURVE SMOOTH",
"318 20 OFFCURVE",
"285 34 OFFCURVE",
"259 59 CURVE SMOOTH",
"234 84 OFFCURVE",
"220 118 OFFCURVE",
"220 153 CURVE SMOOTH",
"220 154 LINE",
"220 680 LINE",
"488 680 LINE",
"488 154 LINE",
"488 153 LINE SMOOTH"
);
}
);
width = 708;
}
);
unicode = E059;
},
{
glyphname = sf.thumbs.up;
lastChange = "2014-08-08 16:56:54 +0000";
layers = (
{
layerId = "7BDE272C-C7FB-4166-8673-7B6B584E769E";
name = Regular;
paths = (
{
closed = 1;
nodes = (
"891 471 OFFCURVE",
"797 478 OFFCURVE",
"758 479 CURVE",
"705 482 OFFCURVE",
"625 479 OFFCURVE",
"625 479 CURVE",
"625 479 OFFCURVE",
"652 575 OFFCURVE",
"654 616 CURVE",
"657 659 OFFCURVE",
"660 706 OFFCURVE",
"635 737 CURVE",
"610 769 OFFCURVE",
"584 795 OFFCURVE",
"544 774 CURVE SMOOTH",
"516 771 OFFCURVE",
"549 654 OFFCURVE",
"512 593 CURVE SMOOTH",
"510 586 OFFCURVE",
"478 516 OFFCURVE",
"451 479 CURVE",
"424 442 OFFCURVE",
"363 381 OFFCURVE",
"342 365 CURVE",
"332 358 OFFCURVE",
"318 353 OFFCURVE",
"305 349 CURVE",
"289 344 OFFCURVE",
"277 329 OFFCURVE",
"277 312 CURVE",
"277 2 LINE",
"277 -17 OFFCURVE",
"291 -33 OFFCURVE",
"309 -36 CURVE",
"490 -68 OFFCURVE",
"604 -94 OFFCURVE",
"747 -67 CURVE",
"924 -35 OFFCURVE",
"891 128 OFFCURVE",
"891 365 CURVE SMOOTH"
);
},
{
closed = 1;
nodes = (
"234 -30 OFFCURVE",
"217 -47 OFFCURVE",
"195 -47 CURVE",
"89 -47 LINE",
"67 -47 OFFCURVE",
"50 -30 OFFCURVE",
"50 -8 CURVE",
"50 335 LINE",
"50 356 OFFCURVE",
"67 374 OFFCURVE",
"89 374 CURVE",
"195 374 LINE",
"217 374 OFFCURVE",
"234 356 OFFCURVE",
"234 335 CURVE",
"234 -8 LINE"
);
},
{
closed = 1;
nodes = (
"122 323 OFFCURVE",
"107 308 OFFCURVE",
"107 288 CURVE",
"107 269 OFFCURVE",
"122 253 OFFCURVE",
"142 253 CURVE",
"162 253 OFFCURVE",
"177 269 OFFCURVE",
"177 288 CURVE",
"177 308 OFFCURVE",
"162 323 OFFCURVE",
"142 323 CURVE"
);
}
);
width = 943.434;
}
);
unicode = E05A;
},
{
glyphname = sf.thumbs.down;
lastChange = "2014-08-08 16:57:02 +0000";
layers = (
{
layerId = "7BDE272C-C7FB-4166-8673-7B6B584E769E";
name = Regular;
paths = (
{
closed = 1;
nodes = (
"891 573 OFFCURVE",
"924 736 OFFCURVE",
"747 768 CURVE",
"604 795 OFFCURVE",
"490 769 OFFCURVE",
"309 737 CURVE",
"291 734 OFFCURVE",
"277 718 OFFCURVE",
"277 699 CURVE",
"277 389 LINE",
"277 372 OFFCURVE",
"289 357 OFFCURVE",
"305 352 CURVE",
"318 348 OFFCURVE",
"332 343 OFFCURVE",
"342 336 CURVE",
"363 320 OFFCURVE",
"424 259 OFFCURVE",
"451 222 CURVE",
"478 185 OFFCURVE",
"510 115 OFFCURVE",
"512 108 CURVE SMOOTH",
"549 47 OFFCURVE",
"516 -70 OFFCURVE",
"544 -73 CURVE SMOOTH",
"584 -94 OFFCURVE",
"610 -68 OFFCURVE",
"635 -36 CURVE",
"660 -5 OFFCURVE",
"657 42 OFFCURVE",
"654 85 CURVE",
"652 126 OFFCURVE",
"625 222 OFFCURVE",
"625 222 CURVE",
"625 222 OFFCURVE",
"705 219 OFFCURVE",
"758 222 CURVE",
"797 223 OFFCURVE",
"891 230 OFFCURVE",
"891 336 CURVE SMOOTH"
);
},
{
closed = 1;
nodes = (
"234 366 LINE",
"234 345 OFFCURVE",
"217 327 OFFCURVE",
"195 327 CURVE",
"89 327 LINE",
"67 327 OFFCURVE",
"50 345 OFFCURVE",
"50 366 CURVE",
"50 709 LINE",
"50 731 OFFCURVE",
"67 748 OFFCURVE",
"89 748 CURVE",
"195 748 LINE",
"217 748 OFFCURVE",
"234 731 OFFCURVE",
"234 709 CURVE"
);
},
{
closed = 1;
nodes = (
"162 378 OFFCURVE",
"177 393 OFFCURVE",
"177 413 CURVE",
"177 432 OFFCURVE",
"162 448 OFFCURVE",
"142 448 CURVE",
"122 448 OFFCURVE",
"107 432 OFFCURVE",
"107 413 CURVE",
"107 393 OFFCURVE",
"122 378 OFFCURVE",
"142 378 CURVE"
);
}
);
width = 943.434;
}
);
unicode = E05B;
},
{
glyphname = sf.player.play;
lastChange = "2014-08-11 10:48:49 +0000";
layers = (
{
hints = (
{
horizontal = 1;
place = "{12476.871094, 0.000000}";
},
{
place = "{971.480469, 0.000000}";
},
{
place = "{406.863281, 0.000000}";
},
{
origin = "{0, 19}";
target = "{0, 9}";
}
);
layerId = "7BDE272C-C7FB-4166-8673-7B6B584E769E";
name = Regular;
paths = (
{
closed = 1;
nodes = (
"50 637 OFFCURVE",
"52 640 OFFCURVE",
"55 642 CURVE SMOOTH",
"58 644 OFFCURVE",
"62 644 OFFCURVE",
"65 642 CURVE SMOOTH",
"608 359 LINE SMOOTH",
"611 357 OFFCURVE",
"614 354 OFFCURVE",
"614 350 CURVE SMOOTH",
"614 346 OFFCURVE",
"611 343 OFFCURVE",
"608 341 CURVE SMOOTH",
"65 58 LINE SMOOTH",
"62 56 OFFCURVE",
"58 56 OFFCURVE",
"55 58 CURVE SMOOTH",
"52 60 OFFCURVE",
"50 63 OFFCURVE",
"50 66 CURVE SMOOTH",
"50 633 LINE SMOOTH"
);
}
);
width = 664;
}
);
unicode = E05C;
},
{
glyphname = sf.player.pause;
lastChange = "2014-08-08 16:57:51 +0000";
layers = (
{
layerId = "7BDE272C-C7FB-4166-8673-7B6B584E769E";
name = Regular;
paths = (
{
closed = 1;
nodes = (
"200 54 OFFCURVE",
"196 50 OFFCURVE",
"190 50 CURVE SMOOTH",
"60 50 LINE SMOOTH",
"54 50 OFFCURVE",
"50 54 OFFCURVE",
"50 60 CURVE SMOOTH",
"50 640 LINE SMOOTH",
"50 646 OFFCURVE",
"54 650 OFFCURVE",
"60 650 CURVE SMOOTH",
"190 650 LINE SMOOTH",
"196 650 OFFCURVE",
"200 646 OFFCURVE",
"200 640 CURVE SMOOTH",
"200 60 LINE SMOOTH"
);
},
{
closed = 1;
nodes = (
"450 54 OFFCURVE",
"446 50 OFFCURVE",
"440 50 CURVE SMOOTH",
"310 50 LINE SMOOTH",
"304 50 OFFCURVE",
"300 54 OFFCURVE",
"300 60 CURVE SMOOTH",
"300 640 LINE SMOOTH",
"300 646 OFFCURVE",
"304 650 OFFCURVE",
"310 650 CURVE SMOOTH",
"440 650 LINE SMOOTH",
"446 650 OFFCURVE",
"450 646 OFFCURVE",
"450 640 CURVE SMOOTH",
"450 60 LINE SMOOTH"
);
}
);
width = 500;
}
);
unicode = E05D;
},
{
glyphname = sf.player.stop;
lastChange = "2014-08-08 16:58:01 +0000";
layers = (
{
layerId = "7BDE272C-C7FB-4166-8673-7B6B584E769E";
name = Regular;
paths = (
{
closed = 1;
nodes = (
"650 54 OFFCURVE",
"646 50 OFFCURVE",
"640 50 CURVE SMOOTH",
"60 50 LINE SMOOTH",
"54 50 OFFCURVE",
"50 54 OFFCURVE",
"50 60 CURVE SMOOTH",
"50 640 LINE SMOOTH",
"50 646 OFFCURVE",
"54 650 OFFCURVE",
"60 650 CURVE SMOOTH",
"640 650 LINE SMOOTH",
"646 650 OFFCURVE",
"650 646 OFFCURVE",
"650 640 CURVE SMOOTH",
"650 60 LINE SMOOTH"
);
}
);
width = 700;
}
);
unicode = E05E;
},
{
glyphname = sf.player.rew;
lastChange = "2014-08-11 16:55:26 +0000";
layers = (
{
layerId = "7BDE272C-C7FB-4166-8673-7B6B584E769E";
name = Regular;
paths = (
{
closed = 1;
nodes = (
"835 596 OFFCURVE",
"833 599 OFFCURVE",
"830 601 CURVE SMOOTH",
"827 603 OFFCURVE",
"823 603 OFFCURVE",
"820 601 CURVE SMOOTH",
"351 356 LINE SMOOTH",
"348 354 OFFCURVE",
"346 351 OFFCURVE",
"346 347 CURVE SMOOTH",
"346 344 OFFCURVE",
"348 340 OFFCURVE",
"351 338 CURVE SMOOTH",
"820 94 LINE SMOOTH",
"823 92 OFFCURVE",
"827 92 OFFCURVE",
"830 94 CURVE SMOOTH",
"833 96 OFFCURVE",
"835 99 OFFCURVE",
"835 102 CURVE SMOOTH",
"835 592 LINE SMOOTH"
);
},
{
closed = 1;
nodes = (
"539 596 OFFCURVE",
"537 599 OFFCURVE",
"534 601 CURVE SMOOTH",
"531 603 OFFCURVE",
"527 603 OFFCURVE",
"524 601 CURVE SMOOTH",
"55 356 LINE SMOOTH",
"52 354 OFFCURVE",
"50 351 OFFCURVE",
"50 347 CURVE SMOOTH",
"50 344 OFFCURVE",
"52 340 OFFCURVE",
"55 338 CURVE SMOOTH",
"524 94 LINE SMOOTH",
"527 92 OFFCURVE",
"531 92 OFFCURVE",
"534 94 CURVE SMOOTH",
"537 96 OFFCURVE",
"539 99 OFFCURVE",
"539 102 CURVE SMOOTH",
"539 592 LINE SMOOTH"
);
}
);
width = 885;
}
);
},
{
glyphname = sf.player.ff;
lastChange = "2014-08-08 16:58:17 +0000";
layers = (
{
layerId = "7BDE272C-C7FB-4166-8673-7B6B584E769E";
name = Regular;
paths = (
{
closed = 1;
nodes = (
"50 595 OFFCURVE",
"52 598 OFFCURVE",
"55 600 CURVE SMOOTH",
"58 602 OFFCURVE",
"62 602 OFFCURVE",
"65 600 CURVE SMOOTH",
"534 355 LINE SMOOTH",
"537 353 OFFCURVE",
"539 350 OFFCURVE",
"539 346 CURVE SMOOTH",
"539 343 OFFCURVE",
"537 339 OFFCURVE",
"534 337 CURVE SMOOTH",
"65 93 LINE SMOOTH",
"62 91 OFFCURVE",
"58 91 OFFCURVE",
"55 93 CURVE SMOOTH",
"52 95 OFFCURVE",
"50 98 OFFCURVE",
"50 101 CURVE SMOOTH",
"50 591 LINE SMOOTH"
);
},
{
closed = 1;
nodes = (
"346 595 OFFCURVE",
"348 598 OFFCURVE",
"351 600 CURVE SMOOTH",
"354 602 OFFCURVE",
"358 602 OFFCURVE",
"361 600 CURVE SMOOTH",
"830 355 LINE SMOOTH",
"833 353 OFFCURVE",
"835 350 OFFCURVE",
"835 346 CURVE SMOOTH",
"835 343 OFFCURVE",
"833 339 OFFCURVE",
"830 337 CURVE SMOOTH",
"361 93 LINE SMOOTH",
"358 91 OFFCURVE",
"354 91 OFFCURVE",
"351 93 CURVE SMOOTH",
"348 95 OFFCURVE",
"346 98 OFFCURVE",
"346 101 CURVE SMOOTH",
"346 591 LINE SMOOTH"
);
}
);
width = 885;
}
);
unicode = E060;
},
{
glyphname = sf.player.previous;
lastChange = "2014-08-08 16:58:24 +0000";
layers = (
{
layerId = "7BDE272C-C7FB-4166-8673-7B6B584E769E";
name = Regular;
paths = (
{
closed = 1;
nodes = (
"850 591 OFFCURVE",
"848 595 OFFCURVE",
"845 596 CURVE SMOOTH",
"842 598 OFFCURVE",
"838 598 OFFCURVE",
"835 597 CURVE SMOOTH",
"366 352 LINE SMOOTH",
"363 350 OFFCURVE",
"361 347 OFFCURVE",
"361 343 CURVE SMOOTH",
"361 339 OFFCURVE",
"363 336 OFFCURVE",
"366 334 CURVE SMOOTH",
"835 89 LINE SMOOTH",
"838 88 OFFCURVE",
"842 88 OFFCURVE",
"845 90 CURVE SMOOTH",
"848 91 OFFCURVE",
"850 95 OFFCURVE",
"850 98 CURVE SMOOTH",
"850 588 LINE SMOOTH"
);
},
{
closed = 1;
nodes = (
"554 591 OFFCURVE",
"552 595 OFFCURVE",
"549 596 CURVE SMOOTH",
"546 598 OFFCURVE",
"542 598 OFFCURVE",
"539 597 CURVE SMOOTH",
"70 352 LINE SMOOTH",
"67 350 OFFCURVE",
"65 347 OFFCURVE",
"65 343 CURVE SMOOTH",
"65 339 OFFCURVE",
"67 336 OFFCURVE",
"70 334 CURVE SMOOTH",
"539 89 LINE SMOOTH",
"542 88 OFFCURVE",
"546 88 OFFCURVE",
"549 90 CURVE SMOOTH",
"552 91 OFFCURVE",
"554 95 OFFCURVE",
"554 98 CURVE SMOOTH",
"554 588 LINE SMOOTH"
);
},
{
closed = 1;
nodes = (
"50 86 OFFCURVE",
"54 82 OFFCURVE",
"60 82 CURVE SMOOTH",
"140 82 LINE SMOOTH",
"146 82 OFFCURVE",
"150 86 OFFCURVE",
"150 92 CURVE SMOOTH",
"150 594 LINE SMOOTH",
"150 600 OFFCURVE",
"146 604 OFFCURVE",
"140 604 CURVE SMOOTH",
"60 604 LINE SMOOTH",
"54 604 OFFCURVE",
"50 600 OFFCURVE",
"50 594 CURVE SMOOTH",
"50 92 LINE SMOOTH"
);
}
);
width = 900;
}
);
unicode = E061;
},
{
glyphname = sf.player.next;
lastChange = "2014-08-08 16:58:34 +0000";
layers = (
{
layerId = "7BDE272C-C7FB-4166-8673-7B6B584E769E";
name = Regular;
paths = (
{
closed = 1;
nodes = (
"50 591 OFFCURVE",
"52 595 OFFCURVE",
"55 596 CURVE SMOOTH",
"58 598 OFFCURVE",
"62 598 OFFCURVE",
"65 597 CURVE SMOOTH",
"534 352 LINE SMOOTH",
"537 350 OFFCURVE",
"539 347 OFFCURVE",
"539 343 CURVE SMOOTH",
"539 339 OFFCURVE",
"537 336 OFFCURVE",
"534 334 CURVE SMOOTH",
"65 89 LINE SMOOTH",
"62 88 OFFCURVE",
"58 88 OFFCURVE",
"55 90 CURVE SMOOTH",
"52 91 OFFCURVE",
"50 95 OFFCURVE",
"50 98 CURVE SMOOTH",
"50 588 LINE SMOOTH"
);
},
{
closed = 1;
nodes = (
"346 591 OFFCURVE",
"348 595 OFFCURVE",
"351 596 CURVE SMOOTH",
"354 598 OFFCURVE",
"358 598 OFFCURVE",
"361 597 CURVE SMOOTH",
"830 352 LINE SMOOTH",
"833 350 OFFCURVE",
"835 347 OFFCURVE",
"835 343 CURVE SMOOTH",
"835 339 OFFCURVE",
"833 336 OFFCURVE",
"830 334 CURVE SMOOTH",
"361 89 LINE SMOOTH",
"358 88 OFFCURVE",
"354 88 OFFCURVE",
"351 90 CURVE SMOOTH",
"348 91 OFFCURVE",
"346 95 OFFCURVE",
"346 98 CURVE SMOOTH",
"346 588 LINE SMOOTH"
);
},
{
closed = 1;
nodes = (
"850 86 OFFCURVE",
"846 82 OFFCURVE",
"840 82 CURVE SMOOTH",
"760 82 LINE SMOOTH",
"754 82 OFFCURVE",
"750 86 OFFCURVE",
"750 92 CURVE SMOOTH",
"750 594 LINE SMOOTH",
"750 600 OFFCURVE",
"754 604 OFFCURVE",
"760 604 CURVE SMOOTH",
"840 604 LINE SMOOTH",
"846 604 OFFCURVE",
"850 600 OFFCURVE",
"850 594 CURVE SMOOTH",
"850 92 LINE SMOOTH"
);
}
);
width = 900;
}
);
unicode = E062;
},
{
glyphname = sf.player.replay;
lastChange = "2014-08-11 10:41:03 +0000";
layers = (
{
layerId = "7BDE272C-C7FB-4166-8673-7B6B584E769E";
name = Regular;
paths = (
{
closed = 1;
nodes = (
"665 499 OFFCURVE",
"653 520 OFFCURVE",
"639 540 CURVE",
"673 569 LINE SMOOTH",
"677 573 OFFCURVE",
"679 579 OFFCURVE",
"678 584 CURVE SMOOTH",
"676 589 OFFCURVE",
"672 594 OFFCURVE",
"666 594 CURVE SMOOTH",
"485 623 LINE SMOOTH",
"481 624 OFFCURVE",
"477 623 OFFCURVE",
"474 620 CURVE SMOOTH",
"471 617 OFFCURVE",
"469 613 OFFCURVE",
"469 609 CURVE SMOOTH",
"466 426 LINE SMOOTH",
"466 421 OFFCURVE",
"469 415 OFFCURVE",
"474 413 CURVE SMOOTH",
"479 411 OFFCURVE",
"485 411 OFFCURVE",
"490 415 CURVE SMOOTH",
"523 443 LINE",
"540 416 OFFCURVE",
"550 384 OFFCURVE",
"550 350 CURVE SMOOTH",
"550 254 OFFCURVE",
"471 175 OFFCURVE",
"375 175 CURVE SMOOTH",
"279 175 OFFCURVE",
"200 254 OFFCURVE",
"200 350 CURVE SMOOTH",
"200 443 OFFCURVE",
"274 520 OFFCURVE",
"367 525 CURVE SMOOTH",
"372 525 OFFCURVE",
"376 529 OFFCURVE",
"376 535 CURVE SMOOTH",
"376 665 LINE SMOOTH",
"376 668 OFFCURVE",
"375 670 OFFCURVE",
"373 672 CURVE SMOOTH",
"371 674 OFFCURVE",
"368 675 OFFCURVE",
"366 675 CURVE SMOOTH",
"325 674 OFFCURVE",
"285 665 OFFCURVE",
"248 649 CURVE SMOOTH",
"210 633 OFFCURVE",
"175 610 OFFCURVE",
"145 580 CURVE SMOOTH",
"115 550 OFFCURVE",
"92 515 OFFCURVE",
"76 477 CURVE SMOOTH",
"59 436 OFFCURVE",
"50 394 OFFCURVE",
"50 350 CURVE SMOOTH",
"50 306 OFFCURVE",
"59 264 OFFCURVE",
"76 223 CURVE SMOOTH",
"92 185 OFFCURVE",
"115 150 OFFCURVE",
"145 120 CURVE SMOOTH",
"175 90 OFFCURVE",
"210 67 OFFCURVE",
"248 51 CURVE SMOOTH",
"289 34 OFFCURVE",
"331 25 OFFCURVE",
"375 25 CURVE SMOOTH",
"419 25 OFFCURVE",
"461 34 OFFCURVE",
"502 51 CURVE SMOOTH",
"540 67 OFFCURVE",
"575 90 OFFCURVE",
"605 120 CURVE SMOOTH",
"635 150 OFFCURVE",
"658 185 OFFCURVE",
"674 223 CURVE SMOOTH",
"691 264 OFFCURVE",
"700 306 OFFCURVE",
"700 350 CURVE SMOOTH",
"700 394 OFFCURVE",
"691 436 OFFCURVE",
"674 477 CURVE SMOOTH"
);
}
);
width = 750;
}
);
unicode = E063;
},
{
glyphname = sf.player.shuffle;
lastChange = "2014-08-11 15:20:29 +0000";
layers = (
{
hints = (
{
horizontal = 1;
origin = "{1, 43}";
target = "{1, 36}";
},
{
horizontal = 1;
origin = "{0, 21}";
target = "{0, 14}";
},
{
origin = "{1, 24}";
target = "{1, 13}";
}
);
layerId = "7BDE272C-C7FB-4166-8673-7B6B584E769E";
name = Regular;
paths = (
{
closed = 1;
nodes = (
"263 439 OFFCURVE",
"267 438 OFFCURVE",
"271 438 CURVE SMOOTH",
"275 438 OFFCURVE",
"279 439 OFFCURVE",
"282 443 CURVE SMOOTH",
"356 526 LINE SMOOTH",
"361 532 OFFCURVE",
"361 540 OFFCURVE",
"356 546 CURVE SMOOTH",
"291 619 LINE SMOOTH",
"288 622 OFFCURVE",
"284 624 OFFCURVE",
"280 624 CURVE SMOOTH",
"15 624 LINE SMOOTH",
"7 624 OFFCURVE",
"0 617 OFFCURVE",
"0 609 CURVE SMOOTH",
"0 499 LINE SMOOTH",
"0 491 OFFCURVE",
"7 484 OFFCURVE",
"15 484 CURVE SMOOTH",
"217 484 LINE SMOOTH",
"221 484 OFFCURVE",
"225 482 OFFCURVE",
"228 479 CURVE SMOOTH",
"260 443 LINE SMOOTH"
);
},
{
closed = 1;
nodes = (
"802 484 OFFCURVE",
"809 477 OFFCURVE",
"809 469 CURVE SMOOTH",
"809 394 LINE SMOOTH",
"809 388 OFFCURVE",
"812 382 OFFCURVE",
"819 380 CURVE SMOOTH",
"825 377 OFFCURVE",
"831 378 OFFCURVE",
"836 383 CURVE SMOOTH",
"995 542 LINE SMOOTH",
"998 545 OFFCURVE",
"1000 549 OFFCURVE",
"1000 554 CURVE SMOOTH",
"1000 558 OFFCURVE",
"998 562 OFFCURVE",
"995 565 CURVE SMOOTH",
"836 724 LINE SMOOTH",
"831 729 OFFCURVE",
"825 730 OFFCURVE",
"819 728 CURVE SMOOTH",
"812 725 OFFCURVE",
"809 720 OFFCURVE",
"809 713 CURVE SMOOTH",
"809 639 LINE SMOOTH",
"809 631 OFFCURVE",
"802 624 OFFCURVE",
"794 624 CURVE SMOOTH",
"589 624 LINE SMOOTH",
"585 624 OFFCURVE",
"580 622 OFFCURVE",
"578 619 CURVE SMOOTH",
"228 222 LINE SMOOTH",
"225 219 OFFCURVE",
"221 217 OFFCURVE",
"217 217 CURVE SMOOTH",
"15 217 LINE SMOOTH",
"7 217 OFFCURVE",
"0 210 OFFCURVE",
"0 202 CURVE SMOOTH",
"0 92 LINE SMOOTH",
"0 84 OFFCURVE",
"7 77 OFFCURVE",
"15 77 CURVE SMOOTH",
"280 77 LINE SMOOTH",
"284 77 OFFCURVE",
"288 79 OFFCURVE",
"291 82 CURVE SMOOTH",
"641 479 LINE SMOOTH",
"644 482 OFFCURVE",
"648 484 OFFCURVE",
"652 484 CURVE SMOOTH",
"794 484 LINE SMOOTH"
);
},
{
closed = 1;
nodes = (
"831 322 OFFCURVE",
"825 323 OFFCURVE",
"819 321 CURVE SMOOTH",
"812 318 OFFCURVE",
"809 313 OFFCURVE",
"809 306 CURVE SMOOTH",
"809 232 LINE SMOOTH",
"809 224 OFFCURVE",
"802 217 OFFCURVE",
"794 217 CURVE SMOOTH",
"652 217 LINE SMOOTH",
"648 217 OFFCURVE",
"644 219 OFFCURVE",
"641 222 CURVE SMOOTH",
"609 258 LINE SMOOTH",
"606 262 OFFCURVE",
"602 263 OFFCURVE",
"598 263 CURVE SMOOTH",
"593 263 OFFCURVE",
"589 262 OFFCURVE",
"586 258 CURVE SMOOTH",
"513 175 LINE SMOOTH",
"508 169 OFFCURVE",
"508 161 OFFCURVE",
"513 155 CURVE SMOOTH",
"578 82 LINE SMOOTH",
"580 79 OFFCURVE",
"585 77 OFFCURVE",
"589 77 CURVE SMOOTH",
"794 77 LINE SMOOTH",
"802 77 OFFCURVE",
"809 70 OFFCURVE",
"809 62 CURVE SMOOTH",
"809 -13 LINE SMOOTH",
"809 -19 OFFCURVE",
"812 -25 OFFCURVE",
"819 -27 CURVE SMOOTH",
"825 -30 OFFCURVE",
"831 -29 OFFCURVE",
"836 -24 CURVE SMOOTH",
"995 135 LINE SMOOTH",
"998 138 OFFCURVE",
"1000 142 OFFCURVE",
"1000 147 CURVE SMOOTH",
"1000 151 OFFCURVE",
"998 155 OFFCURVE",
"995 158 CURVE SMOOTH",
"836 317 LINE SMOOTH"
);
}
);
width = 1005;
}
);
unicode = E064;
},
{
glyphname = sf.player.repeat;
lastChange = "2014-08-11 16:44:05 +0000";
layers = (
{
layerId = "7BDE272C-C7FB-4166-8673-7B6B584E769E";
name = Regular;
paths = (
{
closed = 1;
nodes = (
"317 351 LINE SMOOTH",
"311 351 OFFCURVE",
"305 354 OFFCURVE",
"301 358 CURVE",
"298 363 OFFCURVE",
"296 369 OFFCURVE",
"297 374 CURVE SMOOTH",
"308 438 OFFCURVE",
"363 484 OFFCURVE",
"427 484 CURVE SMOOTH",
"663 484 LINE SMOOTH",
"668 484 OFFCURVE",
"673 486 OFFCURVE",
"677 490 CURVE SMOOTH",
"681 494 OFFCURVE",
"683 499 OFFCURVE",
"683 504 CURVE SMOOTH",
"683 604 LINE SMOOTH",
"683 615 OFFCURVE",
"674 624 OFFCURVE",
"663 624 CURVE SMOOTH",
"427 624 LINE SMOOTH",
"355 624 OFFCURVE",
"286 596 OFFCURVE",
"235 544 CURVE SMOOTH",
"189 498 OFFCURVE",
"160 437 OFFCURVE",
"156 370 CURVE SMOOTH",
"155 359 OFFCURVE",
"146 351 OFFCURVE",
"136 351 CURVE SMOOTH",
"66 351 LINE SMOOTH",
"60 351 OFFCURVE",
"54 347 OFFCURVE",
"51 341 CURVE",
"49 335 OFFCURVE",
"50 329 OFFCURVE",
"55 324 CURVE SMOOTH",
"214 165 LINE SMOOTH",
"217 162 OFFCURVE",
"221 160 OFFCURVE",
"225 160 CURVE SMOOTH",
"230 160 OFFCURVE",
"234 162 OFFCURVE",
"237 165 CURVE SMOOTH",
"396 324 LINE SMOOTH",
"401 329 OFFCURVE",
"402 335 OFFCURVE",
"400 341 CURVE",
"397 347 OFFCURVE",
"391 351 OFFCURVE",
"385 351 CURVE SMOOTH"
);
},
{
closed = 1;
nodes = (
"886 537 LINE SMOOTH",
"883 540 OFFCURVE",
"879 542 OFFCURVE",
"875 542 CURVE SMOOTH",
"871 542 OFFCURVE",
"867 540 OFFCURVE",
"864 537 CURVE SMOOTH",
"704 378 LINE",
"700 373 OFFCURVE",
"698 367 OFFCURVE",
"701 361 CURVE",
"703 355 OFFCURVE",
"709 351 OFFCURVE",
"716 351 CURVE SMOOTH",
"805 351 LINE",
"805 272 OFFCURVE",
"743 216 OFFCURVE",
"673 216 CURVE SMOOTH",
"437 216 LINE SMOOTH",
"426 216 OFFCURVE",
"417 207 OFFCURVE",
"417 196 CURVE SMOOTH",
"417 96 LINE SMOOTH",
"417 85 OFFCURVE",
"426 76 OFFCURVE",
"437 76 CURVE SMOOTH",
"673 76 LINE SMOOTH",
"745 76 OFFCURVE",
"814 104 OFFCURVE",
"865 156 CURVE SMOOTH",
"915 206 OFFCURVE",
"945 273 OFFCURVE",
"945 351 CURVE",
"1034 351 LINE SMOOTH",
"1041 351 OFFCURVE",
"1047 355 OFFCURVE",
"1049 361 CURVE",
"1052 367 OFFCURVE",
"1050 373 OFFCURVE",
"1046 378 CURVE"
);
}
);
width = 1100.44;
}
);
unicode = E065;
},
{
glyphname = sf.player.volume.muted;
lastChange = "2014-08-12 12:02:06 +0000";
layers = (
{
layerId = "7BDE272C-C7FB-4166-8673-7B6B584E769E";
name = Regular;
paths = (
{
closed = 1;
nodes = (
"746 350 LINE",
"859 463 LINE",
"874 477 OFFCURVE",
"874 500 OFFCURVE",
"859 514 CURVE",
"821 551 LINE SMOOTH",
"807 565 OFFCURVE",
"784 565 OFFCURVE",
"770 551 CURVE SMOOTH",
"657 438 LINE",
"542 553 LINE SMOOTH",
"528 567 OFFCURVE",
"506 567 OFFCURVE",
"492 553 CURVE SMOOTH",
"453 514 LINE SMOOTH",
"439 500 OFFCURVE",
"439 478 OFFCURVE",
"453 464 CURVE SMOOTH",
"569 350 LINE",
"454 236 LINE SMOOTH",
"440 222 OFFCURVE",
"440 198 OFFCURVE",
"454 184 CURVE SMOOTH",
"492 147 LINE SMOOTH",
"506 133 OFFCURVE",
"529 133 OFFCURVE",
"543 147 CURVE SMOOTH",
"657 260 LINE",
"770 147 LINE SMOOTH",
"784 133 OFFCURVE",
"806 133 OFFCURVE",
"820 147 CURVE SMOOTH",
"859 186 LINE SMOOTH",
"873 200 OFFCURVE",
"873 222 OFFCURVE",
"859 236 CURVE SMOOTH"
);
},
{
closed = 1;
nodes = (
"50 457 OFFCURVE",
"58 465 OFFCURVE",
"69 465 CURVE SMOOTH",
"160 465 LINE SMOOTH",
"164 465 OFFCURVE",
"169 466 OFFCURVE",
"172 470 CURVE SMOOTH",
"326 624 LINE SMOOTH",
"331 628 OFFCURVE",
"338 631 OFFCURVE",
"345 627 CURVE",
"352 625 OFFCURVE",
"355 619 OFFCURVE",
"355 612 CURVE SMOOTH",
"355 88 LINE SMOOTH",
"355 81 OFFCURVE",
"352 74 OFFCURVE",
"345 71 CURVE SMOOTH",
"338 69 OFFCURVE",
"331 70 OFFCURVE",
"326 75 CURVE SMOOTH",
"172 229 LINE SMOOTH",
"169 232 OFFCURVE",
"164 234 OFFCURVE",
"160 234 CURVE SMOOTH",
"69 234 LINE SMOOTH",
"58 234 OFFCURVE",
"50 241 OFFCURVE",
"50 252 CURVE SMOOTH",
"50 448 LINE SMOOTH"
);
}
);
width = 920.25;
}
);
unicode = E066;
},
{
glyphname = sf.player.volume.middle;
lastChange = "2014-08-12 12:01:20 +0000";
layers = (
{
layerId = "7BDE272C-C7FB-4166-8673-7B6B584E769E";
name = Regular;
paths = (
{
closed = 1;
nodes = (
"50 457 OFFCURVE",
"58 465 OFFCURVE",
"68 465 CURVE SMOOTH",
"159 465 LINE SMOOTH",
"164 465 OFFCURVE",
"169 466 OFFCURVE",
"172 470 CURVE SMOOTH",
"326 623 LINE SMOOTH",
"331 628 OFFCURVE",
"338 630 OFFCURVE",
"345 627 CURVE",
"352 625 OFFCURVE",
"355 619 OFFCURVE",
"355 612 CURVE SMOOTH",
"355 87 LINE SMOOTH",
"355 80 OFFCURVE",
"352 73 OFFCURVE",
"345 71 CURVE SMOOTH",
"338 69 OFFCURVE",
"331 70 OFFCURVE",
"326 75 CURVE SMOOTH",
"172 228 LINE SMOOTH",
"169 232 OFFCURVE",
"164 234 OFFCURVE",
"159 234 CURVE SMOOTH",
"68 234 LINE SMOOTH",
"58 234 OFFCURVE",
"50 241 OFFCURVE",
"50 252 CURVE SMOOTH",
"50 448 LINE SMOOTH"
);
},
{
closed = 1;
nodes = (
"551 105 OFFCURVE",
"554 108 OFFCURVE",
"556 112 CURVE SMOOTH",
"590 182 OFFCURVE",
"610 263 OFFCURVE",
"610 349 CURVE SMOOTH",
"610 436 OFFCURVE",
"590 517 OFFCURVE",
"556 587 CURVE SMOOTH",
"554 591 OFFCURVE",
"551 594 OFFCURVE",
"547 595 CURVE SMOOTH",
"543 596 OFFCURVE",
"538 595 OFFCURVE",
"535 593 CURVE SMOOTH",
"452 546 LINE SMOOTH",
"445 542 OFFCURVE",
"443 533 OFFCURVE",
"446 526 CURVE SMOOTH",
"471 474 OFFCURVE",
"485 413 OFFCURVE",
"485 349 CURVE SMOOTH",
"485 285 OFFCURVE",
"471 225 OFFCURVE",
"446 172 CURVE SMOOTH",
"443 165 OFFCURVE",
"445 157 OFFCURVE",
"452 153 CURVE SMOOTH",
"535 105 LINE SMOOTH",
"538 103 OFFCURVE",
"543 103 OFFCURVE",
"547 104 CURVE SMOOTH"
);
}
);
width = 660;
}
);
unicode = E067;
},
{
glyphname = sf.player.volume.max;
lastChange = "2014-08-11 16:41:46 +0000";
layers = (
{
layerId = "7BDE272C-C7FB-4166-8673-7B6B584E769E";
name = Regular;
paths = (
{
closed = 1;
nodes = (
"50 458 OFFCURVE",
"58 466 OFFCURVE",
"69 466 CURVE SMOOTH",
"160 466 LINE SMOOTH",
"164 466 OFFCURVE",
"169 467 OFFCURVE",
"172 470 CURVE SMOOTH",
"326 624 LINE SMOOTH",
"331 629 OFFCURVE",
"338 631 OFFCURVE",
"345 628 CURVE",
"352 625 OFFCURVE",
"355 620 OFFCURVE",
"355 613 CURVE SMOOTH",
"355 88 LINE SMOOTH",
"355 81 OFFCURVE",
"352 74 OFFCURVE",
"345 72 CURVE SMOOTH",
"338 70 OFFCURVE",
"331 71 OFFCURVE",
"326 75 CURVE SMOOTH",
"172 229 LINE SMOOTH",
"169 233 OFFCURVE",
"164 235 OFFCURVE",
"160 235 CURVE SMOOTH",
"69 235 LINE SMOOTH",
"58 235 OFFCURVE",
"50 242 OFFCURVE",
"50 253 CURVE SMOOTH",
"50 448 LINE SMOOTH"
);
},
{
closed = 1;
nodes = (
"551 106 OFFCURVE",
"554 109 OFFCURVE",
"556 112 CURVE SMOOTH",
"590 183 OFFCURVE",
"610 264 OFFCURVE",
"610 350 CURVE SMOOTH",
"610 437 OFFCURVE",
"590 517 OFFCURVE",
"556 588 CURVE SMOOTH",
"554 592 OFFCURVE",
"551 594 OFFCURVE",
"547 596 CURVE SMOOTH",
"543 597 OFFCURVE",
"538 596 OFFCURVE",
"535 594 CURVE SMOOTH",
"452 547 LINE SMOOTH",
"445 543 OFFCURVE",
"443 534 OFFCURVE",
"446 527 CURVE SMOOTH",
"471 474 OFFCURVE",
"485 414 OFFCURVE",
"485 350 CURVE SMOOTH",
"485 286 OFFCURVE",
"471 226 OFFCURVE",
"446 173 CURVE SMOOTH",
"443 166 OFFCURVE",
"445 158 OFFCURVE",
"452 154 CURVE SMOOTH",
"535 106 LINE SMOOTH",
"538 104 OFFCURVE",
"543 103 OFFCURVE",
"547 105 CURVE SMOOTH"
);
},
{
closed = 1;
nodes = (
"749 -9 OFFCURVE",
"752 -6 OFFCURVE",
"754 -2 CURVE SMOOTH",
"805 102 OFFCURVE",
"834 222 OFFCURVE",
"834 350 CURVE SMOOTH",
"834 479 OFFCURVE",
"805 598 OFFCURVE",
"754 702 CURVE SMOOTH",
"752 706 OFFCURVE",
"749 709 OFFCURVE",
"745 710 CURVE SMOOTH",
"741 711 OFFCURVE",
"737 711 OFFCURVE",
"733 709 CURVE SMOOTH",
"650 661 LINE SMOOTH",
"644 657 OFFCURVE",
"641 649 OFFCURVE",
"644 642 CURVE SMOOTH",
"686 555 OFFCURVE",
"709 455 OFFCURVE",
"709 350 CURVE SMOOTH",
"709 245 OFFCURVE",
"686 146 OFFCURVE",
"644 59 CURVE SMOOTH",
"641 52 OFFCURVE",
"644 43 OFFCURVE",
"650 39 CURVE SMOOTH",
"733 -8 LINE SMOOTH",
"737 -11 OFFCURVE",
"741 -11 OFFCURVE",
"745 -10 CURVE SMOOTH"
);
}
);
width = 884;
}
);
unicode = E068;
},
{
glyphname = sf.resize;
lastChange = "2014-08-11 13:39:31 +0000";
layers = (
{
layerId = "7BDE272C-C7FB-4166-8673-7B6B584E769E";
name = Regular;
paths = (
{
closed = 1;
nodes = (
"306 16 LINE SMOOTH",
"298 24 OFFCURVE",
"298 37 OFFCURVE",
"306 45 CURVE SMOOTH",
"785 524 LINE SMOOTH",
"793 532 OFFCURVE",
"806 532 OFFCURVE",
"814 524 CURVE SMOOTH",
"875 463 LINE SMOOTH",
"881 457 OFFCURVE",
"890 455 OFFCURVE",
"897 458 CURVE SMOOTH",
"905 461 OFFCURVE",
"910 469 OFFCURVE",
"910 477 CURVE SMOOTH",
"910 759 LINE SMOOTH",
"910 765 OFFCURVE",
"908 770 OFFCURVE",
"904 774 CURVE SMOOTH",
"900 777 OFFCURVE",
"895 779 OFFCURVE",
"890 779 CURVE SMOOTH",
"608 779 LINE SMOOTH",
"600 779 OFFCURVE",
"592 774 OFFCURVE",
"589 767 CURVE SMOOTH",
"586 759 OFFCURVE",
"587 750 OFFCURVE",
"593 745 CURVE SMOOTH",
"654 684 LINE SMOOTH",
"662 676 OFFCURVE",
"662 663 OFFCURVE",
"655 655 CURVE SMOOTH",
"175 176 LINE SMOOTH",
"167 168 OFFCURVE",
"154 168 OFFCURVE",
"146 176 CURVE SMOOTH",
"85 238 LINE SMOOTH",
"79 243 OFFCURVE",
"70 245 OFFCURVE",
"63 242 CURVE SMOOTH",
"55 239 OFFCURVE",
"50 231 OFFCURVE",
"50 223 CURVE SMOOTH",
"50 -59 LINE SMOOTH",
"50 -64 OFFCURVE",
"52 -70 OFFCURVE",
"56 -73 CURVE SMOOTH",
"60 -77 OFFCURVE",
"65 -79 OFFCURVE",
"70 -79 CURVE SMOOTH",
"352 -79 LINE SMOOTH",
"361 -79 OFFCURVE",
"368 -74 OFFCURVE",
"371 -67 CURVE SMOOTH",
"374 -59 OFFCURVE",
"373 -50 OFFCURVE",
"367 -44 CURVE SMOOTH"
);
},
{
closed = 1;
nodes = (
"909 222 LINE SMOOTH",
"909 231 OFFCURVE",
"904 238 OFFCURVE",
"897 241 CURVE SMOOTH",
"889 244 OFFCURVE",
"880 243 OFFCURVE",
"875 237 CURVE SMOOTH",
"814 176 LINE SMOOTH",
"806 168 OFFCURVE",
"793 168 OFFCURVE",
"785 176 CURVE SMOOTH",
"306 655 LINE SMOOTH",
"298 663 OFFCURVE",
"298 676 OFFCURVE",
"306 684 CURVE SMOOTH",
"368 745 LINE SMOOTH",
"373 751 OFFCURVE",
"375 760 OFFCURVE",
"372 767 CURVE SMOOTH",
"369 775 OFFCURVE",
"361 780 OFFCURVE",
"353 780 CURVE SMOOTH",
"71 780 LINE SMOOTH",
"66 780 OFFCURVE",
"60 778 OFFCURVE",
"57 774 CURVE SMOOTH",
"53 770 OFFCURVE",
"51 765 OFFCURVE",
"51 760 CURVE SMOOTH",
"51 478 LINE SMOOTH",
"51 470 OFFCURVE",
"56 462 OFFCURVE",
"63 459 CURVE SMOOTH",
"71 456 OFFCURVE",
"80 458 OFFCURVE",
"86 463 CURVE SMOOTH",
"146 524 LINE SMOOTH",
"154 532 OFFCURVE",
"167 532 OFFCURVE",
"175 524 CURVE SMOOTH",
"654 45 LINE SMOOTH",
"662 37 OFFCURVE",
"662 24 OFFCURVE",
"654 16 CURVE SMOOTH",
"593 -45 LINE SMOOTH",
"587 -51 OFFCURVE",
"585 -60 OFFCURVE",
"588 -67 CURVE SMOOTH",
"591 -75 OFFCURVE",
"599 -80 OFFCURVE",
"607 -80 CURVE SMOOTH",
"889 -80 LINE SMOOTH",
"895 -80 OFFCURVE",
"900 -78 OFFCURVE",
"903 -74 CURVE SMOOTH",
"907 -70 OFFCURVE",
"909 -65 OFFCURVE",
"909 -60 CURVE SMOOTH"
);
}
);
width = 960;
}
);
unicode = E069;
},
{
glyphname = sf.resize.h;
lastChange = "2014-08-11 13:39:31 +0000";
layers = (
{
layerId = "7BDE272C-C7FB-4166-8673-7B6B584E769E";
name = Regular;
paths = (
{
closed = 1;
nodes = (
"290 237 LINE",
"290 248 OFFCURVE",
"299 257 OFFCURVE",
"310 257 CURVE SMOOTH",
"649 257 LINE SMOOTH",
"661 257 OFFCURVE",
"669 248 OFFCURVE",
"669 237 CURVE SMOOTH",
"669 150 LINE SMOOTH",
"669 142 OFFCURVE",
"674 134 OFFCURVE",
"682 131 CURVE SMOOTH",
"690 128 OFFCURVE",
"698 130 OFFCURVE",
"704 136 CURVE SMOOTH",
"904 335 LINE SMOOTH",
"908 339 OFFCURVE",
"910 344 OFFCURVE",
"910 349 CURVE SMOOTH",
"910 355 OFFCURVE",
"908 360 OFFCURVE",
"904 364 CURVE SMOOTH",
"704 563 LINE SMOOTH",
"698 569 OFFCURVE",
"690 570 OFFCURVE",
"682 567 CURVE SMOOTH",
"674 564 OFFCURVE",
"669 557 OFFCURVE",
"669 549 CURVE SMOOTH",
"669 463 LINE SMOOTH",
"669 451 OFFCURVE",
"661 442 OFFCURVE",
"649 442 CURVE SMOOTH",
"310 442 LINE SMOOTH",
"299 442 OFFCURVE",
"290 451 OFFCURVE",
"290 463 CURVE",
"290 550 LINE SMOOTH",
"290 558 OFFCURVE",
"285 565 OFFCURVE",
"278 568 CURVE SMOOTH",
"270 571 OFFCURVE",
"261 570 OFFCURVE",
"256 564 CURVE SMOOTH",
"56 365 LINE SMOOTH",
"52 361 OFFCURVE",
"50 356 OFFCURVE",
"50 350 CURVE SMOOTH",
"50 345 OFFCURVE",
"52 340 OFFCURVE",
"56 336 CURVE SMOOTH",
"255 137 LINE SMOOTH",
"261 131 OFFCURVE",
"270 129 OFFCURVE",
"278 132 CURVE SMOOTH",
"285 135 OFFCURVE",
"290 143 OFFCURVE",
"290 151 CURVE"
);
}
);
width = 960;
}
);
unicode = E06A;
},
{
glyphname = sf.resize.v;
lastChange = "2014-08-11 13:39:31 +0000";
layers = (
{
layerId = "7BDE272C-C7FB-4166-8673-7B6B584E769E";
name = Regular;
paths = (
{
closed = 1;
nodes = (
"383 160 LINE SMOOTH",
"372 160 OFFCURVE",
"363 169 OFFCURVE",
"363 180 CURVE SMOOTH",
"363 519 LINE SMOOTH",
"363 531 OFFCURVE",
"372 539 OFFCURVE",
"383 539 CURVE SMOOTH",
"470 539 LINE SMOOTH",
"478 539 OFFCURVE",
"486 544 OFFCURVE",
"489 552 CURVE SMOOTH",
"492 560 OFFCURVE",
"490 568 OFFCURVE",
"484 574 CURVE SMOOTH",
"285 774 LINE SMOOTH",
"281 778 OFFCURVE",
"276 780 OFFCURVE",
"271 780 CURVE SMOOTH",
"265 780 OFFCURVE",
"260 778 OFFCURVE",
"256 774 CURVE SMOOTH",
"57 574 LINE SMOOTH",
"51 568 OFFCURVE",
"50 560 OFFCURVE",
"53 552 CURVE SMOOTH",
"56 544 OFFCURVE",
"63 539 OFFCURVE",
"71 539 CURVE SMOOTH",
"157 539 LINE SMOOTH",
"169 539 OFFCURVE",
"178 531 OFFCURVE",
"178 519 CURVE SMOOTH",
"178 180 LINE SMOOTH",
"178 169 OFFCURVE",
"169 160 OFFCURVE",
"157 160 CURVE SMOOTH",
"70 160 LINE SMOOTH",
"62 160 OFFCURVE",
"55 155 OFFCURVE",
"52 148 CURVE SMOOTH",
"49 140 OFFCURVE",
"50 131 OFFCURVE",
"56 126 CURVE SMOOTH",
"255 -74 LINE SMOOTH",
"259 -78 OFFCURVE",
"264 -80 OFFCURVE",
"270 -80 CURVE SMOOTH",
"275 -80 OFFCURVE",
"280 -78 OFFCURVE",
"284 -74 CURVE SMOOTH",
"483 125 LINE SMOOTH",
"489 131 OFFCURVE",
"491 140 OFFCURVE",
"488 148 CURVE SMOOTH",
"485 155 OFFCURVE",
"477 160 OFFCURVE",
"469 160 CURVE SMOOTH"
);
}
);
width = 540.378;
}
);
unicode = E06B;
},
{
glyphname = sf.resize.expand;
lastChange = "2014-08-11 13:39:31 +0000";
layers = (
{
layerId = "7BDE272C-C7FB-4166-8673-7B6B584E769E";
name = Regular;
paths = (
{
closed = 1;
nodes = (
"910 765 OFFCURVE",
"907 770 OFFCURVE",
"904 774 CURVE SMOOTH",
"900 778 OFFCURVE",
"895 780 OFFCURVE",
"889 780 CURVE SMOOTH",
"607 780 LINE SMOOTH",
"599 780 OFFCURVE",
"591 775 OFFCURVE",
"588 767 CURVE SMOOTH",
"585 760 OFFCURVE",
"587 751 OFFCURVE",
"593 745 CURVE SMOOTH",
"653 684 LINE SMOOTH",
"661 676 OFFCURVE",
"662 664 OFFCURVE",
"654 656 CURVE SMOOTH",
"494 496 LINE SMOOTH",
"487 488 OFFCURVE",
"486 475 OFFCURVE",
"494 467 CURVE SMOOTH",
"596 365 LINE SMOOTH",
"604 357 OFFCURVE",
"617 358 OFFCURVE",
"625 366 CURVE SMOOTH",
"785 525 LINE SMOOTH",
"793 533 OFFCURVE",
"805 532 OFFCURVE",
"813 525 CURVE SMOOTH",
"875 463 LINE SMOOTH",
"880 457 OFFCURVE",
"889 456 OFFCURVE",
"897 459 CURVE SMOOTH",
"904 462 OFFCURVE",
"909 469 OFFCURVE",
"909 478 CURVE SMOOTH",
"910 760 LINE SMOOTH"
);
},
{
closed = 1;
nodes = (
"50 -65 OFFCURVE",
"52 -70 OFFCURVE",
"56 -74 CURVE SMOOTH",
"60 -77 OFFCURVE",
"65 -80 OFFCURVE",
"70 -80 CURVE SMOOTH",
"352 -79 LINE SMOOTH",
"361 -79 OFFCURVE",
"368 -74 OFFCURVE",
"371 -67 CURVE SMOOTH",
"374 -59 OFFCURVE",
"373 -51 OFFCURVE",
"367 -45 CURVE SMOOTH",
"306 16 LINE SMOOTH",
"298 24 OFFCURVE",
"298 37 OFFCURVE",
"306 45 CURVE SMOOTH",
"465 204 LINE SMOOTH",
"473 212 OFFCURVE",
"473 225 OFFCURVE",
"465 233 CURVE SMOOTH",
"363 335 LINE SMOOTH",
"355 343 OFFCURVE",
"342 343 OFFCURVE",
"334 335 CURVE SMOOTH",
"175 176 LINE SMOOTH",
"167 168 OFFCURVE",
"154 168 OFFCURVE",
"146 176 CURVE SMOOTH",
"85 237 LINE SMOOTH",
"79 243 OFFCURVE",
"70 245 OFFCURVE",
"63 242 CURVE SMOOTH",
"55 238 OFFCURVE",
"50 231 OFFCURVE",
"50 223 CURVE SMOOTH",
"50 -59 LINE SMOOTH"
);
}
);
width = 960;
}
);
unicode = E06C;
},
{
glyphname = sf.resize.compress;
lastChange = "2014-08-11 13:39:31 +0000";
layers = (
{
layerId = "7BDE272C-C7FB-4166-8673-7B6B584E769E";
name = Regular;
paths = (
{
closed = 1;
nodes = (
"489 376 OFFCURVE",
"491 371 OFFCURVE",
"495 367 CURVE SMOOTH",
"498 363 OFFCURVE",
"504 361 OFFCURVE",
"509 361 CURVE SMOOTH",
"791 361 LINE SMOOTH",
"799 361 OFFCURVE",
"807 366 OFFCURVE",
"810 374 CURVE SMOOTH",
"813 381 OFFCURVE",
"811 390 OFFCURVE",
"805 396 CURVE SMOOTH",
"744 457 LINE SMOOTH",
"737 465 OFFCURVE",
"737 477 OFFCURVE",
"744 485 CURVE SMOOTH",
"904 645 LINE SMOOTH",
"912 653 OFFCURVE",
"912 665 OFFCURVE",
"904 673 CURVE SMOOTH",
"802 776 LINE SMOOTH",
"794 784 OFFCURVE",
"781 783 OFFCURVE",
"773 775 CURVE SMOOTH",
"614 616 LINE SMOOTH",
"606 608 OFFCURVE",
"593 608 OFFCURVE",
"585 616 CURVE SMOOTH",
"523 678 LINE SMOOTH",
"518 684 OFFCURVE",
"509 685 OFFCURVE",
"501 682 CURVE SMOOTH",
"494 679 OFFCURVE",
"489 672 OFFCURVE",
"489 663 CURVE SMOOTH",
"489 381 LINE SMOOTH"
);
},
{
closed = 1;
nodes = (
"471 328 OFFCURVE",
"469 333 OFFCURVE",
"465 337 CURVE SMOOTH",
"461 340 OFFCURVE",
"456 342 OFFCURVE",
"451 342 CURVE SMOOTH",
"169 342 LINE SMOOTH",
"161 342 OFFCURVE",
"153 337 OFFCURVE",
"150 330 CURVE SMOOTH",
"147 322 OFFCURVE",
"149 314 OFFCURVE",
"154 308 CURVE SMOOTH",
"215 247 LINE SMOOTH",
"223 239 OFFCURVE",
"223 226 OFFCURVE",
"215 218 CURVE SMOOTH",
"56 59 LINE SMOOTH",
"48 51 OFFCURVE",
"48 38 OFFCURVE",
"56 30 CURVE SMOOTH",
"158 -72 LINE SMOOTH",
"166 -80 OFFCURVE",
"179 -80 OFFCURVE",
"187 -72 CURVE SMOOTH",
"346 87 LINE SMOOTH",
"354 95 OFFCURVE",
"367 95 OFFCURVE",
"375 87 CURVE SMOOTH",
"436 26 LINE SMOOTH",
"442 20 OFFCURVE",
"451 18 OFFCURVE",
"458 21 CURVE SMOOTH",
"466 25 OFFCURVE",
"471 32 OFFCURVE",
"471 40 CURVE SMOOTH",
"471 322 LINE SMOOTH"
);
}
);
width = 960;
}
);
unicode = E06D;
},
{
glyphname = sf.reload;
lastChange = "2014-08-11 13:39:31 +0000";
layers = (
{
layerId = "7BDE272C-C7FB-4166-8673-7B6B584E769E";
name = Regular;
paths = (
{
closed = 1;
nodes = (
"704 733 OFFCURVE",
"597 781 OFFCURVE",
"481 781 CURVE SMOOTH",
"271 781 OFFCURVE",
"97 632 OFFCURVE",
"59 434 CURVE SMOOTH",
"58 431 OFFCURVE",
"59 428 OFFCURVE",
"61 426 CURVE SMOOTH",
"63 423 OFFCURVE",
"65 422 OFFCURVE",
"68 422 CURVE SMOOTH",
"192 422 LINE SMOOTH",
"196 422 OFFCURVE",
"200 425 OFFCURVE",
"201 429 CURVE SMOOTH",
"235 551 OFFCURVE",
"347 641 OFFCURVE",
"481 641 CURVE SMOOTH",
"557 641 OFFCURVE",
"629 609 OFFCURVE",
"681 560 CURVE",
"556 439 LINE SMOOTH",
"553 437 OFFCURVE",
"552 432 OFFCURVE",
"553 428 CURVE SMOOTH",
"555 425 OFFCURVE",
"559 422 OFFCURVE",
"563 422 CURVE SMOOTH",
"900 422 LINE SMOOTH",
"905 422 OFFCURVE",
"910 427 OFFCURVE",
"910 432 CURVE SMOOTH",
"910 758 LINE SMOOTH",
"910 762 OFFCURVE",
"907 765 OFFCURVE",
"904 767 CURVE SMOOTH",
"900 768 OFFCURVE",
"896 768 OFFCURVE",
"893 765 CURVE SMOOTH",
"782 658 LINE"
);
},
{
closed = 1;
nodes = (
"764 280 OFFCURVE",
"760 277 OFFCURVE",
"759 273 CURVE SMOOTH",
"725 150 OFFCURVE",
"613 60 OFFCURVE",
"479 60 CURVE SMOOTH",
"402 60 OFFCURVE",
"331 92 OFFCURVE",
"279 141 CURVE",
"404 262 LINE SMOOTH",
"407 265 OFFCURVE",
"408 269 OFFCURVE",
"406 273 CURVE SMOOTH",
"405 277 OFFCURVE",
"401 279 OFFCURVE",
"397 279 CURVE SMOOTH",
"60 279 LINE SMOOTH",
"54 279 OFFCURVE",
"50 275 OFFCURVE",
"50 269 CURVE SMOOTH",
"50 -33 LINE SMOOTH",
"50 -41 OFFCURVE",
"55 -48 OFFCURVE",
"62 -51 CURVE SMOOTH",
"70 -54 OFFCURVE",
"78 -53 OFFCURVE",
"84 -47 CURVE SMOOTH",
"178 43 LINE",
"255 -32 OFFCURVE",
"363 -80 OFFCURVE",
"479 -80 CURVE SMOOTH",
"688 -80 OFFCURVE",
"863 70 OFFCURVE",
"901 268 CURVE SMOOTH",
"902 271 OFFCURVE",
"901 274 OFFCURVE",
"899 276 CURVE SMOOTH",
"897 279 OFFCURVE",
"894 280 OFFCURVE",
"891 280 CURVE SMOOTH",
"768 280 LINE SMOOTH"
);
}
);
width = 960;
}
);
unicode = E06E;
},
{
glyphname = sf.refresh;
lastChange = "2014-08-11 13:39:31 +0000";
layers = (
{
layerId = "7BDE272C-C7FB-4166-8673-7B6B584E769E";
name = Regular;
paths = (
{
closed = 1;
nodes = (
"900 767 OFFCURVE",
"896 767 OFFCURVE",
"893 764 CURVE SMOOTH",
"782 657 LINE",
"704 733 OFFCURVE",
"596 780 OFFCURVE",
"481 780 CURVE SMOOTH",
"481 780 OFFCURVE",
"481 780 OFFCURVE",
"481 780 CURVE SMOOTH",
"480 780 OFFCURVE",
"480 780 OFFCURVE",
"480 780 CURVE SMOOTH",
"243 780 OFFCURVE",
"50 587 OFFCURVE",
"50 350 CURVE SMOOTH",
"50 113 OFFCURVE",
"243 -80 OFFCURVE",
"480 -80 CURVE SMOOTH",
"689 -80 OFFCURVE",
"863 69 OFFCURVE",
"902 267 CURVE SMOOTH",
"903 270 OFFCURVE",
"902 273 OFFCURVE",
"900 275 CURVE SMOOTH",
"898 278 OFFCURVE",
"895 279 OFFCURVE",
"892 279 CURVE SMOOTH",
"769 279 LINE SMOOTH",
"764 279 OFFCURVE",
"760 276 OFFCURVE",
"759 272 CURVE SMOOTH",
"725 150 OFFCURVE",
"613 60 OFFCURVE",
"480 60 CURVE SMOOTH",
"320 60 OFFCURVE",
"190 190 OFFCURVE",
"190 350 CURVE SMOOTH",
"190 504 OFFCURVE",
"316 640 OFFCURVE",
"481 640 CURVE SMOOTH",
"482 640 OFFCURVE",
"483 640 OFFCURVE",
"484 640 CURVE SMOOTH",
"555 639 OFFCURVE",
"627 611 OFFCURVE",
"681 559 CURVE",
"556 438 LINE SMOOTH",
"553 436 OFFCURVE",
"552 431 OFFCURVE",
"554 427 CURVE SMOOTH",
"555 424 OFFCURVE",
"559 421 OFFCURVE",
"563 421 CURVE SMOOTH",
"900 421 LINE SMOOTH",
"906 421 OFFCURVE",
"910 426 OFFCURVE",
"910 431 CURVE SMOOTH",
"910 757 LINE SMOOTH",
"910 761 OFFCURVE",
"908 764 OFFCURVE",
"904 766 CURVE SMOOTH"
);
}
);
width = 960;
}
);
unicode = E06F;
},
{
glyphname = sf.home;
lastChange = "2014-08-11 13:39:31 +0000";
layers = (
{
layerId = "7BDE272C-C7FB-4166-8673-7B6B584E769E";
name = Regular;
paths = (
{
closed = 1;
nodes = (
"785 15 OFFCURVE",
"776 6 OFFCURVE",
"765 6 CURVE SMOOTH",
"567 6 LINE SMOOTH",
"556 6 OFFCURVE",
"547 15 OFFCURVE",
"547 26 CURVE SMOOTH",
"547 190 LINE SMOOTH",
"547 201 OFFCURVE",
"538 210 OFFCURVE",
"527 210 CURVE SMOOTH",
"431 210 LINE SMOOTH",
"420 210 OFFCURVE",
"411 201 OFFCURVE",
"411 190 CURVE SMOOTH",
"411 26 LINE SMOOTH",
"411 15 OFFCURVE",
"402 6 OFFCURVE",
"391 6 CURVE SMOOTH",
"193 6 LINE SMOOTH",
"182 6 OFFCURVE",
"173 15 OFFCURVE",
"173 26 CURVE SMOOTH",
"173 84 OFFCURVE",
"173 248 OFFCURVE",
"173 289 CURVE SMOOTH",
"173 295 OFFCURVE",
"176 301 OFFCURVE",
"180 305 CURVE SMOOTH",
"479 551 LINE",
"778 305 LINE SMOOTH",
"783 301 OFFCURVE",
"785 295 OFFCURVE",
"785 289 CURVE SMOOTH",
"786 248 OFFCURVE",
"785 84 OFFCURVE",
"785 26 CURVE SMOOTH"
);
},
{
closed = 1;
nodes = (
"871 293 LINE SMOOTH",
"869 290 OFFCURVE",
"865 288 OFFCURVE",
"860 287 CURVE",
"859 287 LINE SMOOTH",
"854 287 OFFCURVE",
"850 288 OFFCURVE",
"847 291 CURVE",
"479 598 LINE",
"111 291 LINE",
"106 288 OFFCURVE",
"102 287 OFFCURVE",
"98 287 CURVE SMOOTH",
"93 288 OFFCURVE",
"89 290 OFFCURVE",
"87 293 CURVE SMOOTH",
"54 332 LINE SMOOTH",
"48 339 OFFCURVE",
"49 350 OFFCURVE",
"56 356 CURVE SMOOTH",
"439 675 LINE SMOOTH",
"461 694 OFFCURVE",
"497 694 OFFCURVE",
"520 675 CURVE SMOOTH",
"649 567 LINE",
"649 670 LINE SMOOTH",
"649 681 OFFCURVE",
"656 687 OFFCURVE",
"666 687 CURVE SMOOTH",
"769 687 LINE SMOOTH",
"779 687 OFFCURVE",
"786 681 OFFCURVE",
"786 670 CURVE SMOOTH",
"786 453 LINE",
"902 356 LINE SMOOTH",
"909 350 OFFCURVE",
"910 339 OFFCURVE",
"904 332 CURVE SMOOTH"
);
}
);
width = 957.94;
}
);
unicode = E070;
},
{
glyphname = sf.ink.badge;
lastChange = "2014-08-11 16:55:41 +0000";
layers = (
{
layerId = "7BDE272C-C7FB-4166-8673-7B6B584E769E";
name = Regular;
paths = (
{
closed = 1;
nodes = (
"50 63 LINE",
"50 473 LINE",
"132 473 LINE",
"132 63 LINE"
);
},
{
closed = 1;
nodes = (
"464 63 LINE",
"298 343 LINE",
"297 343 LINE",
"297 63 LINE",
"214 63 LINE",
"214 473 LINE",
"297 473 LINE",
"462 193 LINE",
"464 193 LINE",
"464 473 LINE",
"546 473 LINE",
"546 63 LINE"
);
},
{
closed = 1;
nodes = (
"705 234 LINE",
"705 63 LINE",
"623 63 LINE",
"623 473 LINE",
"705 473 LINE",
"705 306 LINE",
"741 306 LINE",
"850 473 LINE",
"951 473 LINE",
"812 282 LINE",
"962 63 LINE",
"861 63 LINE",
"751 234 LINE"
);
},
{
closed = 1;
nodes = (
"109 538 LINE",
"148 636 LINE",
"169 636 LINE",
"169 515 LINE",
"153 515 LINE",
"153 563 LINE",
"155 612 LINE",
"115 515 LINE",
"104 515 LINE",
"65 612 LINE",
"66 563 LINE",
"66 515 LINE",
"50 515 LINE",
"50 636 LINE",
"71 636 LINE"
);
},
{
closed = 1;
nodes = (
"216 546 LINE",
"204 515 LINE",
"187 515 LINE",
"234 636 LINE",
"248 636 LINE",
"294 515 LINE",
"277 515 LINE",
"266 546 LINE"
);
},
{
closed = 1;
nodes = (
"261 560 LINE",
"241 615 LINE",
"221 560 LINE"
);
},
{
closed = 1;
nodes = (
"311 636 LINE",
"348 636 LINE SMOOTH",
"364 636 OFFCURVE",
"376 631 OFFCURVE",
"386 621 CURVE SMOOTH",
"395 612 OFFCURVE",
"400 599 OFFCURVE",
"400 584 CURVE SMOOTH",
"400 567 LINE SMOOTH",
"400 552 OFFCURVE",
"395 539 OFFCURVE",
"386 530 CURVE SMOOTH",
"376 520 OFFCURVE",
"364 515 OFFCURVE",
"348 515 CURVE SMOOTH",
"311 515 LINE"
);
},
{
closed = 1;
nodes = (
"327 528 LINE",
"348 528 LINE SMOOTH",
"359 528 OFFCURVE",
"368 532 OFFCURVE",
"374 539 CURVE SMOOTH",
"381 546 OFFCURVE",
"384 556 OFFCURVE",
"384 567 CURVE SMOOTH",
"384 584 LINE SMOOTH",
"384 595 OFFCURVE",
"381 605 OFFCURVE",
"374 612 CURVE SMOOTH",
"368 619 OFFCURVE",
"359 623 OFFCURVE",
"348 623 CURVE SMOOTH",
"327 623 LINE"
);
},
{
closed = 1;
nodes = (
"439 571 LINE",
"439 528 LINE",
"503 528 LINE",
"503 515 LINE",
"423 515 LINE",
"423 636 LINE",
"502 636 LINE",
"502 623 LINE",
"439 623 LINE",
"439 584 LINE",
"494 584 LINE",
"494 571 LINE"
);
},
{
closed = 1;
nodes = (
"591 542 LINE",
"594 557 LINE",
"616 636 LINE",
"631 636 LINE",
"653 557 LINE",
"656 541 LINE",
"659 557 LINE",
"677 636 LINE",
"694 636 LINE",
"665 515 LINE",
"650 515 LINE",
"626 599 LINE",
"624 610 LINE",
"621 599 LINE",
"597 515 LINE",
"583 515 LINE",
"554 636 LINE",
"570 636 LINE",
"588 557 LINE"
);
},
{
closed = 1;
nodes = (
"715 515 LINE",
"715 636 LINE",
"731 636 LINE",
"731 515 LINE"
);
},
{
closed = 1;
nodes = (
"803 623 LINE",
"803 515 LINE",
"786 515 LINE",
"786 623 LINE",
"748 623 LINE",
"748 636 LINE",
"841 636 LINE",
"841 623 LINE"
);
},
{
closed = 1;
nodes = (
"934 515 LINE",
"934 568 LINE",
"876 568 LINE",
"876 515 LINE",
"859 515 LINE",
"859 636 LINE",
"876 636 LINE",
"876 581 LINE",
"934 581 LINE",
"934 636 LINE",
"951 636 LINE",
"951 515 LINE"
);
}
);
width = 1012;
}
);
unicode = E071;
},
{
glyphname = sf.ink.badge.neg;
lastChange = "2014-08-11 16:55:41 +0000";
layers = (
{
layerId = "7BDE272C-C7FB-4166-8673-7B6B584E769E";
name = Regular;
paths = (
{
closed = 1;
nodes = (
"50 3 LINE",
"50 697 LINE",
"1050 697 LINE",
"1050 3 LINE"
);
},
{
closed = 1;
nodes = (
"183 64 LINE",
"183 474 LINE",
"100 474 LINE",
"100 64 LINE"
);
},
{
closed = 1;
nodes = (
"512 194 LINE",
"347 474 LINE",
"265 474 LINE",
"265 64 LINE",
"347 64 LINE",
"347 344 LINE",
"349 344 LINE",
"514 64 LINE",
"596 64 LINE",
"596 474 LINE",
"514 474 LINE",
"514 194 LINE"
);
},
{
closed = 1;
nodes = (
"1001 474 LINE",
"900 474 LINE",
"791 306 LINE",
"756 306 LINE",
"756 474 LINE",
"673 474 LINE",
"673 64 LINE",
"756 64 LINE",
"756 235 LINE",
"801 235 LINE",
"911 64 LINE",
"1012 64 LINE",
"863 283 LINE"
);
},
{
closed = 1;
nodes = (
"121 636 LINE",
"100 636 LINE",
"100 516 LINE",
"117 516 LINE",
"117 563 LINE",
"115 612 LINE",
"154 516 LINE",
"165 516 LINE",
"204 613 LINE",
"203 563 LINE",
"203 516 LINE",
"219 516 LINE",
"219 636 LINE",
"199 636 LINE",
"160 538 LINE"
);
},
{
closed = 1;
nodes = (
"328 516 LINE",
"344 516 LINE",
"298 636 LINE",
"284 636 LINE",
"238 516 LINE",
"254 516 LINE",
"266 547 LINE",
"316 547 LINE"
);
},
{
closed = 1;
nodes = (
"311 561 LINE",
"271 561 LINE",
"291 616 LINE"
);
},
{
closed = 1;
nodes = (
"445 540 OFFCURVE",
"450 552 OFFCURVE",
"450 568 CURVE SMOOTH",
"450 584 LINE SMOOTH",
"450 600 OFFCURVE",
"445 612 OFFCURVE",
"436 622 CURVE SMOOTH",
"426 631 OFFCURVE",
"414 636 OFFCURVE",
"398 636 CURVE SMOOTH",
"361 636 LINE",
"361 516 LINE",
"398 516 LINE SMOOTH",
"414 516 OFFCURVE",
"426 521 OFFCURVE",
"436 530 CURVE SMOOTH"
);
},
{
closed = 1;
nodes = (
"398 624 LINE SMOOTH",
"409 624 OFFCURVE",
"418 620 OFFCURVE",
"424 613 CURVE SMOOTH",
"431 605 OFFCURVE",
"434 596 OFFCURVE",
"434 585 CURVE SMOOTH",
"434 568 LINE SMOOTH",
"434 556 OFFCURVE",
"431 547 OFFCURVE",
"424 540 CURVE SMOOTH",
"418 532 OFFCURVE",
"409 529 OFFCURVE",
"398 529 CURVE SMOOTH",
"377 529 LINE",
"377 624 LINE"
);
},
{
closed = 1;
nodes = (
"489 529 LINE",
"489 572 LINE",
"544 572 LINE",
"544 585 LINE",
"489 585 LINE",
"489 624 LINE",
"552 624 LINE",
"552 636 LINE",
"473 636 LINE",
"473 516 LINE",
"553 516 LINE",
"553 529 LINE"
);
},
{
closed = 1;
nodes = (
"676 599 LINE",
"700 516 LINE",
"715 516 LINE",
"744 636 LINE",
"728 636 LINE",
"710 557 LINE",
"707 542 LINE",
"703 557 LINE",
"681 636 LINE",
"667 636 LINE",
"644 557 LINE",
"641 542 LINE",
"639 557 LINE",
"620 636 LINE",
"604 636 LINE",
"633 516 LINE",
"647 516 LINE",
"672 599 LINE",
"674 610 LINE"
);
},
{
closed = 1;
nodes = (
"765 636 LINE",
"765 516 LINE",
"782 516 LINE",
"782 636 LINE"
);
},
{
closed = 1;
nodes = (
"853 516 LINE",
"853 624 LINE",
"892 624 LINE",
"892 636 LINE",
"798 636 LINE",
"798 624 LINE",
"837 624 LINE",
"837 516 LINE"
);
},
{
closed = 1;
nodes = (
"984 569 LINE",
"984 516 LINE",
"1001 516 LINE",
"1001 636 LINE",
"984 636 LINE",
"984 582 LINE",
"926 582 LINE",
"926 636 LINE",
"909 636 LINE",
"909 516 LINE",
"926 516 LINE",
"926 569 LINE"
);
}
);
width = 1100;
}
);
unicode = E072;
},
{
export = 0;
glyphname = sf.sapo;
lastChange = "2014-08-08 16:59:50 +0000";
layers = (
{
layerId = "7BDE272C-C7FB-4166-8673-7B6B584E769E";
name = Regular;
paths = (
{
closed = 1;
nodes = (
"910 525 OFFCURVE",
"927 542 OFFCURVE",
"948 542 CURVE SMOOTH",
"969 542 OFFCURVE",
"986 525 OFFCURVE",
"986 504 CURVE SMOOTH",
"986 483 OFFCURVE",
"969 466 OFFCURVE",
"948 466 CURVE SMOOTH",
"927 466 OFFCURVE",
"910 483 OFFCURVE",
"910 504 CURVE SMOOTH"
);
},
{
closed = 1;
nodes = (
"1193 452 LINE",
"486 -3 LINE",
"932 703 LINE"
);
},
{
closed = 1;
nodes = (
"1025 546 OFFCURVE",
"992 580 OFFCURVE",
"949 580 CURVE SMOOTH",
"906 581 OFFCURVE",
"872 548 OFFCURVE",
"872 505 CURVE SMOOTH",
"871 462 OFFCURVE",
"904 428 OFFCURVE",
"947 428 CURVE SMOOTH",
"990 427 OFFCURVE",
"1023 460 OFFCURVE",
"1024 503 CURVE SMOOTH"
);
},
{
closed = 1;
nodes = (
"272 240 LINE",
"932 703 LINE",
"486 -3 LINE"
);
},
{
closed = 1;
nodes = (
"486 -3 LINE",
"136 -3 LINE",
"50 273 LINE"
);
},
{
closed = 1;
nodes = (
"1193 452 LINE",
"890 -3 LINE",
"486 -3 LINE"
);
},
{
closed = 1;
nodes = (
"139 404 LINE",
"486 -3 LINE",
"50 273 LINE"
);
}
);
width = 1243;
}
);
unicode = E053;
},
